<svg width="360" height="197" viewBox="0 0 360 197" fill="none" xmlns="http://www.w3.org/2000/svg">
<g clip-path="url(#clip0_428_12058)">
<path d="M48.4104 102.586H36.8893C36.4842 102.586 36.0957 102.747 35.8092 103.033C35.5227 103.32 35.3618 103.708 35.3618 104.113V109.17C35.3618 109.575 35.5227 109.964 35.8092 110.25C36.0957 110.537 36.4842 110.698 36.8893 110.698H38.7985V118.275H46.5012V110.698H48.4104C48.8155 110.698 49.2041 110.537 49.4905 110.25C49.777 109.964 49.9379 109.575 49.9379 109.17V104.113C49.9379 103.708 49.777 103.32 49.4905 103.033C49.2041 102.747 48.8155 102.586 48.4104 102.586Z" fill="#E73B3B"/>
<path d="M59.9499 148.867C52.894 138.543 49.2869 126.249 49.6453 113.749C49.6517 113.461 49.5581 113.179 49.3804 112.952C49.2026 112.725 48.9517 112.566 48.6702 112.503V110.318H36.5023V112.472H36.3347C36.1631 112.472 35.9933 112.508 35.8361 112.577C35.6789 112.646 35.5375 112.746 35.4208 112.872C35.3041 112.998 35.2146 113.146 35.1579 113.308C35.1012 113.47 35.0785 113.642 35.0912 113.813C36.0498 127.176 32.8128 139.159 25.3803 149.763C24.9526 150.373 24.7341 151.104 24.7576 151.849L26.0881 193.005C26.12 193.923 26.5053 194.793 27.1635 195.433C27.8217 196.074 28.7019 196.436 29.6204 196.443H57.1422C58.0712 196.436 58.9606 196.066 59.6208 195.412C60.2809 194.758 60.6598 193.873 60.6767 192.944L61.1894 152.985C61.2046 151.518 60.7722 150.082 59.9499 148.867Z" fill="#3F3D56"/>
<path opacity="0.2" d="M46.0087 104.234C46.0087 105.108 45.6615 105.946 45.0434 106.564C44.4254 107.182 43.5872 107.529 42.7132 107.529C41.8392 107.529 41.001 107.182 40.3829 106.564C39.7649 105.946 39.4177 105.108 39.4177 104.234" fill="black"/>
<path d="M55.5931 162.538H52.2604C51.9422 160.473 50.8957 158.591 49.31 157.231C47.7244 155.871 45.7044 155.123 43.6154 155.123C41.5264 155.123 39.5064 155.871 37.9207 157.231C36.3351 158.591 35.2885 160.473 34.9704 162.538H31.6375C31.2828 162.538 30.9324 162.615 30.6102 162.763C30.288 162.911 30.0017 163.127 29.7708 163.396C29.5399 163.665 29.3699 163.981 29.2726 164.322C29.1752 164.663 29.1527 165.021 29.2066 165.371L32.8266 188.902H53.6134L58.0105 165.451C58.0771 165.095 58.0646 164.73 57.9739 164.38C57.8832 164.03 57.7165 163.705 57.4857 163.427C57.2549 163.149 56.9657 162.925 56.6386 162.771C56.3114 162.618 55.9545 162.538 55.5931 162.538Z" fill="#E73B3B"/>
<path d="M335.656 124.717L334.857 156.668L333.867 196.29H300.168L299.008 149.868L298.378 124.717H335.656Z" fill="#E6E6E6"/>
<path d="M319.254 107.718H314.482V170.941H319.254V107.718Z" fill="#E73B3B"/>
<path d="M333.27 148.792L332.368 194.205H301.652L300.594 140.998C303.362 140.221 306.259 140.022 309.107 140.414C311.955 140.806 314.691 141.779 317.146 143.275C322.278 146.31 328.043 147.944 333.27 148.792Z" fill="#3F3D56"/>
<path d="M309.256 153.904H304.877V158.283H309.256V153.904Z" fill="#E6E6E6"/>
<path d="M312.238 144.958H307.86V149.336H312.238V144.958Z" fill="#E6E6E6"/>
<path d="M321.64 151.151L318.123 148.543L315.515 152.06L319.032 154.668L321.64 151.151Z" fill="#E6E6E6"/>
<path d="M329.55 158.909L326.034 156.301L323.426 159.817L326.942 162.426L329.55 158.909Z" fill="#E6E6E6"/>
<path d="M316.13 163.382L312.614 160.774L310.005 164.291L313.522 166.899L316.13 163.382Z" fill="#E6E6E6"/>
<path d="M326.411 143.206C326.905 143.206 327.306 142.806 327.306 142.312C327.306 141.817 326.905 141.417 326.411 141.417C325.917 141.417 325.517 141.817 325.517 142.312C325.517 142.806 325.917 143.206 326.411 143.206Z" fill="#3F3D56"/>
<path d="M308.22 137.242C308.714 137.242 309.114 136.841 309.114 136.347C309.114 135.853 308.714 135.452 308.22 135.452C307.726 135.452 307.325 135.853 307.325 136.347C307.325 136.841 307.726 137.242 308.22 137.242Z" fill="#3F3D56"/>
<path d="M323.429 130.979C323.923 130.979 324.324 130.579 324.324 130.084C324.324 129.59 323.923 129.19 323.429 129.19C322.935 129.19 322.534 129.59 322.534 130.084C322.534 130.579 322.935 130.979 323.429 130.979Z" fill="#3F3D56"/>
<path d="M180.206 196.017C234.334 196.017 278.214 152.137 278.214 98.0084C278.214 43.8798 234.334 0 180.206 0C126.077 0 82.1975 43.8798 82.1975 98.0084C82.1975 152.137 126.077 196.017 180.206 196.017Z" fill="#E73B3B"/>
<path opacity="0.2" d="M180.206 169.545C163.656 169.545 147.618 163.806 134.824 153.307C122.031 142.807 113.273 128.197 110.045 111.965C106.816 95.7323 109.316 78.8827 117.117 64.2867C124.919 49.6907 137.541 38.2514 152.831 31.918C168.121 25.5845 185.135 24.7487 200.973 29.553C216.81 34.3574 230.492 44.5045 239.687 58.2656C248.882 72.0266 253.02 88.5501 251.398 105.021C249.776 121.491 242.493 136.89 230.79 148.593C224.163 155.256 216.28 160.539 207.597 164.136C198.914 167.732 189.604 169.571 180.206 169.545ZM180.206 30.8837C143.193 30.8837 113.081 60.9957 113.081 98.0084C113.081 135.021 143.193 165.133 180.206 165.133C217.219 165.133 247.331 135.021 247.331 98.0084C247.331 60.9957 217.219 30.8837 180.206 30.8837Z" fill="black"/>
<path d="M180.206 167.339C218.496 167.339 249.537 136.299 249.537 98.0084C249.537 59.7181 218.496 28.6777 180.206 28.6777C141.916 28.6777 110.875 59.7181 110.875 98.0084C110.875 136.299 141.916 167.339 180.206 167.339Z" fill="#3F3D56"/>
<path d="M128.646 70.2859C128.12 69.2561 127.803 68.1327 127.711 66.9801C127.62 65.8274 127.757 64.6681 128.114 63.5683C128.471 62.4685 129.041 61.4498 129.792 60.5706C130.543 59.6913 131.46 58.9687 132.49 58.444C133.52 57.9193 134.644 57.6028 135.797 57.5126C136.949 57.4225 138.109 57.5604 139.208 57.9185C140.307 58.2767 141.325 58.848 142.204 59.5998C143.082 60.3516 143.804 61.2692 144.328 62.3001L163.915 100.764C164.441 101.794 164.759 102.917 164.85 104.07C164.942 105.223 164.805 106.382 164.448 107.482C164.091 108.582 163.521 109.6 162.77 110.48C162.019 111.359 161.102 112.082 160.072 112.606C159.041 113.131 157.918 113.447 156.765 113.538C155.612 113.628 154.453 113.49 153.354 113.132C152.254 112.774 151.236 112.202 150.358 111.45C149.479 110.699 148.757 109.781 148.234 108.75L128.646 70.2859Z" fill="#FF6584"/>
<path opacity="0.2" d="M130.831 74.5762L129.927 72.8009C134.439 69.2952 139.737 66.717 145.609 64.8152L146.513 66.5905C140.158 67.9138 134.751 70.3628 130.831 74.5762Z" fill="black"/>
<path opacity="0.2" d="M135.05 82.8608L134.146 81.0855C138.658 77.5798 143.956 75.0016 149.828 73.0997L150.732 74.875C144.377 76.1983 138.97 78.6474 135.05 82.8608Z" fill="black"/>
<path opacity="0.2" d="M139.269 91.1453L138.365 89.37C142.877 85.8644 148.175 83.2861 154.046 81.3843L154.95 83.1595C148.595 84.4829 143.189 86.9319 139.269 91.1453Z" fill="black"/>
<path opacity="0.2" d="M143.488 99.43L142.584 97.6547C147.096 94.149 152.394 91.5708 158.265 89.6689L159.169 91.4442C152.814 92.7676 147.408 95.2166 143.488 99.43Z" fill="black"/>
<path opacity="0.2" d="M147.707 107.715L146.802 105.939C151.314 102.434 156.612 99.8553 162.484 97.9535L163.388 99.7288C157.033 101.052 151.627 103.501 147.707 107.715Z" fill="black"/>
<path d="M113.951 84.6855C113.425 83.6557 113.108 82.5324 113.016 81.3798C112.925 80.2272 113.062 79.0679 113.419 77.9682C113.776 76.8685 114.346 75.85 115.097 74.9708C115.848 74.0916 116.765 73.369 117.795 72.8444C118.825 72.3197 119.949 72.0032 121.102 71.913C122.254 71.8229 123.413 71.9607 124.513 72.3188C125.612 72.6768 126.63 73.248 127.509 73.9997C128.387 74.7514 129.109 75.6689 129.633 76.6997L149.22 115.164C150.276 117.243 150.464 119.656 149.741 121.874C149.019 124.091 147.446 125.931 145.368 126.989C143.29 128.048 140.877 128.238 138.659 127.518C136.441 126.798 134.599 125.227 133.539 123.15L113.951 84.6855Z" fill="#FF6584"/>
<path opacity="0.2" d="M116.136 88.9757L115.232 87.2005C119.744 83.6948 125.042 81.1166 130.913 79.2147L131.817 80.99C125.462 82.3133 120.056 84.7624 116.136 88.9757Z" fill="black"/>
<path opacity="0.2" d="M120.355 97.2603L119.451 95.485C123.963 91.9793 129.261 89.4011 135.132 87.4993L136.036 89.2745C129.681 90.5979 124.275 93.0469 120.355 97.2603Z" fill="black"/>
<path opacity="0.2" d="M124.573 105.545L123.669 103.77C128.181 100.264 133.479 97.6858 139.351 95.7839L140.255 97.5592C133.9 98.8826 128.494 101.332 124.573 105.545Z" fill="black"/>
<path opacity="0.2" d="M128.792 113.83L127.888 112.054C132.4 108.549 137.698 105.97 143.57 104.068L144.474 105.844C138.119 107.167 132.713 109.616 128.792 113.83Z" fill="black"/>
<path opacity="0.2" d="M133.011 122.114L132.107 120.339C136.619 116.833 141.917 114.255 147.789 112.353L148.693 114.128C142.338 115.452 136.931 117.901 133.011 122.114Z" fill="black"/>
<path d="M226.532 100.214L226.593 100.214C228.703 100.232 230.769 99.6135 232.522 98.4393C234.275 97.2652 235.634 95.5899 236.42 93.6322C238.038 89.543 238.853 85.1806 238.821 80.7833C238.711 62.1708 223.569 46.9015 204.958 46.644C197.032 46.533 189.312 49.1663 183.105 54.0974C176.899 59.0286 172.589 65.9541 170.905 73.7001C169.222 81.4461 170.269 89.5359 173.869 96.5982C177.468 103.66 183.4 109.261 190.657 112.449C192.575 113.299 194.704 113.548 196.766 113.166C198.829 112.784 200.727 111.787 202.213 110.307C205.4 107.103 209.19 104.562 213.363 102.829C217.537 101.097 222.013 100.209 226.532 100.214Z" fill="#E6E6E6"/>
<path d="M208.884 89.8148C215.149 89.8148 220.229 84.7355 220.229 78.4698C220.229 72.2041 215.149 67.1248 208.884 67.1248C202.618 67.1248 197.539 72.2041 197.539 78.4698C197.539 84.7355 202.618 89.8148 208.884 89.8148Z" fill="#F9A825"/>
<path d="M184.227 77.194C184.965 77.194 185.563 76.5956 185.563 75.8575C185.563 75.1194 184.965 74.521 184.227 74.521C183.489 74.521 182.89 75.1194 182.89 75.8575C182.89 76.5956 183.489 77.194 184.227 77.194Z" fill="#3F3D56"/>
<path d="M140.107 78.4546C140.845 78.4546 141.444 77.8562 141.444 77.1181C141.444 76.38 140.845 75.7816 140.107 75.7816C139.369 75.7816 138.771 76.38 138.771 77.1181C138.771 77.8562 139.369 78.4546 140.107 78.4546Z" fill="#3F3D56"/>
<path d="M191.35 63.343C192.088 63.343 192.686 62.7447 192.686 62.0065C192.686 61.2684 192.088 60.67 191.35 60.67C190.612 60.67 190.013 61.2684 190.013 62.0065C190.013 62.7447 190.612 63.343 191.35 63.343Z" fill="#3F3D56"/>
<path d="M191.312 101.866C192.05 101.866 192.648 101.268 192.648 100.529C192.648 99.7914 192.05 99.193 191.312 99.193C190.574 99.193 189.975 99.7914 189.975 100.529C189.975 101.268 190.574 101.866 191.312 101.866Z" fill="#3F3D56"/>
<path d="M217.784 60.5827C218.522 60.5827 219.12 59.9843 219.12 59.2462C219.12 58.508 218.522 57.9097 217.784 57.9097C217.045 57.9097 216.447 58.508 216.447 59.2462C216.447 59.9843 217.045 60.5827 217.784 60.5827Z" fill="#3F3D56"/>
<path d="M131.435 97.1389C132.174 97.1389 132.772 96.5406 132.772 95.8024C132.772 95.0643 132.174 94.4659 131.435 94.4659C130.697 94.4659 130.099 95.0643 130.099 95.8024C130.099 96.5406 130.697 97.1389 131.435 97.1389Z" fill="#3F3D56"/>
<path d="M141.205 116.362C141.943 116.362 142.541 115.764 142.541 115.026C142.541 114.288 141.943 113.689 141.205 113.689C140.467 113.689 139.868 114.288 139.868 115.026C139.868 115.764 140.467 116.362 141.205 116.362Z" fill="#3F3D56"/>
<path d="M202.581 122.589C205.366 122.589 207.623 120.332 207.623 117.547C207.623 114.762 205.366 112.505 202.581 112.505C199.796 112.505 197.539 114.762 197.539 117.547C197.539 120.332 199.796 122.589 202.581 122.589Z" fill="#FF6584"/>
<path opacity="0.2" d="M206.363 117.862C206.363 118.865 205.964 119.827 205.255 120.536C204.546 121.245 203.584 121.644 202.581 121.644C201.578 121.644 200.616 121.245 199.907 120.536C199.198 119.827 198.799 118.865 198.799 117.862" fill="black"/>
<path opacity="0.2" d="M198.799 117.232C198.799 116.229 199.198 115.267 199.907 114.558C200.616 113.849 201.578 113.45 202.581 113.45C203.584 113.45 204.546 113.849 205.255 114.558C205.964 115.267 206.363 116.229 206.363 117.232" fill="black"/>
<path d="M200.69 116.286C200.864 116.286 201.005 116.075 201.005 115.814C201.005 115.553 200.864 115.341 200.69 115.341C200.516 115.341 200.375 115.553 200.375 115.814C200.375 116.075 200.516 116.286 200.69 116.286Z" fill="#FF6584"/>
<path d="M202.581 115.656C202.755 115.656 202.896 115.445 202.896 115.184C202.896 114.922 202.755 114.711 202.581 114.711C202.407 114.711 202.266 114.922 202.266 115.184C202.266 115.445 202.407 115.656 202.581 115.656Z" fill="#FF6584"/>
<path d="M202.581 119.753C202.755 119.753 202.896 119.541 202.896 119.28C202.896 119.019 202.755 118.808 202.581 118.808C202.407 118.808 202.266 119.019 202.266 119.28C202.266 119.541 202.407 119.753 202.581 119.753Z" fill="#FF6584"/>
<path d="M204.472 117.232C204.646 117.232 204.787 117.02 204.787 116.759C204.787 116.498 204.646 116.286 204.472 116.286C204.298 116.286 204.156 116.498 204.156 116.759C204.156 117.02 204.298 117.232 204.472 117.232Z" fill="#FF6584"/>
<path d="M204.157 120.698C204.331 120.698 204.472 120.487 204.472 120.226C204.472 119.965 204.331 119.753 204.157 119.753C203.983 119.753 203.842 119.965 203.842 120.226C203.842 120.487 203.983 120.698 204.157 120.698Z" fill="#FF6584"/>
<path d="M200.375 119.123C200.549 119.123 200.69 118.911 200.69 118.65C200.69 118.389 200.549 118.177 200.375 118.177C200.201 118.177 200.06 118.389 200.06 118.65C200.06 118.911 200.201 119.123 200.375 119.123Z" fill="#FF6584"/>
<path d="M212.665 109.038C215.45 109.038 217.708 106.781 217.708 103.996C217.708 101.211 215.45 98.9539 212.665 98.9539C209.881 98.9539 207.623 101.211 207.623 103.996C207.623 106.781 209.881 109.038 212.665 109.038Z" fill="#FF6584"/>
<path opacity="0.2" d="M216.447 104.311C216.447 105.314 216.049 106.276 215.34 106.985C214.63 107.694 213.668 108.093 212.665 108.093C211.662 108.093 210.701 107.694 209.991 106.985C209.282 106.276 208.884 105.314 208.884 104.311" fill="black"/>
<path opacity="0.2" d="M208.884 103.681C208.884 102.678 209.282 101.716 209.991 101.007C210.701 100.298 211.662 99.8992 212.665 99.8992C213.668 99.8992 214.63 100.298 215.34 101.007C216.049 101.716 216.447 102.678 216.447 103.681" fill="black"/>
<path d="M210.775 102.735C210.949 102.735 211.09 102.524 211.09 102.263C211.09 102.002 210.949 101.79 210.775 101.79C210.601 101.79 210.459 102.002 210.459 102.263C210.459 102.524 210.601 102.735 210.775 102.735Z" fill="#FF6584"/>
<path d="M212.665 102.105C212.839 102.105 212.98 101.894 212.98 101.632C212.98 101.371 212.839 101.16 212.665 101.16C212.491 101.16 212.35 101.371 212.35 101.632C212.35 101.894 212.491 102.105 212.665 102.105Z" fill="#FF6584"/>
<path d="M212.665 106.202C212.839 106.202 212.98 105.99 212.98 105.729C212.98 105.468 212.839 105.257 212.665 105.257C212.491 105.257 212.35 105.468 212.35 105.729C212.35 105.99 212.491 106.202 212.665 106.202Z" fill="#FF6584"/>
<path d="M214.556 103.681C214.73 103.681 214.871 103.469 214.871 103.208C214.871 102.947 214.73 102.735 214.556 102.735C214.382 102.735 214.241 102.947 214.241 103.208C214.241 103.469 214.382 103.681 214.556 103.681Z" fill="#FF6584"/>
<path d="M214.241 107.147C214.415 107.147 214.556 106.936 214.556 106.675C214.556 106.414 214.415 106.202 214.241 106.202C214.067 106.202 213.926 106.414 213.926 106.675C213.926 106.936 214.067 107.147 214.241 107.147Z" fill="#FF6584"/>
<path d="M210.459 105.572C210.633 105.572 210.775 105.36 210.775 105.099C210.775 104.838 210.633 104.626 210.459 104.626C210.285 104.626 210.144 104.838 210.144 105.099C210.144 105.36 210.285 105.572 210.459 105.572Z" fill="#FF6584"/>
<path d="M222.75 115.971C225.534 115.971 227.792 113.714 227.792 110.929C227.792 108.144 225.534 105.887 222.75 105.887C219.965 105.887 217.708 108.144 217.708 110.929C217.708 113.714 219.965 115.971 222.75 115.971Z" fill="#E73B3B"/>
<path opacity="0.2" d="M226.532 111.244C226.532 112.247 226.133 113.209 225.424 113.918C224.715 114.628 223.753 115.026 222.75 115.026C221.747 115.026 220.785 114.628 220.076 113.918C219.367 113.209 218.968 112.247 218.968 111.244" fill="black"/>
<path opacity="0.2" d="M218.968 110.614C218.968 109.611 219.367 108.649 220.076 107.94C220.785 107.231 221.747 106.832 222.75 106.832C223.753 106.832 224.715 107.231 225.424 107.94C226.133 108.649 226.532 109.611 226.532 110.614" fill="black"/>
<path d="M220.859 109.669C221.033 109.669 221.174 109.457 221.174 109.196C221.174 108.935 221.033 108.723 220.859 108.723C220.685 108.723 220.544 108.935 220.544 109.196C220.544 109.457 220.685 109.669 220.859 109.669Z" fill="#E73B3B"/>
<path d="M222.75 109.038C222.924 109.038 223.065 108.827 223.065 108.566C223.065 108.305 222.924 108.093 222.75 108.093C222.576 108.093 222.435 108.305 222.435 108.566C222.435 108.827 222.576 109.038 222.75 109.038Z" fill="#E73B3B"/>
<path d="M222.75 113.135C222.924 113.135 223.065 112.923 223.065 112.662C223.065 112.401 222.924 112.19 222.75 112.19C222.576 112.19 222.435 112.401 222.435 112.662C222.435 112.923 222.576 113.135 222.75 113.135Z" fill="#E73B3B"/>
<path d="M224.641 110.614C224.815 110.614 224.956 110.402 224.956 110.141C224.956 109.88 224.815 109.669 224.641 109.669C224.467 109.669 224.325 109.88 224.325 110.141C224.325 110.402 224.467 110.614 224.641 110.614Z" fill="#E73B3B"/>
<path d="M224.325 114.081C224.499 114.081 224.641 113.869 224.641 113.608C224.641 113.347 224.499 113.135 224.325 113.135C224.151 113.135 224.01 113.347 224.01 113.608C224.01 113.869 224.151 114.081 224.325 114.081Z" fill="#E73B3B"/>
<path d="M220.544 112.505C220.718 112.505 220.859 112.293 220.859 112.032C220.859 111.771 220.718 111.559 220.544 111.559C220.37 111.559 220.229 111.771 220.229 112.032C220.229 112.293 220.37 112.505 220.544 112.505Z" fill="#E73B3B"/>
<path d="M197.539 116.602C200.323 116.602 202.581 114.344 202.581 111.559C202.581 108.775 200.323 106.517 197.539 106.517C194.754 106.517 192.496 108.775 192.496 111.559C192.496 114.344 194.754 116.602 197.539 116.602Z" fill="#E73B3B"/>
<path opacity="0.2" d="M201.32 111.875C201.32 112.877 200.922 113.839 200.213 114.549C199.504 115.258 198.542 115.656 197.539 115.656C196.536 115.656 195.574 115.258 194.865 114.549C194.155 113.839 193.757 112.877 193.757 111.875" fill="black"/>
<path opacity="0.2" d="M193.757 111.244C193.757 110.241 194.155 109.279 194.865 108.57C195.574 107.861 196.536 107.463 197.539 107.463C198.542 107.463 199.504 107.861 200.213 108.57C200.922 109.279 201.32 110.241 201.32 111.244" fill="black"/>
<path d="M195.648 110.299C195.822 110.299 195.963 110.087 195.963 109.826C195.963 109.565 195.822 109.353 195.648 109.353C195.474 109.353 195.333 109.565 195.333 109.826C195.333 110.087 195.474 110.299 195.648 110.299Z" fill="#E73B3B"/>
<path d="M197.539 109.669C197.713 109.669 197.854 109.457 197.854 109.196C197.854 108.935 197.713 108.723 197.539 108.723C197.364 108.723 197.223 108.935 197.223 109.196C197.223 109.457 197.364 109.669 197.539 109.669Z" fill="#E73B3B"/>
<path d="M197.539 113.765C197.713 113.765 197.854 113.554 197.854 113.293C197.854 113.032 197.713 112.82 197.539 112.82C197.364 112.82 197.223 113.032 197.223 113.293C197.223 113.554 197.364 113.765 197.539 113.765Z" fill="#E73B3B"/>
<path d="M199.429 111.244C199.603 111.244 199.745 111.033 199.745 110.772C199.745 110.51 199.603 110.299 199.429 110.299C199.255 110.299 199.114 110.51 199.114 110.772C199.114 111.033 199.255 111.244 199.429 111.244Z" fill="#E73B3B"/>
<path d="M199.114 114.711C199.289 114.711 199.43 114.499 199.43 114.238C199.43 113.977 199.289 113.765 199.114 113.765C198.94 113.765 198.799 113.977 198.799 114.238C198.799 114.499 198.94 114.711 199.114 114.711Z" fill="#E73B3B"/>
<path d="M195.333 113.135C195.507 113.135 195.648 112.923 195.648 112.662C195.648 112.401 195.507 112.19 195.333 112.19C195.159 112.19 195.018 112.401 195.018 112.662C195.018 112.923 195.159 113.135 195.333 113.135Z" fill="#E73B3B"/>
<path d="M208.884 118.808C211.668 118.808 213.926 116.55 213.926 113.765C213.926 110.981 211.668 108.723 208.884 108.723C206.099 108.723 203.841 110.981 203.841 113.765C203.841 116.55 206.099 118.808 208.884 118.808Z" fill="#E73B3B"/>
<path opacity="0.2" d="M212.665 114.081C212.665 114.577 212.568 115.069 212.378 115.528C212.187 115.987 211.909 116.403 211.558 116.755C211.207 117.106 210.79 117.384 210.331 117.574C209.872 117.764 209.38 117.862 208.884 117.862C208.387 117.862 207.895 117.764 207.437 117.574C206.978 117.384 206.561 117.106 206.21 116.755C205.859 116.403 205.58 115.987 205.39 115.528C205.2 115.069 205.102 114.577 205.102 114.081" fill="black"/>
<path opacity="0.2" d="M205.102 113.45C205.102 112.954 205.2 112.462 205.39 112.003C205.58 111.544 205.859 111.127 206.21 110.776C206.561 110.425 206.978 110.146 207.437 109.956C207.895 109.766 208.387 109.669 208.884 109.669C209.38 109.669 209.872 109.766 210.331 109.956C210.79 110.146 211.207 110.425 211.558 110.776C211.909 111.127 212.187 111.544 212.378 112.003C212.568 112.462 212.665 112.954 212.665 113.45" fill="black"/>
<path d="M206.993 112.505C207.167 112.505 207.308 112.293 207.308 112.032C207.308 111.771 207.167 111.559 206.993 111.559C206.819 111.559 206.678 111.771 206.678 112.032C206.678 112.293 206.819 112.505 206.993 112.505Z" fill="#E73B3B"/>
<path d="M208.884 111.874C209.058 111.874 209.199 111.663 209.199 111.402C209.199 111.141 209.058 110.929 208.884 110.929C208.71 110.929 208.569 111.141 208.569 111.402C208.569 111.663 208.71 111.874 208.884 111.874Z" fill="#E73B3B"/>
<path d="M208.884 115.971C209.058 115.971 209.199 115.76 209.199 115.499C209.199 115.238 209.058 115.026 208.884 115.026C208.71 115.026 208.569 115.238 208.569 115.499C208.569 115.76 208.71 115.971 208.884 115.971Z" fill="#E73B3B"/>
<path d="M210.775 113.45C210.949 113.45 211.09 113.239 211.09 112.977C211.09 112.716 210.949 112.505 210.775 112.505C210.601 112.505 210.459 112.716 210.459 112.977C210.459 113.239 210.601 113.45 210.775 113.45Z" fill="#E73B3B"/>
<path d="M210.459 116.917C210.633 116.917 210.775 116.705 210.775 116.444C210.775 116.183 210.633 115.971 210.459 115.971C210.285 115.971 210.144 116.183 210.144 116.444C210.144 116.705 210.285 116.917 210.459 116.917Z" fill="#E73B3B"/>
<path d="M206.678 115.341C206.852 115.341 206.993 115.129 206.993 114.868C206.993 114.607 206.852 114.396 206.678 114.396C206.504 114.396 206.363 114.607 206.363 114.868C206.363 115.129 206.504 115.341 206.678 115.341Z" fill="#E73B3B"/>
<path d="M216.762 124.165C219.547 124.165 221.804 121.907 221.804 119.123C221.804 116.338 219.547 114.08 216.762 114.08C213.977 114.08 211.72 116.338 211.72 119.123C211.72 121.907 213.977 124.165 216.762 124.165Z" fill="#FF6584"/>
<path opacity="0.2" d="M220.544 119.438C220.544 120.441 220.145 121.403 219.436 122.112C218.727 122.821 217.765 123.22 216.762 123.22C215.759 123.22 214.797 122.821 214.088 122.112C213.379 121.403 212.98 120.441 212.98 119.438" fill="black"/>
<path opacity="0.2" d="M212.98 118.808C212.98 117.805 213.379 116.843 214.088 116.134C214.797 115.424 215.759 115.026 216.762 115.026C217.765 115.026 218.727 115.424 219.436 116.134C220.145 116.843 220.544 117.805 220.544 118.808" fill="black"/>
<path d="M214.871 117.862C215.045 117.862 215.186 117.651 215.186 117.389C215.186 117.128 215.045 116.917 214.871 116.917C214.697 116.917 214.556 117.128 214.556 117.389C214.556 117.651 214.697 117.862 214.871 117.862Z" fill="#FF6584"/>
<path d="M216.762 117.232C216.936 117.232 217.077 117.02 217.077 116.759C217.077 116.498 216.936 116.286 216.762 116.286C216.588 116.286 216.447 116.498 216.447 116.759C216.447 117.02 216.588 117.232 216.762 117.232Z" fill="#FF6584"/>
<path d="M216.762 121.329C216.936 121.329 217.077 121.117 217.077 120.856C217.077 120.595 216.936 120.383 216.762 120.383C216.588 120.383 216.447 120.595 216.447 120.856C216.447 121.117 216.588 121.329 216.762 121.329Z" fill="#FF6584"/>
<path d="M218.653 118.808C218.827 118.808 218.968 118.596 218.968 118.335C218.968 118.074 218.827 117.862 218.653 117.862C218.479 117.862 218.338 118.074 218.338 118.335C218.338 118.596 218.479 118.808 218.653 118.808Z" fill="#FF6584"/>
<path d="M218.338 122.274C218.512 122.274 218.653 122.063 218.653 121.801C218.653 121.54 218.512 121.329 218.338 121.329C218.164 121.329 218.023 121.54 218.023 121.801C218.023 122.063 218.164 122.274 218.338 122.274Z" fill="#FF6584"/>
<path d="M214.556 120.698C214.73 120.698 214.871 120.487 214.871 120.226C214.871 119.965 214.73 119.753 214.556 119.753C214.382 119.753 214.241 119.965 214.241 120.226C214.241 120.487 214.382 120.698 214.556 120.698Z" fill="#FF6584"/>
<path d="M151.919 101.236C152.657 101.236 153.256 100.637 153.256 99.8992C153.256 99.1611 152.657 98.5627 151.919 98.5627C151.181 98.5627 150.583 99.1611 150.583 99.8992C150.583 100.637 151.181 101.236 151.919 101.236Z" fill="#3F3D56"/>
<path d="M188.248 148.411L156.15 139.509L157.379 134.942L189.477 143.844L188.248 148.411Z" fill="#F9A825"/>
<path d="M183.543 146.884C172.551 148.989 161.26 148.989 150.268 146.884V142.15C161.284 143.976 172.526 143.976 183.543 142.15V146.884Z" fill="#F9A825"/>
<path d="M186.963 132.681C175.971 134.785 164.68 134.785 153.688 132.681V127.947C164.705 129.772 175.947 129.772 186.963 127.947V132.681Z" fill="#F9A825"/>
<path d="M198.47 138.362C187.478 140.467 176.187 140.467 165.195 138.362V133.628C176.211 135.454 187.453 135.454 198.47 133.628V138.362Z" fill="#F9A825"/>
<path d="M201.268 143.728C190.277 145.832 178.985 145.832 167.994 143.728V138.994C179.01 140.819 190.252 140.819 201.268 138.994V143.728Z" fill="#F9A825"/>
<path d="M211.026 150.739L178.198 156.254L177.436 151.583L210.264 146.068L211.026 150.739Z" fill="#F9A825"/>
<path d="M206.122 151.346C197.021 157.907 186.763 162.691 175.887 165.448L173.939 161.146C184.72 158.128 194.934 153.364 204.175 147.044L206.122 151.346Z" fill="#F9A825"/>
<path d="M203.387 136.991C194.286 143.552 184.028 148.336 173.152 151.093L171.204 146.791C181.985 143.772 192.198 139.008 201.44 132.689L203.387 136.991Z" fill="#F9A825"/>
<path d="M216.18 137.277C207.078 143.838 196.82 148.622 185.945 151.379L183.997 147.077C194.777 144.058 204.991 139.294 214.232 132.975L216.18 137.277Z" fill="#F9A825"/>
<path d="M220.93 140.966C211.829 147.527 201.571 152.311 190.695 155.068L188.748 150.766C199.528 147.747 209.742 142.984 218.983 136.664L220.93 140.966Z" fill="#F9A825"/>
<path d="M181.151 131.728H179.576V133.304H181.151V131.728Z" fill="#00BF71"/>
<path d="M185.878 159.146H184.303V160.721H185.878V159.146Z" fill="#00BF71"/>
<path d="M160.667 131.728H159.092V133.304H160.667V131.728Z" fill="#00BF71"/>
<path d="M197.223 151.267H195.648V152.843H197.223V151.267Z" fill="#00BF71"/>
<path d="M198.169 142.128H196.593V143.704H198.169V142.128Z" fill="#00BF71"/>
<path d="M172.176 137.814L170.351 136.575L169.643 137.618L171.468 138.857L172.176 137.814Z" fill="#00BF71"/>
<path d="M190.769 141.28L188.944 140.042L188.236 141.085L190.061 142.323L190.769 141.28Z" fill="#00BF71"/>
<path d="M168.079 147.268L166.254 146.029L165.546 147.072L167.371 148.311L168.079 147.268Z" fill="#00BF71"/>
<path d="M179.635 147.176L180.874 145.351L179.831 144.643L178.592 146.468L179.635 147.176Z" fill="#00BF71"/>
<path d="M188.144 149.382L189.383 147.557L188.34 146.849L187.101 148.674L188.144 149.382Z" fill="#00BF71"/>
<path d="M210.836 141.818L212.075 139.993L211.032 139.285L209.793 141.111L210.836 141.818Z" fill="#00BF71"/>
<path d="M360 195.911H0V196.82H360V195.911Z" fill="#3F3D56"/>
</g>
<defs>
<clipPath id="clip0_428_12058">
<rect width="360" height="196.82" fill="white"/>
</clipPath>
</defs>
</svg>
