<svg width="360" height="140" viewBox="0 0 360 140" fill="none" xmlns="http://www.w3.org/2000/svg">
<rect width="360" height="140" fill="white"/>
<g clip-path="url(#clip0_862_10423)">
<rect x="21" y="28" width="84" height="84" rx="21.1927" fill="#E73B3B"/>
<mask id="path-3-outside-1_862_10423" maskUnits="userSpaceOnUse" x="-7.33237" y="25.4257" width="118.087" height="118.087" fill="black">
<rect fill="white" x="-7.33237" y="25.4257" width="118.087" height="118.087"/>
<path fill-rule="evenodd" clip-rule="evenodd" d="M53.0312 37.8941C56.7931 34.1322 62.8924 34.1322 66.6544 37.8941C70.4163 41.656 70.4163 47.7553 66.6544 51.5173L59.852 58.3196L59.8427 58.3289C59.2408 58.9308 59.2408 59.9067 59.8427 60.5086C60.4446 61.1105 61.4205 61.1105 62.0224 60.5086L62.0262 60.5047L68.834 53.697C72.5959 49.935 78.6952 49.935 82.4571 53.697C86.2191 57.4589 86.2191 63.5582 82.4571 67.3201L75.6456 74.1317L75.6456 74.1317C75.6456 74.1318 75.6456 74.1318 75.6456 74.1318C75.0437 74.7337 75.0437 75.7096 75.6456 76.3115C76.2475 76.9134 77.2234 76.9134 77.8253 76.3115C77.8264 76.3103 77.8276 76.3092 77.8288 76.308L84.6369 69.4999C88.3988 65.7379 94.4981 65.738 98.26 69.4999C102.022 73.2618 102.022 79.3611 98.2601 83.123L91.4485 89.9346L91.4485 89.9346L77.5529 103.83C69.1694 112.214 55.9493 112.813 46.8746 105.627L37.2283 115.274C32.714 119.788 25.3949 119.788 20.8806 115.274L20.6081 115.001C16.0938 110.487 16.0938 103.168 20.6081 98.6535L30.2884 88.9732C23.3559 79.9094 24.0344 66.891 32.324 58.6014L35.3211 55.6043L35.3211 55.6042L53.0312 37.8941Z"/>
</mask>
<path fill-rule="evenodd" clip-rule="evenodd" d="M53.0312 37.8941C56.7931 34.1322 62.8924 34.1322 66.6544 37.8941C70.4163 41.656 70.4163 47.7553 66.6544 51.5173L59.852 58.3196L59.8427 58.3289C59.2408 58.9308 59.2408 59.9067 59.8427 60.5086C60.4446 61.1105 61.4205 61.1105 62.0224 60.5086L62.0262 60.5047L68.834 53.697C72.5959 49.935 78.6952 49.935 82.4571 53.697C86.2191 57.4589 86.2191 63.5582 82.4571 67.3201L75.6456 74.1317L75.6456 74.1317C75.6456 74.1318 75.6456 74.1318 75.6456 74.1318C75.0437 74.7337 75.0437 75.7096 75.6456 76.3115C76.2475 76.9134 77.2234 76.9134 77.8253 76.3115C77.8264 76.3103 77.8276 76.3092 77.8288 76.308L84.6369 69.4999C88.3988 65.7379 94.4981 65.738 98.26 69.4999C102.022 73.2618 102.022 79.3611 98.2601 83.123L91.4485 89.9346L91.4485 89.9346L77.5529 103.83C69.1694 112.214 55.9493 112.813 46.8746 105.627L37.2283 115.274C32.714 119.788 25.3949 119.788 20.8806 115.274L20.6081 115.001C16.0938 110.487 16.0938 103.168 20.6081 98.6535L30.2884 88.9732C23.3559 79.9094 24.0344 66.891 32.324 58.6014L35.3211 55.6043L35.3211 55.6042L53.0312 37.8941Z" fill="white"/>
<path d="M53.0312 37.8941L50.3066 35.1695L53.0312 37.8941ZM66.6544 51.5173L69.379 54.2419L66.6544 51.5173ZM59.852 58.3196L62.5652 61.0556C62.569 61.0518 62.5729 61.048 62.5767 61.0442L59.852 58.3196ZM59.8427 58.3289L57.1295 55.5928C57.1257 55.5966 57.1218 55.6004 57.118 55.6042L59.8427 58.3289ZM62.0224 60.5086L64.747 63.2332L64.7517 63.2285L62.0224 60.5086ZM62.0262 60.5047L59.3016 57.7801L59.2969 57.7848L62.0262 60.5047ZM75.6456 74.1317L72.9209 71.407C71.4162 72.9118 71.4162 75.3515 72.9209 76.8563L75.6456 74.1317ZM75.6456 74.1317L78.3703 76.8564C79.875 75.3516 79.875 72.9119 78.3703 71.4071L75.6456 74.1317ZM91.4485 89.9346L88.7239 87.21C87.2191 88.7147 87.2191 91.1545 88.7239 92.6592L91.4485 89.9346ZM91.4485 89.9346L94.1732 92.6593C95.6779 91.1545 95.6779 88.7148 94.1732 87.21L91.4485 89.9346ZM77.5529 103.83L80.2775 106.555L77.5529 103.83ZM46.8746 105.627L49.2666 102.607C47.7331 101.392 45.5331 101.52 44.15 102.903L46.8746 105.627ZM20.8806 115.274L18.1559 117.998L20.8806 115.274ZM20.6081 115.001L23.3327 112.277L20.6081 115.001ZM30.2884 88.9732L33.013 91.6978C34.3787 90.3322 34.5223 88.1664 33.349 86.6323L30.2884 88.9732ZM35.3211 55.6043L38.0458 58.3289C38.7684 57.6063 39.1744 56.6262 39.1744 55.6043C39.1744 54.5823 38.7684 53.6022 38.0458 52.8796L35.3211 55.6043ZM35.3211 55.6042L32.5965 52.8796C31.8738 53.6022 31.4679 54.5823 31.4679 55.6042C31.4679 56.6261 31.8738 57.6062 32.5965 58.3288L35.3211 55.6042ZM69.379 35.1695C64.1123 29.9028 55.5733 29.9028 50.3066 35.1695L55.7558 40.6187C58.013 38.3616 61.6726 38.3616 63.9297 40.6187L69.379 35.1695ZM69.379 54.2419C74.6457 48.9752 74.6457 40.4362 69.379 35.1695L63.9297 40.6187C66.1869 42.8759 66.1869 46.5355 63.9297 48.7926L69.379 54.2419ZM62.5767 61.0442L69.379 54.2419L63.9297 48.7926L57.1274 55.5949L62.5767 61.0442ZM62.5558 61.0649L62.5652 61.0556L57.1388 55.5835L57.1295 55.5928L62.5558 61.0649ZM62.5673 57.7839C63.4702 58.6868 63.4702 60.1506 62.5673 61.0535L57.118 55.6042C55.0113 57.7109 55.0113 61.1265 57.118 63.2332L62.5673 57.7839ZM59.2977 57.7839C60.2006 56.8811 61.6644 56.8811 62.5673 57.7839L57.118 63.2332C59.2247 65.3399 62.6403 65.3399 64.747 63.2332L59.2977 57.7839ZM59.2969 57.7848L59.293 57.7887L64.7517 63.2285L64.7556 63.2246L59.2969 57.7848ZM66.1093 50.9723L59.3016 57.7801L64.7509 63.2293L71.5586 56.4216L66.1093 50.9723ZM85.1818 50.9723C79.9151 45.7056 71.376 45.7056 66.1093 50.9723L71.5586 56.4216C73.8158 54.1644 77.4753 54.1644 79.7325 56.4216L85.1818 50.9723ZM85.1818 70.0447C90.4485 64.778 90.4485 56.239 85.1818 50.9723L79.7325 56.4216C81.9897 58.6787 81.9897 62.3383 79.7325 64.5955L85.1818 70.0447ZM78.3702 76.8563L85.1818 70.0447L79.7325 64.5955L72.9209 71.407L78.3702 76.8563ZM78.3703 71.4071L78.3702 71.407L72.9209 76.8563L72.921 76.8564L78.3703 71.4071ZM78.3702 76.8564C78.3702 76.8564 78.3702 76.8564 78.3702 76.8564C78.3702 76.8564 78.3703 76.8564 78.3703 76.8564L72.921 71.4071C72.921 71.4071 72.921 71.4071 72.921 71.4071C72.921 71.4071 72.921 71.4072 72.921 71.4072L78.3702 76.8564ZM78.3702 73.5869C79.2731 74.4897 79.2731 75.9536 78.3702 76.8564L72.921 71.4072C70.8143 73.5138 70.8143 76.9294 72.921 79.0361L78.3702 73.5869ZM75.1007 73.5869C76.0035 72.684 77.4674 72.684 78.3702 73.5869L72.921 79.0361C75.0276 81.1428 78.4432 81.1428 80.5499 79.0361L75.1007 73.5869ZM75.1041 73.5834C75.0998 73.5877 75.0961 73.5915 75.096 73.5915C75.0949 73.5926 75.0975 73.59 75.1007 73.5869L80.5499 79.0361C80.5542 79.0318 80.558 79.0281 80.558 79.028C80.5591 79.0269 80.5565 79.0295 80.5534 79.0327L75.1041 73.5834ZM81.9123 66.7752L75.1041 73.5834L80.5534 79.0327L87.3615 72.2245L81.9123 66.7752ZM100.985 66.7753C95.718 61.5086 87.179 61.5085 81.9123 66.7752L87.3615 72.2245C89.6187 69.9674 93.2783 69.9674 95.5354 72.2245L100.985 66.7753ZM100.985 85.8477C106.251 80.581 106.251 72.042 100.985 66.7753L95.5354 72.2245C97.7926 74.4817 97.7926 78.1413 95.5354 80.3984L100.985 85.8477ZM94.1731 92.6592L100.985 85.8477L95.5354 80.3984L88.7239 87.21L94.1731 92.6592ZM94.1732 87.21L94.1731 87.21L88.7239 92.6592L88.7239 92.6593L94.1732 87.21ZM80.2775 106.555L94.1732 92.6593L88.7239 87.21L74.8283 101.106L80.2775 106.555ZM44.4827 108.648C55.073 117.034 70.4949 116.338 80.2775 106.555L74.8283 101.106C67.844 108.09 56.8257 108.592 49.2666 102.607L44.4827 108.648ZM39.953 117.998L49.5993 108.352L44.15 102.903L34.5037 112.549L39.953 117.998ZM18.1559 117.998C24.175 124.017 33.9339 124.017 39.953 117.998L34.5037 112.549C31.4942 115.559 26.6147 115.559 23.6052 112.549L18.1559 117.998ZM17.8835 117.726L18.1559 117.998L23.6052 112.549L23.3327 112.277L17.8835 117.726ZM17.8835 95.9289C11.8644 101.948 11.8644 111.707 17.8835 117.726L23.3327 112.277C20.3232 109.267 20.3232 104.388 23.3327 101.378L17.8835 95.9289ZM27.5637 86.2486L17.8835 95.9289L23.3327 101.378L33.013 91.6978L27.5637 86.2486ZM29.5994 55.8767C19.926 65.5501 19.1375 80.7367 27.2278 91.3141L33.349 86.6323C27.5742 79.0822 28.1429 68.2318 35.0487 61.326L29.5994 55.8767ZM32.5965 52.8796L29.5994 55.8767L35.0487 61.326L38.0458 58.3289L32.5965 52.8796ZM32.5965 58.3288L32.5965 58.3289L38.0458 52.8796L38.0457 52.8796L32.5965 58.3288ZM50.3066 35.1695L32.5965 52.8796L38.0457 58.3288L55.7558 40.6187L50.3066 35.1695Z" fill="#E73B3B" mask="url(#path-3-outside-1_862_10423)"/>
<path d="M64.0746 78.9002C64.2947 81.4799 64.2947 81.4799 68.272 83.0137" stroke="#E73B3B" stroke-width="3.08257" stroke-linecap="round"/>
<path d="M52.2665 68.6077C52.4866 71.1874 52.4866 71.1874 56.4638 72.7213" stroke="#E73B3B" stroke-width="3.08257" stroke-linecap="round"/>
<path d="M51.2183 80.5122C52.8531 81.8745 52.8531 81.8745 55.169 81.7383" stroke="#E73B3B" stroke-width="3.08257" stroke-linecap="round"/>
<path d="M55.1571 82.0466C55.0167 84.17 55.0167 84.17 56.4889 85.963" stroke="#E73B3B" stroke-width="3.08257" stroke-linecap="round"/>
<ellipse cx="66.0825" cy="86.1833" rx="1.54128" ry="2.69725" fill="#3184E4"/>
</g>
<path d="M117.76 61.9341L122.992 64.9242C123.615 65.2802 124 65.9429 124 66.6606V67.5H127.5V55.5H124V56.3394C124 57.0571 123.615 57.7198 122.992 58.0758L117.76 61.0659C117.424 61.2578 117.424 61.7422 117.76 61.9341Z" fill="#EC8F83"/>
<rect x="124" y="43" width="220" height="54" rx="8" fill="#EC8F83"/>
<path d="M139.024 57.8835C140.505 57.8835 141.576 59.2275 141.576 61.3485C141.576 63.4905 140.505 64.8345 139.024 64.8345C137.543 64.8345 136.473 63.4905 136.473 61.3485C136.473 59.2275 137.543 57.8835 139.024 57.8835ZM139.024 59.154C138.3 59.154 137.817 59.9205 137.817 61.3485C137.817 62.7975 138.3 63.5745 139.024 63.5745C139.749 63.5745 140.242 62.7975 140.242 61.3485C140.242 59.9205 139.749 59.154 139.024 59.154ZM142.636 57.2115H144.043V66.9345H142.636V57.2115ZM143.728 60.876H145.45V62.031H143.728V60.876ZM148.599 58.209H149.754V58.818C149.754 60.6555 148.862 62.3145 146.993 62.913L146.279 61.8315C147.896 61.3065 148.599 60.036 148.599 58.818V58.209ZM148.883 58.209H150.027V58.818C150.027 59.973 150.72 61.1595 152.306 61.6635L151.592 62.745C149.765 62.1675 148.883 60.5715 148.883 58.818V58.209ZM152.915 57.2115H154.322V63.0705H152.915V57.2115ZM147.686 63.501H154.322V66.9345H152.915V64.614H147.686V63.501ZM146.646 57.7785H151.938V58.881H146.646V57.7785ZM165.666 57.2115H166.999V66.9345H165.666V57.2115ZM161.97 60.7605H164.227V61.884H161.97V60.7605ZM163.66 57.3795H164.962V66.504H163.66V57.3795ZM158.925 63.627H159.597C160.972 63.627 161.886 63.5955 162.957 63.3855L163.062 64.5195C161.98 64.74 161.014 64.782 159.597 64.782H158.925V63.627ZM158.925 58.3035H162.631V59.4165H160.3V64.11H158.925V58.3035ZM175.125 57.201H176.532V66.9555H175.125V57.201ZM171.293 57.8835C172.763 57.8835 173.844 59.2275 173.844 61.3485C173.844 63.4905 172.763 64.8345 171.293 64.8345C169.823 64.8345 168.741 63.4905 168.741 61.3485C168.741 59.2275 169.823 57.8835 171.293 57.8835ZM171.293 59.154C170.568 59.154 170.075 59.9205 170.075 61.3485C170.075 62.7975 170.568 63.5745 171.293 63.5745C172.017 63.5745 172.5 62.7975 172.5 61.3485C172.5 59.9205 172.017 59.154 171.293 59.154ZM185.047 57.201H186.433V66.9555H185.047V57.201ZM183.377 60.624H185.204V61.758H183.377V60.624ZM178.715 63.627H179.492C181.099 63.627 182.296 63.606 183.671 63.3855L183.797 64.4985C182.39 64.719 181.13 64.761 179.492 64.761H178.715V63.627ZM178.715 58.02H183.22V59.154H180.101V63.984H178.715V58.02ZM179.786 60.729H182.884V61.821H179.786V60.729ZM194.307 57.201H195.714V66.924H194.307V57.201ZM195.347 60.918H197.058V62.0625H195.347V60.918ZM191.756 58.209H193.121C193.121 61.128 192.008 63.627 188.774 65.2545L187.997 64.194C190.548 62.871 191.756 61.086 191.756 58.4505V58.209ZM188.532 58.209H192.47V59.3325H188.532V58.209ZM201.566 62.9025H202.858V63.858H203.824V62.9025H205.115V66.8295H201.566V62.9025ZM202.858 64.866V65.7795H203.824V64.866H202.858ZM206.617 62.829H207.677V63.5535C207.677 64.9815 207.1 66.3675 205.661 66.924L204.979 65.8845C206.144 65.4015 206.617 64.467 206.617 63.5535V62.829ZM206.942 62.829H208.003V63.5535C208.003 64.5615 208.465 65.4855 209.651 65.8845L208.958 66.924C207.488 66.399 206.942 65.0865 206.942 63.5535V62.829ZM205.409 59.2905H207.845V60.4245H205.409V59.2905ZM203.183 57.579C204.643 57.579 205.745 58.524 205.745 59.868C205.745 61.212 204.643 62.1675 203.183 62.1675C201.713 62.1675 200.611 61.212 200.611 59.868C200.611 58.524 201.713 57.579 203.183 57.579ZM203.183 58.7235C202.469 58.7235 201.944 59.154 201.944 59.868C201.944 60.582 202.469 61.023 203.183 61.023C203.897 61.023 204.412 60.582 204.412 59.868C204.412 59.154 203.897 58.7235 203.183 58.7235ZM207.236 57.2115H208.633V62.3565H207.236V57.2115ZM212.979 57.8835C214.428 57.8835 215.489 59.2275 215.489 61.3485C215.489 63.4905 214.428 64.8345 212.979 64.8345C211.52 64.8345 210.47 63.4905 210.47 61.3485C210.47 59.2275 211.52 57.8835 212.979 57.8835ZM212.979 59.154C212.276 59.154 211.803 59.9205 211.803 61.3485C211.803 62.7975 212.276 63.5745 212.979 63.5745C213.693 63.5745 214.155 62.7975 214.155 61.3485C214.155 59.9205 213.693 59.154 212.979 59.154ZM217.085 57.201H218.471V66.9555H217.085V57.201ZM215.079 60.708H217.673V61.8315H215.079V60.708ZM222.071 62.1465H223.457V64.8765H222.071V62.1465ZM225.599 62.1465H226.996V64.8765H225.599V62.1465ZM220.139 64.677H228.938V65.811H220.139V64.677ZM224.528 57.684C226.618 57.684 228.161 58.713 228.161 60.2985C228.161 61.884 226.618 62.9025 224.528 62.9025C222.428 62.9025 220.895 61.884 220.895 60.2985C220.895 58.713 222.428 57.684 224.528 57.684ZM224.528 58.776C223.174 58.776 222.271 59.3325 222.271 60.2985C222.271 61.254 223.174 61.821 224.528 61.821C225.883 61.821 226.786 61.254 226.786 60.2985C226.786 59.3325 225.883 58.776 224.528 58.776ZM231.088 66.0969C230.842 66.0969 230.63 66.0099 230.454 65.8359C230.28 65.6594 230.193 65.4482 230.193 65.2021C230.193 64.9585 230.28 64.7496 230.454 64.5756C230.63 64.4016 230.842 64.3146 231.088 64.3146C231.326 64.3146 231.535 64.4016 231.714 64.5756C231.893 64.7496 231.983 64.9585 231.983 65.2021C231.983 65.3661 231.94 65.5165 231.856 65.6532C231.774 65.7875 231.666 65.8956 231.532 65.9776C231.397 66.0572 231.249 66.0969 231.088 66.0969ZM140.767 74.196H143.413V75.3195H140.767V74.196ZM140.767 77.2095H143.413V78.333H140.767V77.2095ZM139.087 72.8835C140.536 72.8835 141.597 74.2275 141.597 76.3485C141.597 78.4905 140.536 79.8345 139.087 79.8345C137.628 79.8345 136.578 78.4905 136.578 76.3485C136.578 74.2275 137.628 72.8835 139.087 72.8835ZM139.087 74.154C138.384 74.154 137.901 74.9205 137.901 76.3485C137.901 77.7975 138.384 78.5745 139.087 78.5745C139.801 78.5745 140.274 77.7975 140.274 76.3485C140.274 74.9205 139.801 74.154 139.087 74.154ZM143.193 72.201H144.579V81.9555H143.193V72.201ZM152.978 72.201H154.374V81.9555H152.978V72.201ZM151.455 75.708H153.261V76.8315H151.455V75.708ZM146.573 78.5535H147.371C148.946 78.5535 150.195 78.522 151.602 78.2805L151.728 79.4145C150.29 79.656 148.988 79.7085 147.371 79.7085H146.573V78.5535ZM146.552 73.0305H150.93V76.6845H147.959V78.9H146.573V75.582H149.555V74.1435H146.552V73.0305ZM156.053 77.1885H164.852V78.291H156.053V77.1885ZM159.865 77.7765H161.272V79.824H159.865V77.7765ZM157.072 80.6535H163.886V81.7665H157.072V80.6535ZM157.072 79.089H158.458V81.126H157.072V79.089ZM157.177 72.516H158.552V73.5135H162.343V72.516H163.729V76.5165H157.177V72.516ZM158.552 74.5635V75.4245H162.343V74.5635H158.552ZM168.999 72.852C170.532 72.852 171.677 73.8495 171.677 75.246C171.677 76.653 170.532 77.6505 168.999 77.6505C167.477 77.6505 166.311 76.653 166.311 75.246C166.311 73.8495 167.477 72.852 168.999 72.852ZM168.999 74.049C168.254 74.049 167.687 74.49 167.687 75.246C167.687 76.0125 168.254 76.4535 168.999 76.4535C169.745 76.4535 170.312 76.0125 170.312 75.246C170.312 74.49 169.745 74.049 168.999 74.049ZM172.59 72.201H173.987V81.9555H172.59V72.201ZM166.08 79.9815L165.912 78.858C167.624 78.858 170.007 78.837 172.055 78.5325L172.16 79.5405C170.049 79.9605 167.76 79.9815 166.08 79.9815ZM184.595 72.2115H185.992V77.9235H184.595V72.2115ZM185.498 74.5005H187.21V75.645H185.498V74.5005ZM179.45 78.2805H185.992V80.4855H180.847V81.2625H179.461V79.6245H184.616V79.2045H179.45V78.2805ZM179.461 80.9475H186.328V81.8715H179.461V80.9475ZM180.479 76.0965H181.876V77.4825H180.479V76.0965ZM178.306 77.8395L178.159 76.8945C179.881 76.8945 182.201 76.884 184.165 76.6215L184.27 77.472C182.222 77.829 179.986 77.8395 178.306 77.8395ZM178.411 72.8205H183.923V73.7445H178.411V72.8205ZM181.172 73.923C182.611 73.923 183.535 74.3955 183.535 75.1935C183.535 76.002 182.611 76.4745 181.172 76.4745C179.723 76.4745 178.799 76.002 178.799 75.1935C178.799 74.3955 179.723 73.923 181.172 73.923ZM181.172 74.784C180.511 74.784 180.122 74.91 180.122 75.1935C180.122 75.477 180.511 75.6135 181.172 75.6135C181.834 75.6135 182.212 75.477 182.212 75.1935C182.212 74.91 181.834 74.784 181.172 74.784ZM180.479 72.1275H181.876V73.335H180.479V72.1275ZM188.102 76.779H196.901V77.892H188.102V76.779ZM191.808 75.3195H193.194V77.2095H191.808V75.3195ZM189.162 74.8785H195.903V75.981H189.162V74.8785ZM189.162 72.6315H195.851V73.7235H190.548V75.582H189.162V72.6315ZM192.47 78.375C194.57 78.375 195.84 79.0155 195.84 80.16C195.84 81.3045 194.57 81.945 192.47 81.945C190.37 81.945 189.089 81.3045 189.089 80.16C189.089 79.0155 190.37 78.375 192.47 78.375ZM192.47 79.425C191.168 79.425 190.506 79.6665 190.506 80.16C190.506 80.664 191.168 80.8845 192.47 80.8845C193.772 80.8845 194.433 80.664 194.433 80.16C194.433 79.6665 193.772 79.425 192.47 79.425ZM202.307 72.6945C204.355 72.6945 205.94 73.818 205.94 75.5085C205.94 77.2095 204.355 78.3225 202.307 78.3225C200.26 78.3225 198.674 77.2095 198.674 75.5085C198.674 73.818 200.26 72.6945 202.307 72.6945ZM202.307 73.8285C200.984 73.8285 200.039 74.4585 200.039 75.5085C200.039 76.548 200.984 77.178 202.307 77.178C203.63 77.178 204.575 76.548 204.575 75.5085C204.575 74.4585 203.63 73.8285 202.307 73.8285ZM197.918 79.6245H206.717V80.769H197.918V79.6245ZM207.735 79.7295H216.534V80.8635H207.735V79.7295ZM211.42 77.892H212.817V80.1915H211.42V77.892ZM208.722 72.8415H215.547V76.0755H210.129V77.7135H208.743V74.9835H214.161V73.944H208.722V72.8415ZM208.743 77.157H215.767V78.2805H208.743V77.157ZM226.796 72.201H228.203V81.9555H226.796V72.201ZM222.964 72.8835C224.434 72.8835 225.515 74.2275 225.515 76.3485C225.515 78.4905 224.434 79.8345 222.964 79.8345C221.494 79.8345 220.412 78.4905 220.412 76.3485C220.412 74.2275 221.494 72.8835 222.964 72.8835ZM222.964 74.154C222.239 74.154 221.746 74.9205 221.746 76.3485C221.746 77.7975 222.239 78.5745 222.964 78.5745C223.688 78.5745 224.171 77.7975 224.171 76.3485C224.171 74.9205 223.688 74.154 222.964 74.154ZM230.953 72.6525H237.106V73.7445H230.953V72.6525ZM229.966 76.6005H238.723V77.703H229.966V76.6005ZM233.211 74.805H234.597V76.7685H233.211V74.805ZM236.298 72.6525H237.684V73.4085C237.684 74.154 237.684 75.0045 237.453 76.065L236.067 75.9285C236.298 74.889 236.298 74.1435 236.298 73.4085V72.6525ZM233.599 78.2805H234.796V78.564C234.796 80.244 233.442 81.5775 230.974 81.903L230.47 80.8215C232.633 80.5695 233.599 79.551 233.599 78.564V78.2805ZM233.799 78.2805H234.996V78.564C234.996 79.551 235.972 80.5695 238.135 80.8215L237.642 81.903C235.153 81.5775 233.799 80.244 233.799 78.564V78.2805ZM244.162 72.348C246.377 72.348 247.679 72.936 247.679 74.007C247.679 75.078 246.377 75.666 244.162 75.666C241.936 75.666 240.644 75.078 240.644 74.007C240.644 72.936 241.936 72.348 244.162 72.348ZM244.162 73.3665C242.755 73.3665 242.093 73.5765 242.093 74.007C242.093 74.4585 242.755 74.6475 244.162 74.6475C245.569 74.6475 246.23 74.4585 246.23 74.007C246.23 73.5765 245.569 73.3665 244.162 73.3665ZM239.762 76.1175H248.551V77.22H239.762V76.1175ZM240.77 77.766H247.49V80.265H242.156V81.126H240.781V79.299H246.115V78.8055H240.77V77.766ZM240.781 80.8215H247.742V81.8715H240.781V80.8215ZM253.868 74.8995H254.918V75.1515C254.918 77.1675 254.33 79.194 252.776 80.0865L251.988 79.0365C253.374 78.228 253.868 76.6425 253.868 75.1515V74.8995ZM254.141 74.8995H255.191V75.1515C255.191 76.611 255.695 78.0915 257.07 78.8265L256.314 79.8555C254.739 79.0365 254.141 77.136 254.141 75.1515V74.8995ZM252.314 73.8495H256.734V74.973H252.314V73.8495ZM253.868 72.537H255.191V74.7525H253.868V72.537ZM259.265 72.2115H260.588V81.9345H259.265V72.2115ZM258.099 75.939H259.716V77.073H258.099V75.939ZM257.175 72.3585H258.477V81.4935H257.175V72.3585ZM264.335 77.6925H265.732V81.6405H264.335V77.6925ZM268.819 72.2115H270.226V81.9345H268.819V72.2115ZM262.12 78.2805L261.952 77.1465C263.758 77.1465 266.141 77.136 268.21 76.8525L268.283 77.871C266.162 78.249 263.894 78.2805 262.12 78.2805ZM266.876 78.753H269.102V79.803H266.876V78.753ZM265.102 72.6105C266.53 72.6105 267.569 73.4295 267.569 74.6055C267.569 75.792 266.53 76.6005 265.102 76.6005C263.653 76.6005 262.624 75.792 262.624 74.6055C262.624 73.4295 263.653 72.6105 265.102 72.6105ZM265.102 73.6605C264.409 73.6605 263.926 74.0175 263.926 74.6055C263.926 75.204 264.409 75.54 265.102 75.54C265.774 75.54 266.257 75.204 266.257 74.6055C266.257 74.0175 265.774 73.6605 265.102 73.6605ZM275.401 73.293H276.609V73.5765C276.609 75.288 275.212 76.6845 272.745 77.0205L272.23 75.9285C274.372 75.666 275.401 74.574 275.401 73.5765V73.293ZM275.8 73.293H277.008V73.5765C277.008 74.574 278.037 75.666 280.179 75.9285L279.675 77.0205C277.197 76.6845 275.8 75.288 275.8 73.5765V73.293ZM275.475 78.375H276.861V81.945H275.475V78.375ZM271.81 77.577H280.599V78.69H271.81V77.577ZM272.587 72.705H279.801V73.8075H272.587V72.705ZM285.449 75.477H287.056V76.611H285.449V75.477ZM283.37 73.0515H284.441V74.6895C284.441 76.8945 283.832 79.047 282.278 80.0025L281.438 78.9525C282.866 78.0705 283.37 76.338 283.37 74.6895V73.0515ZM283.675 73.0515H284.725V74.6265C284.725 76.212 285.134 77.829 286.457 78.69L285.701 79.782C284.158 78.8265 283.675 76.7265 283.675 74.6265V73.0515ZM288.641 72.2115H289.975V81.9345H288.641V72.2115ZM286.667 72.3585H287.969V81.4935H286.667V72.3585ZM293.376 77.1465H294.762V79.8765H293.376V77.1465ZM296.904 77.1465H298.3V79.8765H296.904V77.1465ZM291.444 79.677H300.243V80.811H291.444V79.677ZM295.833 72.684C297.922 72.684 299.466 73.713 299.466 75.2985C299.466 76.884 297.922 77.9025 295.833 77.9025C293.733 77.9025 292.2 76.884 292.2 75.2985C292.2 73.713 293.733 72.684 295.833 72.684ZM295.833 73.776C294.478 73.776 293.575 74.3325 293.575 75.2985C293.575 76.254 294.478 76.821 295.833 76.821C297.187 76.821 298.09 76.254 298.09 75.2985C298.09 74.3325 297.187 73.776 295.833 73.776ZM303.362 73.3636L303.216 78.7106H301.852L301.702 73.3636H303.362ZM302.534 81.0969C302.288 81.0969 302.077 81.0099 301.9 80.8359C301.724 80.6594 301.637 80.4482 301.639 80.2021C301.637 79.9585 301.724 79.7496 301.9 79.5756C302.077 79.4016 302.288 79.3146 302.534 79.3146C302.77 79.3146 302.978 79.4016 303.157 79.5756C303.336 79.7496 303.426 79.9585 303.429 80.2021C303.426 80.3661 303.383 80.5165 303.298 80.6532C303.216 80.7875 303.108 80.8956 302.974 80.9776C302.84 81.0572 302.693 81.0969 302.534 81.0969ZM306.923 73.3636L306.778 78.7106H305.413L305.264 73.3636H306.923ZM306.096 81.0969C305.85 81.0969 305.638 81.0099 305.462 80.8359C305.285 80.6594 305.198 80.4482 305.201 80.2021C305.198 79.9585 305.285 79.7496 305.462 79.5756C305.638 79.4016 305.85 79.3146 306.096 79.3146C306.332 79.3146 306.539 79.4016 306.718 79.5756C306.897 79.7496 306.988 79.9585 306.991 80.2021C306.988 80.3661 306.945 80.5165 306.86 80.6532C306.778 80.7875 306.67 80.8956 306.536 80.9776C306.401 81.0572 306.255 81.0969 306.096 81.0969Z" fill="black"/>
<defs>
<clipPath id="clip0_862_10423">
<rect x="21" y="28" width="84" height="84" rx="21.1927" fill="white"/>
</clipPath>
</defs>
</svg>
