<svg width="71" height="38" viewBox="0 0 71 38" fill="none" xmlns="http://www.w3.org/2000/svg">
<g clip-path="url(#clip0_471_12559)">
<g clip-path="url(#clip1_471_12559)">
<path d="M17.4201 2.60206C13.304 2.60525 9.21647 1.91911 5.32706 0.572111C0.112885 -1.2307 -4.15871 -3.71734 -7.36897 -6.81876C-13.4415 -12.6854 -18.4201 -13.5696 -21.5266 -13.2784C-24.8894 -12.9632 -26.8469 -11.2412 -26.8662 -11.2238L-27 -11.3729C-26.9802 -11.3907 -24.9825 -13.1518 -21.5583 -13.4767C-19.5503 -13.6671 -17.4505 -13.3353 -15.3169 -12.4903C-12.6563 -11.4365 -9.93538 -9.57676 -7.22976 -6.96285C-4.04064 -3.88183 0.206114 -1.4104 5.39251 0.382724C14.9136 3.67451 25.6442 2.87754 34.833 -1.80394C37.8753 -3.35406 40.8822 -4.41213 43.7701 -4.94874C47.4117 -5.62559 50.8653 -5.46848 54.0357 -4.48212C61.0025 -2.31468 65.7612 -2.42962 68.5264 -2.90749C71.5099 -3.42318 72.8636 -4.45522 72.8769 -4.46559L73 -4.30746C72.9439 -4.26388 71.593 -3.23423 68.5604 -2.71008C65.7734 -2.2283 60.9807 -2.1116 53.9762 -4.29088C46.8839 -6.49711 39.7008 -4.05928 34.924 -1.6255C30.3823 0.700705 25.423 2.09973 20.3352 2.49006C19.36 2.5647 18.3883 2.60203 17.4201 2.60206Z" fill="#3F3D56"/>
<path d="M17.0156 5.08811C18.1369 5.08811 19.0459 4.17913 19.0459 3.05785C19.0459 1.93657 18.1369 1.02759 17.0156 1.02759C15.8943 1.02759 14.9854 1.93657 14.9854 3.05785C14.9854 4.17913 15.8943 5.08811 17.0156 5.08811Z" fill="#E73B3B"/>
<path d="M31.575 33.5316V53.148H34.6593V35.2588H46.9967V53.148H50.081V13.9152H46.9967C45.9746 13.9152 44.4058 19.2382 44.4058 24.587C44.4058 28.6186 44.8766 32.0738 45.5462 33.5316H31.575ZM46.9967 33.5316H46.9666C46.9767 33.5096 46.9867 33.4865 46.9967 33.4636V33.5316Z" fill="#3F3D56"/>
<path d="M43.0048 4.20581C40.473 4.20581 38.4207 6.4835 38.4207 9.29318V12.8629H39.5185L40.1541 11.5403L39.9952 12.8629H47.052L47.6298 11.6605L47.4854 12.8629H48.2799V10.06C48.2799 6.82684 45.9181 4.20581 43.0048 4.20581Z" fill="#2F2E41"/>
<path d="M37.7522 27.5284L34.9376 28.7247L25.1568 36.6759C24.7972 37.1179 24.5768 37.6566 24.5236 38.224C24.4532 39.1387 21.4978 43.9235 22.5533 44.5568C23.6088 45.1901 27.4085 47.09 27.6196 45.8234C27.8307 44.5568 28.9566 39.1387 28.9566 39.1387L38.3855 30.6949L37.7522 27.5284Z" fill="#2F2E41"/>
<path d="M45.0701 26.6137C45.0701 26.6137 45.7034 32.8059 43.8739 33.9317C42.0444 35.0576 33.9524 38.6462 33.9524 38.6462C33.9524 38.6462 37.4003 41.883 36.6967 42.657C35.993 43.431 32.8266 45.542 32.4044 45.1198C31.9822 44.6976 27.2677 39.6313 27.8307 38.0129C28.3936 36.3945 36.2041 31.1171 36.2041 31.1171L37.1189 27.8099L37.4003 25.1361L40.3557 23.2362L45.0701 26.6137Z" fill="#2F2E41"/>
<path d="M41.8464 12.1969C43.4664 12.1969 44.7798 10.8836 44.7798 9.26349C44.7798 7.64341 43.4664 6.33008 41.8464 6.33008C40.2263 6.33008 38.913 7.64341 38.913 9.26349C38.913 10.8836 40.2263 12.1969 41.8464 12.1969Z" fill="#FFB9B9"/>
<path d="M44.1202 10.465C44.1202 10.465 43.9795 13.1388 46.1608 13.9832C48.3421 14.8276 40.7427 20.3161 40.7427 20.3161V14.1943C40.7427 14.1943 41.7278 13.1388 40.7427 11.5204L44.1202 10.465Z" fill="#FFB9B9"/>
<path d="M48.7995 23.0251L48.2365 25.7694L46.5478 35.1983C46.5478 35.1983 47.9551 39.2092 46.0552 39.1388C44.1554 39.0684 45.0701 34.7761 45.0701 34.7761L46.0552 26.9656V23.9399L48.7995 23.0251Z" fill="#FFB9B9"/>
<path d="M36.6968 21.6881L36.0635 24.1509L33.1785 31.1171C33.1785 31.1171 31.2083 34.4242 32.8267 34.3539C34.4451 34.2835 34.4451 31.1171 34.4451 31.1171L37.7522 25.4878V22.3214L36.6968 21.6881Z" fill="#FFB9B9"/>
<path d="M45.1817 28.795C45.1817 28.795 38.5674 26.4026 38.1452 26.6137C37.8309 26.7525 37.4962 26.8394 37.1541 26.8709L37.1601 25.9101C37.1601 25.9101 39.3414 25.136 40.5376 25.6286C41.7338 26.1211 45.3928 28.3025 45.3928 28.3025L45.1817 28.795Z" fill="#3F3D56"/>
<path d="M41.1648 18.9088C41.1648 18.9088 43.0647 16.7275 43.6276 15.3905C43.9838 14.58 44.6375 13.9372 45.4539 13.5947C45.4539 13.5947 49.679 14.5461 49.6087 16.2349C49.5383 17.9237 46.9348 20.5272 46.9348 20.5272C46.9348 20.5272 47.2866 29.8858 45.3868 29.745C44.977 29.256 44.6877 28.6775 44.5424 28.0563C44.3313 27.0712 37.7873 26.0157 37.7873 26.0157C37.7873 26.0157 37.2244 27.0008 37.154 26.5786C37.0837 26.1564 37.7169 15.8127 37.7169 15.8127L41.0724 13.5947L41.1648 18.9088Z" fill="#D0CDE1"/>
<path d="M49.0668 15.5551L49.1139 15.5815C49.2643 15.6659 49.3894 15.7889 49.4766 15.9377C49.5637 16.0865 49.6096 16.2558 49.6096 16.4283L49.6088 21.6503C49.6094 21.7922 49.6408 21.9324 49.7009 22.061C49.761 22.1895 49.8483 22.3035 49.9569 22.395C50.228 22.6255 50.4793 22.9578 49.9606 23.1307C49.1162 23.4121 45.8091 24.8194 45.7387 24.3269C45.6683 23.8343 45.5276 23.2714 45.7387 23.2714C45.9039 23.2714 46.8886 18.2256 47.6798 16.0682C47.7281 15.9362 47.8046 15.8162 47.9038 15.7165C48.0031 15.6169 48.1228 15.54 48.2547 15.4912C48.3866 15.4424 48.5275 15.4229 48.6678 15.4339C48.808 15.4449 48.9441 15.4863 49.0668 15.5551Z" fill="#D0CDE1"/>
<path d="M38.667 15.5664L37.6819 15.8479L36.556 20.7031C36.556 20.7031 35.2191 20.9845 35.6413 21.4771C36.0635 21.9696 37.8226 23.2362 37.8226 23.2362L38.667 15.5664Z" fill="#D0CDE1"/>
<path d="M44.308 5.60719C44.0874 5.31097 43.8015 5.06955 43.4725 4.90167C43.1436 4.73379 42.7803 4.64397 42.411 4.63916H42.321C40.5858 4.63916 39.1791 6.20937 39.1791 8.14632L39.7605 8.14633L39.8544 7.43159L39.9921 8.14633H43.4406L43.7295 7.54165L43.6573 8.14633H44.3357C44.6522 9.71851 44.1974 11.2907 42.9711 12.8629H44.1268L44.7046 11.6535L44.5601 12.8629H46.7631L47.1965 10.0813C47.1965 7.99819 45.9861 6.23173 44.308 5.60719Z" fill="#2F2E41"/>
<path d="M-14.6253 38.064C-13.885 36.4522 -13.3644 32.6319 -13.3644 28.1742C-13.3644 22.2603 -15.099 16.3748 -16.229 16.3748H-19.6393V59.7531H-16.229V39.9737H-2.58803V59.7531H0.822222V38.064H-14.6253ZM-16.229 37.9888C-16.218 38.0141 -16.207 38.0397 -16.1959 38.064H-16.229V37.9888Z" fill="#3F3D56"/>
<path d="M-0.410993 30.1504C-0.410993 30.1504 3.69606 31.8533 2.39383 32.855C1.09159 33.8568 -1.61306 31.653 -1.51289 31.3525C-1.41271 31.0519 -1.91357 30.3507 -1.91357 30.3507L-0.410993 30.1504Z" fill="#9F616A"/>
<path d="M-4.01721 16.7273L-2.71497 17.9294L-2.41445 21.4354L-1.41273 25.1417C-1.41273 25.1417 0.290193 28.6478 -0.010323 29.349C-0.310839 30.0502 0.290193 30.2505 0.290193 30.2505L-2.01376 31.1521C-2.01376 31.1521 -4.51807 28.3473 -4.51807 27.7462C-4.51807 27.1452 -4.01721 16.7273 -4.01721 16.7273Z" fill="#575A88"/>
<path opacity="0.1" d="M-4.01721 16.7273L-2.71497 17.9294L-2.41445 21.4354L-1.41273 25.1417C-1.41273 25.1417 0.290193 28.6478 -0.010323 29.349C-0.310839 30.0502 0.290193 30.2505 0.290193 30.2505L-2.01376 31.1521C-2.01376 31.1521 -4.51807 28.3473 -4.51807 27.7462C-4.51807 27.1452 -4.01721 16.7273 -4.01721 16.7273Z" fill="black"/>
<path d="M-4.81859 30.3507L-4.11738 31.1521C-4.11738 31.1521 10.4076 32.9552 10.7081 35.76C11.0086 38.5648 13.1122 51.7875 11.9102 52.1882C10.7081 52.5889 7.60275 54.0915 7.60275 53.2901C7.60275 52.4887 5.59931 41.4698 6 39.4664C6 39.4664 -11.3298 37.2626 -11.7305 34.7583C-12.1311 32.254 -11.3298 31.1521 -11.3298 31.1521L-4.81859 30.3507Z" fill="#2F2E41"/>
<path opacity="0.1" d="M-4.81859 30.3507L-4.11738 31.1521C-4.11738 31.1521 10.4076 32.9552 10.7081 35.76C11.0086 38.5648 13.1122 51.7875 11.9102 52.1882C10.7081 52.5889 7.60275 54.0915 7.60275 53.2901C7.60275 52.4887 5.59931 41.4698 6 39.4664C6 39.4664 -11.3298 37.2626 -11.7305 34.7583C-12.1311 32.254 -11.3298 31.1521 -11.3298 31.1521L-4.81859 30.3507Z" fill="black"/>
<path d="M-16.1381 32.3542C-16.1381 32.3542 -16.1381 38.2643 -13.7339 38.4647C-11.3298 38.665 -2.715 39.7669 -2.715 39.7669C-2.715 39.7669 -2.21414 49.5838 -1.31259 52.7893C-0.411046 55.9948 -1.21242 56.1951 -0.411046 56.3955C0.390331 56.5958 3.79618 55.8946 3.69601 55.1934C3.59584 54.4922 3.19515 36.7617 3.19515 36.7617C3.19515 36.7617 4.0967 32.9552 -7.92395 31.1521L-16.1381 32.3542Z" fill="#2F2E41"/>
<path d="M64.9114 34.8903C64.9114 33.0822 51.4754 31.6165 34.9012 31.6165C18.327 31.6165 4.89099 33.0822 4.89099 34.8903C4.89099 35.5911 6.91037 36.2403 10.3474 36.7728V59.1713H11.9843V37.0038C17.4892 37.7134 25.7121 38.1641 34.9012 38.1641C44.1663 38.1641 52.4496 37.706 57.9545 36.9862V59.1713H59.5914V36.7514C62.945 36.2229 64.9114 35.5817 64.9114 34.8903Z" fill="#3F3D56"/>
<path d="M38.6609 34.9587C42.0356 34.9587 44.7714 34.2859 44.7714 33.4561C44.7714 32.6262 42.0356 31.9535 38.6609 31.9535C35.2862 31.9535 32.5504 32.6262 32.5504 33.4561C32.5504 34.2859 35.2862 34.9587 38.6609 34.9587Z" fill="#F2F2F2"/>
<path d="M38.6609 34.6877C41.4271 34.6877 43.6696 34.1363 43.6696 33.4561C43.6696 32.7759 41.4271 32.2245 38.6609 32.2245C35.8948 32.2245 33.6523 32.7759 33.6523 33.4561C33.6523 34.1363 35.8948 34.6877 38.6609 34.6877Z" fill="#D0CDE1"/>
<path d="M15.9218 36.1607C19.2965 36.1607 22.0323 35.488 22.0323 34.6581C22.0323 33.8282 19.2965 33.1555 15.9218 33.1555C12.547 33.1555 9.81128 33.8282 9.81128 34.6581C9.81128 35.488 12.547 36.1607 15.9218 36.1607Z" fill="#F2F2F2"/>
<path d="M15.9218 35.8898C18.688 35.8898 20.9304 35.3383 20.9304 34.6581C20.9304 33.9779 18.688 33.4265 15.9218 33.4265C13.1556 33.4265 10.9132 33.9779 10.9132 34.6581C10.9132 35.3383 13.1556 35.8898 15.9218 35.8898Z" fill="#D0CDE1"/>
<path d="M38.5188 33.35C40.1276 33.35 41.4318 33.144 41.4318 32.89C41.4318 32.636 40.1276 32.4301 38.5188 32.4301C36.9099 32.4301 35.6057 32.636 35.6057 32.89C35.6057 33.144 36.9099 33.35 38.5188 33.35Z" fill="#9F616A"/>
<path d="M36.9663 32.7175C37.4743 32.7175 37.8862 32.4944 37.8862 32.2192C37.8862 31.944 37.4743 31.7209 36.9663 31.7209C36.4582 31.7209 36.0464 31.944 36.0464 32.2192C36.0464 32.4944 36.4582 32.7175 36.9663 32.7175Z" fill="#E73B3B"/>
<path d="M36.6213 32.7175C37.1294 32.7175 37.5412 32.4944 37.5412 32.2192C37.5412 31.944 37.1294 31.7209 36.6213 31.7209C36.1133 31.7209 35.7014 31.944 35.7014 32.2192C35.7014 32.4944 36.1133 32.7175 36.6213 32.7175Z" fill="#E73B3B"/>
<path d="M40.646 32.8325C41.154 32.8325 41.5659 32.6094 41.5659 32.3342C41.5659 32.059 41.154 31.8359 40.646 31.8359C40.1379 31.8359 39.7261 32.059 39.7261 32.3342C39.7261 32.6094 40.1379 32.8325 40.646 32.8325Z" fill="#E73B3B"/>
<path d="M38.5378 32.7175C39.0459 32.7175 39.4577 32.4944 39.4577 32.2192C39.4577 31.944 39.0459 31.7209 38.5378 31.7209C38.0298 31.7209 37.6179 31.944 37.6179 32.2192C37.6179 32.4944 38.0298 32.7175 38.5378 32.7175Z" fill="#E73B3B"/>
<path d="M40.1094 32.7175C40.6174 32.7175 41.0293 32.4944 41.0293 32.2192C41.0293 31.944 40.6174 31.7209 40.1094 31.7209C39.6013 31.7209 39.1895 31.944 39.1895 32.2192C39.1895 32.4944 39.6013 32.7175 40.1094 32.7175Z" fill="#E73B3B"/>
<path d="M41.2975 31.9126C39.635 32.4768 37.7696 32.4768 35.7014 31.9126V31.835C35.7011 31.2484 35.9262 30.6842 36.3302 30.259C36.7343 29.8338 37.2863 29.5802 37.8721 29.5506C38.3651 29.5258 38.8591 29.5264 39.3521 29.5525C39.8791 29.5832 40.3744 29.8145 40.7362 30.199C41.098 30.5834 41.2988 31.0918 41.2975 31.6197V31.9126Z" fill="#3F3D56"/>
<path d="M40.4814 34.0248C39.2528 34.1489 38.0147 34.1489 36.7861 34.0248C36.4946 33.9963 36.2242 33.8604 36.0273 33.6436C35.8304 33.4268 35.7212 33.1445 35.7207 32.8517H41.5468C41.5463 33.1445 41.437 33.4268 41.2402 33.6436C41.0433 33.8604 40.7729 33.9963 40.4814 34.0248Z" fill="#3F3D56"/>
<path d="M37.7329 30.2645C37.5993 30.3202 37.456 30.3488 37.3113 30.3488C37.1665 30.3488 37.0232 30.3202 36.8896 30.2645C37.0232 30.2088 37.1665 30.1802 37.3113 30.1802C37.456 30.1802 37.5993 30.2088 37.7329 30.2645Z" fill="#D0CDE1"/>
<path d="M38.5762 30.6095C38.4426 30.6651 38.2993 30.6938 38.1545 30.6938C38.0098 30.6938 37.8665 30.6651 37.7329 30.6095C37.8665 30.5538 38.0098 30.5251 38.1545 30.5251C38.2993 30.5251 38.4426 30.5538 38.5762 30.6095Z" fill="#D0CDE1"/>
<path d="M38.6528 29.9962C38.5192 30.0519 38.3759 30.0805 38.2312 30.0805C38.0865 30.0805 37.9432 30.0519 37.8096 29.9962C37.9432 29.9405 38.0865 29.9119 38.2312 29.9119C38.3759 29.9119 38.5192 29.9405 38.6528 29.9962Z" fill="#D0CDE1"/>
<path d="M40.2244 29.9962C40.0908 30.0519 39.9475 30.0805 39.8027 30.0805C39.658 30.0805 39.5147 30.0519 39.3811 29.9962C39.5147 29.9405 39.658 29.9119 39.8027 29.9119C39.9475 29.9119 40.0908 29.9405 40.2244 29.9962Z" fill="#D0CDE1"/>
<path d="M39.8027 30.3412C39.6691 30.3968 39.5258 30.4255 39.3811 30.4255C39.2364 30.4255 39.0931 30.3968 38.9595 30.3412C39.0931 30.2855 39.2364 30.2568 39.3811 30.2568C39.5258 30.2568 39.6691 30.2855 39.8027 30.3412Z" fill="#D0CDE1"/>
<path d="M15.8798 34.552C17.4887 34.552 18.7929 34.3461 18.7929 34.092C18.7929 33.838 17.4887 33.6321 15.8798 33.6321C14.271 33.6321 12.9668 33.838 12.9668 34.092C12.9668 34.3461 14.271 34.552 15.8798 34.552Z" fill="#9F616A"/>
<path d="M14.3275 33.9197C14.8356 33.9197 15.2474 33.6966 15.2474 33.4214C15.2474 33.1462 14.8356 32.9231 14.3275 32.9231C13.8195 32.9231 13.4076 33.1462 13.4076 33.4214C13.4076 33.6966 13.8195 33.9197 14.3275 33.9197Z" fill="#E73B3B"/>
<path d="M13.9825 33.9197C14.4906 33.9197 14.9024 33.6966 14.9024 33.4214C14.9024 33.1462 14.4906 32.9231 13.9825 32.9231C13.4745 32.9231 13.0626 33.1462 13.0626 33.4214C13.0626 33.6966 13.4745 33.9197 13.9825 33.9197Z" fill="#E73B3B"/>
<path d="M18.0071 34.0347C18.5151 34.0347 18.927 33.8116 18.927 33.5364C18.927 33.2612 18.5151 33.0381 18.0071 33.0381C17.499 33.0381 17.0872 33.2612 17.0872 33.5364C17.0872 33.8116 17.499 34.0347 18.0071 34.0347Z" fill="#E73B3B"/>
<path d="M15.8989 33.9197C16.407 33.9197 16.8188 33.6966 16.8188 33.4214C16.8188 33.1462 16.407 32.9231 15.8989 32.9231C15.3909 32.9231 14.979 33.1462 14.979 33.4214C14.979 33.6966 15.3909 33.9197 15.8989 33.9197Z" fill="#E73B3B"/>
<path d="M17.4704 33.9197C17.9785 33.9197 18.3904 33.6966 18.3904 33.4214C18.3904 33.1462 17.9785 32.9231 17.4704 32.9231C16.9624 32.9231 16.5505 33.1462 16.5505 33.4214C16.5505 33.6966 16.9624 33.9197 17.4704 33.9197Z" fill="#E73B3B"/>
<path d="M18.6587 33.1146C16.9962 33.6788 15.1308 33.6788 13.0626 33.1146V33.037C13.0623 32.4505 13.2874 31.8862 13.6914 31.461C14.0955 31.0358 14.6475 30.7822 15.2333 30.7526C15.7263 30.7278 16.2203 30.7285 16.7133 30.7545C17.2403 30.7852 17.7356 31.0166 18.0974 31.401C18.4592 31.7855 18.66 32.2939 18.6587 32.8218V33.1146Z" fill="#3F3D56"/>
<path d="M17.8425 35.2269C16.6138 35.351 15.3758 35.351 14.1471 35.2269C13.8557 35.1983 13.5853 35.0624 13.3884 34.8456C13.1915 34.6288 13.0822 34.3466 13.0818 34.0537H18.9079C18.9074 34.3466 18.7981 34.6288 18.6013 34.8456C18.4044 35.0624 18.134 35.1983 17.8425 35.2269Z" fill="#3F3D56"/>
<path d="M15.0941 31.4665C14.9605 31.5222 14.8172 31.5509 14.6725 31.5509C14.5277 31.5509 14.3845 31.5222 14.2509 31.4665C14.3845 31.4109 14.5277 31.3822 14.6725 31.3822C14.8172 31.3822 14.9605 31.4109 15.0941 31.4665Z" fill="#D0CDE1"/>
<path d="M15.9372 31.8115C15.8036 31.8672 15.6604 31.8958 15.5156 31.8958C15.3709 31.8958 15.2276 31.8672 15.094 31.8115C15.2276 31.7558 15.3709 31.7272 15.5156 31.7272C15.6604 31.7272 15.8036 31.7558 15.9372 31.8115Z" fill="#D0CDE1"/>
<path d="M16.0139 31.1982C15.8803 31.2539 15.737 31.2825 15.5923 31.2825C15.4475 31.2825 15.3043 31.2539 15.1707 31.1982C15.3043 31.1426 15.4475 31.1139 15.5923 31.1139C15.737 31.1139 15.8803 31.1426 16.0139 31.1982Z" fill="#D0CDE1"/>
<path d="M17.5854 31.1982C17.4518 31.2539 17.3085 31.2825 17.1638 31.2825C17.0191 31.2825 16.8758 31.2539 16.7422 31.1982C16.8758 31.1426 17.0191 31.1139 17.1638 31.1139C17.3085 31.1139 17.4518 31.1426 17.5854 31.1982Z" fill="#D0CDE1"/>
<path d="M17.1638 31.5432C17.0302 31.5989 16.8869 31.6275 16.7422 31.6275C16.5974 31.6275 16.4542 31.5989 16.3206 31.5432C16.4542 31.4875 16.5974 31.4589 16.7422 31.4589C16.8869 31.4589 17.0302 31.4875 17.1638 31.5432Z" fill="#D0CDE1"/>
<path d="M43.9176 33.049L43.9317 33.3592L43.9496 33.7617C43.9496 33.7617 42.1013 33.8661 41.729 34.2596C41.7203 34.268 41.7124 34.2772 41.7052 34.2869L40.9649 34.1248L40.963 33.7601C40.963 33.7601 40.9732 33.7544 40.9931 33.7437C40.9976 33.7414 41.0033 33.7384 41.009 33.7353C41.9149 33.2917 42.9089 33.0572 43.9176 33.049Z" fill="#E73B3B"/>
<path opacity="0.1" d="M43.9176 33.049L43.9317 33.3592C43.112 33.3846 41.5609 33.8732 41.5609 33.8732L40.993 33.7437C41.9029 33.2943 42.9028 33.0567 43.9176 33.049Z" fill="black"/>
<path opacity="0.1" d="M41.009 33.7354L41.5609 33.8732L41.729 34.2596C41.7203 34.268 41.7124 34.2772 41.7052 34.2869L40.9649 34.1248L40.963 33.7601C40.963 33.7601 40.9732 33.7544 40.9931 33.7437C40.9976 33.7414 41.0033 33.7384 41.009 33.7354Z" fill="white"/>
<path d="M21.5792 34.3512L21.5933 34.6615L21.6113 35.0639C21.6113 35.0639 19.7629 35.1684 19.3906 35.5618C19.382 35.5703 19.374 35.5794 19.3668 35.5891L18.6265 35.4271L18.6246 35.0624C18.6246 35.0624 18.6348 35.0567 18.6547 35.046C18.6592 35.0436 18.6649 35.0406 18.6706 35.0376C19.5765 34.594 20.5705 34.3594 21.5792 34.3512Z" fill="#E73B3B"/>
<path opacity="0.1" d="M21.5792 34.3512L21.5933 34.6615C20.7737 34.6868 19.2225 35.1754 19.2225 35.1754L18.6547 35.046C19.5645 34.5965 20.5644 34.359 21.5792 34.3512Z" fill="black"/>
<path opacity="0.1" d="M18.6706 35.0376L19.2225 35.1754L19.3906 35.5618C19.382 35.5703 19.374 35.5794 19.3668 35.5891L18.6265 35.4271L18.6246 35.0624C18.6246 35.0624 18.6348 35.0567 18.6547 35.046C18.6592 35.0436 18.6649 35.0406 18.6706 35.0376Z" fill="white"/>
<path d="M55.0496 23.7549C54.8919 23.5973 54.707 23.4696 54.5039 23.3779V19.4856C54.5039 19.4399 54.4858 19.3961 54.4535 19.3639C54.4212 19.3316 54.3775 19.3135 54.3318 19.3135H53.3683C53.3226 19.3135 53.2788 19.3316 53.2466 19.3639C53.2143 19.3961 53.1962 19.4399 53.1962 19.4856V23.3032C52.8479 23.4187 52.5448 23.641 52.3299 23.9385C52.1151 24.2361 51.9994 24.5937 51.9993 24.9607V33.3102C51.9993 33.4107 52.0191 33.5102 52.0575 33.603C52.096 33.6958 52.1523 33.7802 52.2234 33.8512C52.2944 33.9223 52.3788 33.9786 52.4716 34.0171C52.5644 34.0555 52.6639 34.0753 52.7644 34.0753H54.8284C55.0304 34.0753 55.2241 33.9951 55.3669 33.8523C55.5097 33.7094 55.59 33.5157 55.59 33.3137V25.0591C55.5903 24.8168 55.5427 24.5769 55.45 24.353C55.3572 24.1292 55.2212 23.9259 55.0496 23.7549Z" fill="#3F3D56"/>
<path d="M55.59 26.1847H51.9993V30.928H55.59V26.1847Z" fill="#E73B3B"/>
<path d="M54.5815 19.5795H54.504V19.4856C54.504 19.4399 54.4858 19.3961 54.4536 19.3639C54.4213 19.3316 54.3775 19.3135 54.3319 19.3135H53.3683C53.3227 19.3135 53.2789 19.3316 53.2466 19.3639C53.2144 19.3961 53.1962 19.4399 53.1962 19.4856V19.5795H53.1187V19.9784H53.1962V22.0176H54.504V19.9784H54.5815V19.5795Z" fill="#E73B3B"/>
<path d="M26.2991 27.1334C26.204 26.9306 26.129 26.7872 26.1028 26.7378C24.491 27.1355 23.4156 26.7994 23.246 26.74C23.1631 26.8966 22.6454 27.8977 22.4361 28.8574C22.2471 29.7232 22.3568 30.3035 22.7622 30.5824L22.7743 30.591L22.7769 30.5928C23.2244 30.8877 23.6513 31.1488 24.0457 31.3689C24.0988 31.3985 24.1489 31.426 24.1959 31.4514L24.201 31.4541L24.2045 31.4586C24.2587 31.5268 24.309 31.5979 24.3555 31.6716C24.4426 31.7934 24.4955 31.9364 24.5086 32.0856V36.3854L24.4814 36.386C23.4533 36.4069 22.817 36.5812 22.817 36.7307C22.817 36.8946 23.58 37.0773 24.675 37.0773C25.7699 37.0773 26.533 36.8946 26.533 36.7307C26.533 36.5834 25.9074 36.4101 24.8968 36.3868L24.8695 36.3861L24.8949 32.4088C24.8955 32.1395 24.9581 31.874 25.0778 31.6327C25.0983 31.5922 25.1202 31.5528 25.143 31.5156C25.1614 31.4857 25.1808 31.4566 25.2008 31.429L25.2044 31.4239L25.2099 31.4209C25.2606 31.3933 25.3143 31.3633 25.3712 31.3311L25.3779 31.3274C25.7511 31.1167 26.1532 30.8695 26.5732 30.5927C26.9482 30.3455 27.0787 29.8459 26.9612 29.1077C26.8493 28.4039 26.5394 27.6456 26.2991 27.1334Z" fill="#D0CDE1"/>
<path d="M26.3953 30.5025C25.955 30.7927 25.5915 31.0104 25.3135 31.1672H25.3132C24.9077 31.1395 24.5004 31.1509 24.097 31.2013C23.812 31.0423 23.4275 30.8141 22.9545 30.5025C22.9501 30.4995 22.9456 30.4965 22.9411 30.4932V30.493C22.5072 30.1945 22.4965 29.5625 22.6376 28.9162C22.9967 28.8763 23.5691 28.8938 24.3383 29.1685C25.2492 29.4939 26.2026 29.3099 26.7551 29.1426C26.8459 29.7128 26.7905 30.2419 26.3953 30.5025Z" fill="#E73B3B"/>
<path d="M23.7774 28.6823C23.8462 28.6823 23.902 28.6265 23.902 28.5577C23.902 28.4888 23.8462 28.433 23.7774 28.433C23.7085 28.433 23.6527 28.4888 23.6527 28.5577C23.6527 28.6265 23.7085 28.6823 23.7774 28.6823Z" fill="#E73B3B"/>
<path d="M23.4283 29.8293C23.4971 29.8293 23.5529 29.7735 23.5529 29.7046C23.5529 29.6358 23.4971 29.58 23.4283 29.58C23.3594 29.58 23.3036 29.6358 23.3036 29.7046C23.3036 29.7735 23.3594 29.8293 23.4283 29.8293Z" fill="white"/>
<path d="M24.0766 28.9317C24.1179 28.9317 24.1514 28.8982 24.1514 28.8569C24.1514 28.8156 24.1179 28.7821 24.0766 28.7821C24.0353 28.7821 24.0018 28.8156 24.0018 28.8569C24.0018 28.8982 24.0353 28.9317 24.0766 28.9317Z" fill="#E73B3B"/>
<path d="M24.3758 30.3528C24.4171 30.3528 24.4506 30.3194 24.4506 30.278C24.4506 30.2367 24.4171 30.2032 24.3758 30.2032C24.3345 30.2032 24.301 30.2367 24.301 30.278C24.301 30.3194 24.3345 30.3528 24.3758 30.3528Z" fill="white"/>
<path d="M23.8521 30.4277C23.8935 30.4277 23.9269 30.3942 23.9269 30.3529C23.9269 30.3116 23.8935 30.2781 23.8521 30.2781C23.8108 30.2781 23.7773 30.3116 23.7773 30.3529C23.7773 30.3942 23.8108 30.4277 23.8521 30.4277Z" fill="white"/>
<path d="M25.3731 27.9344C25.4144 27.9344 25.4479 27.9009 25.4479 27.8596C25.4479 27.8183 25.4144 27.7848 25.3731 27.7848C25.3318 27.7848 25.2983 27.8183 25.2983 27.8596C25.2983 27.9009 25.3318 27.9344 25.3731 27.9344Z" fill="#E73B3B"/>
<path d="M32.147 23.0798C32.0519 22.877 31.9769 22.7336 31.9507 22.6842C30.3389 23.082 29.2635 22.7458 29.0939 22.6864C29.011 22.843 28.4933 23.8441 28.284 24.8039C28.095 25.6696 28.2047 26.2499 28.6101 26.5289L28.6221 26.5374L28.6248 26.5392C29.0723 26.8341 29.4992 27.0952 29.8936 27.3154C29.9467 27.3449 29.9968 27.3724 30.0438 27.3978L30.0489 27.4005L30.0524 27.405C30.1066 27.4732 30.157 27.5443 30.2034 27.618C30.2905 27.7398 30.3434 27.8828 30.3565 28.032V32.3318L30.3293 32.3324C29.3012 32.3533 28.6649 32.5276 28.6649 32.6771C28.6649 32.841 29.4279 33.0237 30.5229 33.0237C31.6178 33.0237 32.3809 32.841 32.3809 32.6771C32.3809 32.5298 31.7553 32.3565 30.7446 32.3332L30.7174 32.3325L30.7428 28.3552C30.7434 28.0859 30.806 27.8204 30.9257 27.5792C30.9461 27.5386 30.9681 27.4992 30.9909 27.462C31.0093 27.4321 31.0287 27.403 31.0487 27.3754L31.0523 27.3704L31.0578 27.3674C31.1085 27.3397 31.1622 27.3097 31.2191 27.2775L31.2258 27.2738C31.599 27.0631 32.0011 26.8159 32.4211 26.5391C32.7961 26.2919 32.9266 25.7923 32.8091 25.0541C32.6972 24.3503 32.3873 23.592 32.147 23.0798Z" fill="#D0CDE1"/>
<path d="M32.2432 26.449C31.8029 26.7392 31.4394 26.9569 31.1614 27.1137H31.1611C30.7556 27.086 30.3483 27.0975 29.9449 27.1479C29.6599 26.9888 29.2754 26.7607 28.8024 26.449C28.798 26.446 28.7935 26.443 28.789 26.4398V26.4395C28.3551 26.1411 28.3444 25.509 28.4855 24.8627C28.8446 24.8228 29.4171 24.8403 30.1862 25.1151C31.0971 25.4404 32.0505 25.2564 32.603 25.0891C32.6938 25.6594 32.6384 26.1884 32.2432 26.449Z" fill="#E73B3B"/>
<path d="M29.6253 24.6288C29.6941 24.6288 29.7499 24.573 29.7499 24.5042C29.7499 24.4353 29.6941 24.3795 29.6253 24.3795C29.5564 24.3795 29.5006 24.4353 29.5006 24.5042C29.5006 24.573 29.5564 24.6288 29.6253 24.6288Z" fill="#E73B3B"/>
<path d="M29.2762 25.7757C29.345 25.7757 29.4008 25.7199 29.4008 25.651C29.4008 25.5822 29.345 25.5264 29.2762 25.5264C29.2073 25.5264 29.1515 25.5822 29.1515 25.651C29.1515 25.7199 29.2073 25.7757 29.2762 25.7757Z" fill="white"/>
<path d="M29.9244 24.8781C29.9657 24.8781 29.9992 24.8446 29.9992 24.8033C29.9992 24.762 29.9657 24.7285 29.9244 24.7285C29.8831 24.7285 29.8496 24.762 29.8496 24.8033C29.8496 24.8446 29.8831 24.8781 29.9244 24.8781Z" fill="#E73B3B"/>
<path d="M30.2237 26.2994C30.265 26.2994 30.2985 26.2659 30.2985 26.2246C30.2985 26.1833 30.265 26.1498 30.2237 26.1498C30.1824 26.1498 30.1489 26.1833 30.1489 26.2246C30.1489 26.2659 30.1824 26.2994 30.2237 26.2994Z" fill="white"/>
<path d="M29.7 26.3742C29.7414 26.3742 29.7748 26.3407 29.7748 26.2994C29.7748 26.2581 29.7414 26.2246 29.7 26.2246C29.6587 26.2246 29.6252 26.2581 29.6252 26.2994C29.6252 26.3407 29.6587 26.3742 29.7 26.3742Z" fill="white"/>
<path d="M31.221 23.8808C31.2624 23.8808 31.2958 23.8473 31.2958 23.806C31.2958 23.7647 31.2624 23.7312 31.221 23.7312C31.1797 23.7312 31.1462 23.7647 31.1462 23.806C31.1462 23.8473 31.1797 23.8808 31.221 23.8808Z" fill="#E73B3B"/>
</g>
</g>
<defs>
<clipPath id="clip0_471_12559">
<rect width="71" height="38" rx="14" fill="white"/>
</clipPath>
<clipPath id="clip1_471_12559">
<rect width="100" height="77.4103" fill="white" transform="translate(-27 -15)"/>
</clipPath>
</defs>
</svg>
