<svg width="225" height="225" viewBox="0 0 225 225" fill="none" xmlns="http://www.w3.org/2000/svg">
<g clip-path="url(#clip0_861_10346)">
<rect width="225" height="225" rx="55" fill="#E73B3B"/>
<mask id="path-2-outside-1_861_10346" maskUnits="userSpaceOnUse" x="-73.1421" y="-6.14214" width="305.47" height="305.47" fill="black">
<rect fill="white" x="-73.1421" y="-6.14214" width="305.47" height="305.47"/>
<path fill-rule="evenodd" clip-rule="evenodd" d="M83.1285 25.6777C92.8916 15.9146 108.721 15.9146 118.484 25.6777C128.247 35.4408 128.247 51.2699 118.484 61.033L100.806 78.7107C99.2441 80.2728 99.2441 82.8054 100.806 84.3675C102.368 85.9296 104.901 85.9296 106.463 84.3675L124.141 66.6899C133.904 56.9268 149.733 56.9268 159.496 66.6899C169.259 76.453 169.259 92.2821 159.496 102.045L141.818 119.723C140.256 121.285 140.256 123.818 141.818 125.38C143.38 126.942 145.913 126.942 147.475 125.38L165.153 107.702C174.916 97.9389 190.745 97.9389 200.508 107.702C210.271 117.465 210.271 133.294 200.508 143.057L182.831 160.735L154.546 189.019L146.768 196.798C125.011 218.555 90.7017 220.109 67.1507 201.462L42.1163 226.496C30.4006 238.212 11.4056 238.212 -0.310116 226.496L-1.01722 225.789C-12.733 214.073 -12.733 195.078 -1.01722 183.362L24.1054 158.24C6.11391 134.717 7.87491 100.931 29.3884 79.4178L37.1665 71.6396L65.4508 43.3553L83.1285 25.6777Z"/>
</mask>
<path fill-rule="evenodd" clip-rule="evenodd" d="M83.1285 25.6777C92.8916 15.9146 108.721 15.9146 118.484 25.6777C128.247 35.4408 128.247 51.2699 118.484 61.033L100.806 78.7107C99.2441 80.2728 99.2441 82.8054 100.806 84.3675C102.368 85.9296 104.901 85.9296 106.463 84.3675L124.141 66.6899C133.904 56.9268 149.733 56.9268 159.496 66.6899C169.259 76.453 169.259 92.2821 159.496 102.045L141.818 119.723C140.256 121.285 140.256 123.818 141.818 125.38C143.38 126.942 145.913 126.942 147.475 125.38L165.153 107.702C174.916 97.9389 190.745 97.9389 200.508 107.702C210.271 117.465 210.271 133.294 200.508 143.057L182.831 160.735L154.546 189.019L146.768 196.798C125.011 218.555 90.7017 220.109 67.1507 201.462L42.1163 226.496C30.4006 238.212 11.4056 238.212 -0.310116 226.496L-1.01722 225.789C-12.733 214.073 -12.733 195.078 -1.01722 183.362L24.1054 158.24C6.11391 134.717 7.87491 100.931 29.3884 79.4178L37.1665 71.6396L65.4508 43.3553L83.1285 25.6777Z" fill="white"/>
<path d="M67.1507 201.462L73.3584 193.622C69.3786 190.47 63.6691 190.801 60.0796 194.391L67.1507 201.462ZM24.1054 158.24L31.1764 165.311C34.7207 161.767 35.0935 156.146 32.0484 152.165L24.1054 158.24ZM125.555 18.6066C111.887 4.93825 89.7258 4.93825 76.0574 18.6066L90.1995 32.7487C96.0574 26.8909 105.555 26.8909 111.413 32.7487L125.555 18.6066ZM125.555 68.1041C139.223 54.4357 139.223 32.275 125.555 18.6066L111.413 32.7487C117.271 38.6066 117.271 48.1041 111.413 53.9619L125.555 68.1041ZM107.877 85.7817L125.555 68.1041L111.413 53.9619L93.7351 71.6396L107.877 85.7817ZM107.877 77.2965C110.22 79.6396 110.22 83.4386 107.877 85.7817L93.7351 71.6396C88.2677 77.107 88.2677 85.9713 93.7351 91.4386L107.877 77.2965ZM99.3919 77.2965C101.735 74.9533 105.534 74.9533 107.877 77.2965L93.7351 91.4386C99.2024 96.9059 108.067 96.9059 113.534 91.4386L99.3919 77.2965ZM117.07 59.6188L99.3919 77.2965L113.534 91.4386L131.212 73.7609L117.07 59.6188ZM166.567 59.6188C152.899 45.9504 130.738 45.9504 117.07 59.6188L131.212 73.7609C137.07 67.9031 146.567 67.9031 152.425 73.7609L166.567 59.6188ZM166.567 109.116C180.235 95.4479 180.235 73.2871 166.567 59.6188L152.425 73.7609C158.283 79.6188 158.283 89.1163 152.425 94.9741L166.567 109.116ZM148.889 126.794L166.567 109.116L152.425 94.9741L134.747 112.652L148.889 126.794ZM148.889 118.309C151.233 120.652 151.233 124.451 148.889 126.794L134.747 112.652C129.28 118.119 129.28 126.983 134.747 132.451L148.889 118.309ZM140.404 118.309C142.747 115.966 146.546 115.966 148.889 118.309L134.747 132.451C140.215 137.918 149.079 137.918 154.546 132.451L140.404 118.309ZM158.082 100.631L140.404 118.309L154.546 132.451L172.224 114.773L158.082 100.631ZM207.579 100.631C193.911 86.9626 171.75 86.9626 158.082 100.631L172.224 114.773C178.082 108.915 187.579 108.915 193.437 114.773L207.579 100.631ZM207.579 150.128C221.248 136.46 221.248 114.299 207.579 100.631L193.437 114.773C199.295 120.631 199.295 130.128 193.437 135.986L207.579 150.128ZM189.902 167.806L207.579 150.128L193.437 135.986L175.759 153.664L189.902 167.806ZM161.617 196.09L189.902 167.806L175.759 153.664L147.475 181.948L161.617 196.09ZM153.839 203.869L161.617 196.09L147.475 181.948L139.697 189.726L153.839 203.869ZM60.943 209.302C88.4274 231.064 128.451 229.257 153.839 203.869L139.697 189.726C121.571 207.852 92.9759 209.155 73.3584 193.622L60.943 209.302ZM49.1874 233.567L74.2217 208.533L60.0796 194.391L35.0452 219.425L49.1874 233.567ZM-7.38118 233.567C8.23979 249.188 33.5664 249.188 49.1874 233.567L35.0452 219.425C27.2347 227.235 14.5714 227.235 6.76095 219.425L-7.38118 233.567ZM-8.08829 232.86L-7.38118 233.567L6.76095 219.425L6.05385 218.718L-8.08829 232.86ZM-8.08829 176.291C-23.7093 191.912 -23.7093 217.239 -8.08829 232.86L6.05385 218.718C-1.75664 210.907 -1.75664 198.244 6.05385 190.434L-8.08829 176.291ZM17.0343 151.169L-8.08829 176.291L6.05385 190.434L31.1764 165.311L17.0343 151.169ZM22.3173 72.3467C-2.78742 97.4514 -4.83372 136.864 16.1624 164.315L32.0484 152.165C17.0615 132.57 18.5372 104.411 36.4594 86.4889L22.3173 72.3467ZM30.0955 64.5685L22.3173 72.3467L36.4594 86.4889L44.2376 78.7107L30.0955 64.5685ZM58.3797 36.2843L30.0955 64.5685L44.2376 78.7107L72.5219 50.4264L58.3797 36.2843ZM76.0574 18.6066L58.3797 36.2843L72.5219 50.4264L90.1995 32.7487L76.0574 18.6066Z" fill="#E73B3B" mask="url(#path-2-outside-1_861_10346)"/>
<path d="M111.789 132.098C112.36 138.793 112.36 138.793 122.682 142.774" stroke="#E73B3B" stroke-width="8" stroke-linecap="round"/>
<path d="M81.1442 105.386C81.7153 112.081 81.7153 112.081 92.0373 116.062" stroke="#E73B3B" stroke-width="8" stroke-linecap="round"/>
<path d="M78.4235 136.282C82.6661 139.817 82.6661 139.817 88.6765 139.464" stroke="#E73B3B" stroke-width="8" stroke-linecap="round"/>
<path d="M88.6461 140.263C88.2817 145.774 88.2817 145.774 92.1025 150.427" stroke="#E73B3B" stroke-width="8" stroke-linecap="round"/>
<ellipse cx="117" cy="151" rx="4" ry="7" fill="#3184E4"/>
</g>
<defs>
<clipPath id="clip0_861_10346">
<rect width="225" height="225" rx="55" fill="white"/>
</clipPath>
</defs>
</svg>
