<svg width="50" height="36" viewBox="0 0 50 36" fill="none" xmlns="http://www.w3.org/2000/svg">
<g clip-path="url(#clip0_436_21499)">
<path d="M50 11.7693H49.7279V4.3146C49.7279 3.748 49.6163 3.18695 49.3995 2.66348C49.1826 2.14001 48.8648 1.66437 48.4642 1.26372C48.0635 0.863072 47.5879 0.54526 47.0644 0.328431C46.541 0.111601 45.9799 4.46845e-07 45.4133 0H29.6194C29.0528 -1.34049e-06 28.4918 0.111598 27.9683 0.328425C27.4448 0.545253 26.9692 0.863063 26.5685 1.26371C26.1679 1.66436 25.8501 2.13999 25.6332 2.66347C25.4164 3.18694 25.3048 3.74799 25.3048 4.31459V45.2119C25.3048 46.3562 25.7594 47.4536 26.5685 48.2628C27.3777 49.0719 28.4751 49.5265 29.6194 49.5265H45.4133C46.5576 49.5265 47.655 49.0719 48.4642 48.2628C49.2733 47.4536 49.7279 46.3562 49.7279 45.2119V17.0758H50L50 11.7693Z" fill="#3F3D56"/>
<path d="M45.5874 1.12256H43.5258C43.6206 1.355 43.6568 1.60719 43.6312 1.85691C43.6055 2.10663 43.5189 2.34622 43.3789 2.55458C43.2389 2.76293 43.0497 2.93365 42.8282 3.0517C42.6067 3.16974 42.3595 3.2315 42.1084 3.23152H33.0603C32.8093 3.2315 32.5621 3.16975 32.3406 3.0517C32.119 2.93365 31.9299 2.76293 31.7899 2.55458C31.6499 2.34622 31.5632 2.10663 31.5376 1.85691C31.512 1.60719 31.5482 1.355 31.643 1.12256H29.7175C28.8629 1.12256 28.0434 1.46203 27.4391 2.06629C26.8348 2.67054 26.4954 3.4901 26.4954 4.34465V45.1819C26.4954 46.0365 26.8348 46.856 27.4391 47.4603C28.0433 48.0646 28.8629 48.404 29.7175 48.404H45.5874C46.0105 48.404 46.4295 48.3207 46.8204 48.1588C47.2114 47.9968 47.5666 47.7595 47.8658 47.4603C48.165 47.1611 48.4023 46.8059 48.5642 46.415C48.7261 46.024 48.8095 45.6051 48.8095 45.1819V4.34465C48.8095 3.92152 48.7261 3.50253 48.5642 3.11161C48.4023 2.72069 48.165 2.36549 47.8658 2.06629C47.5666 1.76709 47.2114 1.52975 46.8204 1.36783C46.4295 1.2059 46.0105 1.12256 45.5874 1.12256Z" fill="white"/>
<path d="M38.4854 45.5113C37.083 45.512 35.723 45.0306 34.6333 44.1478C33.5436 43.2651 32.7904 42.0346 32.5 40.6626C32.2096 39.2907 32.3996 37.8605 33.0381 36.612C33.6766 35.3634 34.7249 34.3722 36.0073 33.8046C37.2897 33.2369 38.7282 33.1273 40.0817 33.4941C41.4353 33.8608 42.6217 34.6817 43.442 35.8191C44.2624 36.9565 44.6669 38.3413 44.5877 39.7415C44.5086 41.1416 43.9506 42.472 43.0072 43.5097L44.2842 44.9412L43.647 45.2115C42.6612 45.6297 41.6965 45.2228 41.155 44.898C40.3229 45.3015 39.4101 45.5111 38.4854 45.5113ZM38.4854 34.2864C37.7055 34.2866 36.936 34.4651 36.2356 34.8083C35.5353 35.1514 34.9227 35.6501 34.4446 36.2663C33.9665 36.8825 33.6356 37.5997 33.4772 38.3634C33.3188 39.127 33.337 39.9167 33.5305 40.6722C33.724 41.4277 34.0876 42.129 34.5936 42.7224C35.0996 43.3158 35.7346 43.7858 36.45 44.0962C37.1654 44.4067 37.9423 44.5496 38.7214 44.5138C39.5004 44.4781 40.261 44.2647 40.945 43.8901L41.2178 43.7402L41.4714 43.9206C41.7613 44.1314 42.0904 44.282 42.4394 44.3635L41.6359 43.4627L41.9881 43.1317C42.4998 42.6551 42.9073 42.0778 43.185 41.436C43.4627 40.7943 43.6046 40.102 43.6018 39.4028C43.6002 38.0463 43.0607 36.7458 42.1015 35.7866C41.1423 34.8274 39.8418 34.2879 38.4854 34.2864Z" fill="#E6E6E6"/>
<path d="M44.0977 39.403C44.0972 38.1734 43.6928 36.978 42.9467 36.0007C42.2006 35.0234 41.154 34.3183 39.968 33.9938C38.7821 33.6693 37.5223 33.7434 36.3826 34.2048C35.2428 34.6661 34.2862 35.4891 33.6598 36.5471C33.0334 37.6052 32.772 38.8397 32.9157 40.0609C33.0594 41.282 33.6002 42.4221 34.4551 43.3059C35.31 44.1896 36.4316 44.768 37.6473 44.9522C38.863 45.1363 40.1055 44.916 41.1838 44.325C41.5717 44.6011 42.5182 45.1517 43.4532 44.7551L42.3277 43.4934C42.8872 42.9692 43.333 42.3356 43.6375 41.632C43.942 40.9284 44.0986 40.1697 44.0977 39.403Z" fill="white"/>
<path d="M38.4853 18.359C37.083 18.3596 35.723 17.8782 34.6333 16.9955C33.5436 16.1127 32.7904 14.8823 32.5 13.5103C32.2096 12.1383 32.3996 10.7082 33.0381 9.45962C33.6766 8.21104 34.7249 7.21988 36.0073 6.65224C37.2897 6.0846 38.7282 5.97498 40.0817 6.34174C41.4353 6.70851 42.6217 7.52937 43.442 8.66677C44.2624 9.80417 44.6669 11.189 44.5877 12.5891C44.5086 13.9893 43.9506 15.3197 43.0072 16.3573L44.2842 17.7889L43.647 18.0592C42.6612 18.4773 41.6965 18.0704 41.155 17.7457C40.3228 18.1491 39.4101 18.3588 38.4853 18.359ZM38.4853 7.13401C37.7055 7.13425 36.936 7.31277 36.2356 7.65592C35.5353 7.99908 34.9227 8.49779 34.4446 9.11394C33.9665 9.7301 33.6356 10.4474 33.4772 11.211C33.3188 11.9746 33.337 12.7644 33.5305 13.5198C33.724 14.2753 34.0876 14.9766 34.5936 15.5701C35.0996 16.1635 35.7346 16.6334 36.45 16.9439C37.1654 17.2544 37.9423 17.3972 38.7214 17.3615C39.5004 17.3257 40.261 17.1124 40.945 16.7377L41.2178 16.5878L41.4714 16.7683C41.7613 16.9791 42.0904 17.1297 42.4394 17.2112L41.6359 16.3104L41.9881 15.9794C42.4998 15.5028 42.9073 14.9254 43.185 14.2837C43.4627 13.6419 43.6046 12.9497 43.6018 12.2504C43.6002 10.8939 43.0607 9.59345 42.1015 8.63427C41.1423 7.67509 39.8418 7.13554 38.4853 7.13401Z" fill="#E6E6E6"/>
<path d="M44.0977 12.2502C44.0973 11.0206 43.6928 9.82521 42.9467 8.84791C42.2006 7.8706 41.154 7.16547 39.9681 6.84098C38.7821 6.51649 37.5223 6.59061 36.3826 7.05193C35.2428 7.51325 34.2862 8.33623 33.6598 9.39429C33.0334 10.4523 32.772 11.6869 32.9157 12.908C33.0594 14.1292 33.6002 15.2693 34.4551 16.1531C35.31 17.0368 36.4316 17.6152 37.6473 17.7994C38.863 17.9835 40.1055 17.7632 41.1838 17.1722C41.5718 17.4483 42.5182 17.9988 43.4532 17.6022L42.3277 16.3406C42.8872 15.8164 43.333 15.1828 43.6375 14.4792C43.942 13.7755 44.0986 13.0168 44.0977 12.2502Z" fill="white"/>
<path d="M39.6052 11.103H35.5947V11.4755H39.6052V11.103Z" fill="#E73B3B"/>
<path d="M42.5846 12.3911H35.5947V12.7635H42.5846V12.3911Z" fill="#E6E6E6"/>
<path d="M42.5777 13.6797H35.5947V14.0521H42.5777V13.6797Z" fill="#E6E6E6"/>
<path d="M46.2593 18.8807C46.7479 18.8807 47.144 18.4846 47.144 17.996C47.144 17.5074 46.7479 17.1113 46.2593 17.1113C45.7707 17.1113 45.3746 17.5074 45.3746 17.996C45.3746 18.4846 45.7707 18.8807 46.2593 18.8807Z" fill="#E6E6E6"/>
<path d="M26.7221 32.3931C26.0747 32.7814 24.9213 33.2679 23.7425 32.7679L22.9806 32.4447L24.5075 30.7331C23.289 29.3897 22.615 27.6404 22.6168 25.8267C22.6187 24.0131 23.2963 22.2652 24.5175 20.9242C25.7387 19.5833 27.4157 18.7455 29.2213 18.5745C31.0269 18.4035 32.8314 18.9114 34.2827 19.9992C35.7339 21.087 36.7277 22.6766 37.0701 24.4577C37.4124 26.2387 37.0788 28.0834 36.1343 29.6318C35.1898 31.1801 33.7022 32.3209 31.9619 32.8314C30.2215 33.342 28.3534 33.1857 26.7221 32.3931Z" fill="#E73B3B"/>
<path opacity="0.1" d="M36.0651 25.7887C36.065 24.1117 35.437 22.4955 34.3048 21.2583C33.1725 20.0212 31.6181 19.2528 29.9476 19.1045C30.1431 19.0874 30.3408 19.0781 30.5407 19.0781C32.3198 19.0793 34.0255 19.7868 35.2831 21.0451C36.5407 22.3035 37.2471 24.0097 37.2471 25.7887C37.2471 27.5678 36.5407 29.274 35.2831 30.5323C34.0255 31.7907 32.3198 32.4982 30.5407 32.4993C30.3411 32.4993 30.1437 32.49 29.9486 32.4729C31.6189 32.3244 33.173 31.5559 34.3051 30.3188C35.4371 29.0817 36.065 27.4656 36.0651 25.7887Z" fill="black"/>
<path d="M30.8559 24.4507H26.0608V24.896H30.8559V24.4507Z" fill="white"/>
<path d="M34.4183 25.9912H26.0608V26.4365H34.4183V25.9912Z" fill="white"/>
<path d="M34.4101 27.5312H26.0608V27.9765H34.4101V27.5312Z" fill="white"/>
<path d="M12.5068 23.7855L12.6093 23.2731C12.6093 23.2731 14.1166 22.7607 14.2853 23.7855H12.5068Z" fill="#E6E6E6"/>
<path d="M11.0721 25.9374L9.94487 25.835L9.22754 29.2167L9.33002 32.291L10.4573 36.3901L11.9945 35.4678L11.1746 31.2662L11.0721 25.9374Z" fill="#2F2E41"/>
<path d="M10.3586 36.0315L10.611 38.1835L10.848 43.2048L10.3036 50.6877L12.2506 50.5832L13.205 42.795L13.7878 39.2082L14.6076 43.3073L15.12 50.9931L17.1183 50.833V43.2803L17.1695 37.7736L16.4522 35.6216L10.3586 36.0315Z" fill="#2F2E41"/>
<path d="M14.5563 23.888C14.5563 23.888 13.839 22.8632 12.5068 23.5805L11.8919 24.4004L9.94488 25.835L10.3548 30.6514L9.84241 36.6976L17.1183 36.5951L15.8885 30.549V24.0929L14.5563 23.888Z" fill="#2F2E41"/>
<path opacity="0.25" d="M10.611 27.5356L10.0234 34.5612L10.7647 30.7536L10.611 27.5356Z" fill="black"/>
<path d="M22.8417 33.4263C22.7371 33.4618 22.626 33.474 22.5161 33.4619C22.4063 33.4499 22.3004 33.4139 22.206 33.3565C22.1116 33.2991 22.0309 33.2217 21.9696 33.1298C21.9084 33.0378 21.868 32.9335 21.8514 32.8243L20.1747 32.4099L20.178 31.3296L22.5376 31.948C22.723 31.9323 22.9077 31.9851 23.0567 32.0964C23.2057 32.2077 23.3088 32.3699 23.3463 32.5521C23.3837 32.7343 23.3531 32.9239 23.2601 33.085C23.1671 33.2462 23.0182 33.3676 22.8417 33.4263Z" fill="#9F616A"/>
<path d="M21.0883 31.3169L20.8064 32.9321L21.513 33.0555L21.795 31.4403L21.0883 31.3169Z" fill="#E6E6E6"/>
<path d="M14.4031 22.4519C15.4003 21.9067 15.7668 20.6564 15.2216 19.6592C14.6765 18.6619 13.4262 18.2954 12.4289 18.8406C11.4317 19.3857 11.0652 20.6361 11.6103 21.6333C12.1555 22.6305 13.4058 22.997 14.4031 22.4519Z" fill="#9F616A"/>
<path d="M13.5697 22.4614C13.0662 22.5822 12.5358 22.5117 12.0814 22.2634C11.6271 22.0151 11.2812 21.6069 11.111 21.1179C10.9408 20.6289 10.9584 20.0941 11.1604 19.6174C11.3624 19.1406 11.7343 18.756 12.204 18.5381C12.5657 18.3767 12.9613 18.3057 13.3565 18.3313C13.972 18.3636 14.5701 18.5911 15.1862 18.5743L15.2755 18.7179L15.612 18.6363L15.6841 18.9034L15.7728 18.9004C15.9316 19.1954 15.6761 19.6179 15.341 19.6143C15.2084 19.6129 15.0829 19.5576 14.9532 19.5298C14.8235 19.502 14.6707 19.509 14.5813 19.6069C14.465 19.7343 14.5156 19.9329 14.5399 20.1036C14.5641 20.2743 14.5036 20.5043 14.3313 20.5098C14.2432 20.5127 14.1595 20.4495 14.073 20.4661C13.9723 20.4855 13.9213 20.6071 13.936 20.7087C13.961 20.8083 14.0017 20.9033 14.0566 20.99C14.3064 21.4887 14.0954 22.167 13.6069 22.436" fill="#2F2E41"/>
<path d="M15.3994 24.4887L15.8886 24.0927C15.8886 24.0927 16.8757 24.0241 16.8579 25.0706L18.4374 30.0114L21.4676 31.0848L21.0593 33.1944L16.772 31.5612L14.5944 27.9518L15.3994 24.4887Z" fill="#2F2E41"/>
</g>
<defs>
<clipPath id="clip0_436_21499">
<rect width="50" height="53.0656" fill="white"/>
</clipPath>
</defs>
</svg>
