<svg width="120" height="101" viewBox="0 0 120 101" fill="none" xmlns="http://www.w3.org/2000/svg">
<g clip-path="url(#clip0_428_3595)">
<path d="M78.1163 99.5187L55.6368 58.9891C55.6304 58.8899 55.5997 58.7938 55.5474 58.7093C55.495 58.6248 55.4227 58.5545 55.3367 58.5046C55.2381 58.4482 55.1255 58.4209 55.012 58.4262C55.0084 58.4259 55.0047 58.4261 55.001 58.4259C54.9974 58.4261 54.9937 58.4259 54.9901 58.4262C54.8363 58.419 54.6857 58.4715 54.5697 58.5728C54.4538 58.6741 54.3815 58.8163 54.368 58.9697L30.543 99.5187C30.5033 99.5874 30.4775 99.6633 30.4671 99.742C30.4567 99.8206 30.4619 99.9006 30.4825 99.9773C30.503 100.054 30.5384 100.126 30.5867 100.189C30.635 100.252 30.6953 100.305 30.764 100.344C30.8328 100.384 30.9086 100.41 30.9873 100.42C31.066 100.43 31.146 100.425 31.2227 100.405C31.2993 100.384 31.3712 100.349 31.4342 100.3C31.4971 100.252 31.5499 100.192 31.5896 100.123L54.985 60.3051L77.0698 100.123C77.1094 100.192 77.1622 100.252 77.2252 100.3C77.2881 100.349 77.36 100.384 77.4366 100.405C77.5133 100.425 77.5933 100.43 77.672 100.42C77.7507 100.41 77.8266 100.384 77.8953 100.344C77.964 100.305 78.0243 100.252 78.0726 100.189C78.1209 100.126 78.1563 100.054 78.1769 99.9773C78.1974 99.9006 78.2026 99.8206 78.1922 99.742C78.1818 99.6633 78.156 99.5874 78.1163 99.5187Z" fill="#3F3D56"/>
<path d="M51.2762 92.5649L53.8171 91.9819L52.7777 81.9041L49.0276 82.7644L51.2762 92.5649Z" fill="#FFB6B6"/>
<path d="M53.2407 87.6965L49.6247 88.526L48.4685 86.2665L48.403 86.1864C47.8901 85.5568 47.6055 84.7722 47.5953 83.9603L44.5899 76.0102L44.3441 75.8934C44.154 75.8029 43.9854 75.673 43.8495 75.5122C43.7136 75.3514 43.6136 75.1635 43.5561 74.961C43.4986 74.7584 43.485 74.546 43.5162 74.3378C43.5473 74.1296 43.6225 73.9304 43.7368 73.7536L43.4186 72.912L34.4407 72.9285L34.4317 72.926L23.4069 69.8334L24.5645 62.9327L27.6657 64.8836C28.6876 64.8172 46.1932 63.7424 47.8104 67.6656C49.2505 71.1591 51.3257 77.1276 52.8131 81.5194C52.8872 81.7165 52.9794 81.9064 53.0885 82.0867C53.3198 82.4431 53.4556 82.853 53.4828 83.277C53.5003 83.4615 53.5355 83.6439 53.5879 83.8216C54.206 85.6696 53.2643 87.6477 53.2547 87.6675L53.2407 87.6965Z" fill="#2F2E41"/>
<path d="M50.4178 91.7223L51.244 91.5327L54.1684 89.4812L56.1979 90.3961L56.1981 90.396C57.175 90.172 58.2009 90.3452 59.0502 90.8775C59.8994 91.4098 60.5024 92.2576 60.7266 93.2345L60.7541 93.3542L51.2905 95.5255L50.4178 91.7223Z" fill="#2F2E41"/>
<path d="M12.902 91.9486C13.1603 89.1367 14.8074 86.3214 17.4491 85.3242C16.4884 88.2407 16.5902 91.4031 17.7366 94.2518C18.1826 95.3488 18.793 96.5225 18.4429 97.6538C18.2251 98.3578 17.6546 98.9093 17.0084 99.2635C16.3622 99.6177 15.6383 99.7998 14.9234 99.9785L14.7855 100.1C13.5598 97.5564 12.6437 94.7604 12.902 91.9486Z" fill="#F0F0F0"/>
<path d="M17.4772 85.3764C15.9778 87.1692 15.0813 89.3889 14.9152 91.7202C14.8705 92.2215 14.9051 92.7266 15.0177 93.2171C15.1429 93.6913 15.3928 94.1234 15.7414 94.4684C16.06 94.7966 16.4239 95.0954 16.6571 95.4954C16.7735 95.7019 16.8449 95.9306 16.8666 96.1667C16.8884 96.4027 16.86 96.6406 16.7833 96.8649C16.6068 97.4287 16.2383 97.8955 15.862 98.3394C15.4442 98.8323 15.0025 99.3377 14.8387 99.9786C14.8189 100.056 14.6996 100.021 14.7194 99.9434C15.0042 98.8283 16.0566 98.1663 16.5361 97.1548C16.7598 96.6828 16.8427 96.1405 16.6032 95.6575C16.3938 95.2352 16.0188 94.9267 15.6933 94.5972C15.3483 94.2656 15.0897 93.8546 14.9402 93.4C14.803 92.9169 14.7489 92.4139 14.7804 91.9126C14.8334 90.783 15.0636 89.6687 15.4627 88.6105C15.9115 87.4003 16.564 86.2759 17.3919 85.2857C17.4432 85.2244 17.5282 85.3155 17.4772 85.3764Z" fill="white"/>
<path d="M14.9245 90.9664C14.5372 90.8854 14.1912 90.6694 13.9484 90.3569C13.7056 90.0444 13.5818 89.6557 13.5991 89.2604C13.6 89.2443 13.6071 89.2291 13.6189 89.2181C13.6307 89.2071 13.6463 89.2011 13.6624 89.2014C13.6786 89.2017 13.694 89.2082 13.7054 89.2197C13.7168 89.2311 13.7233 89.2465 13.7236 89.2626C13.7068 89.6307 13.8222 89.9927 14.0488 90.2833C14.2755 90.5738 14.5986 90.7738 14.9597 90.847C15.0382 90.863 15.0025 90.9823 14.9245 90.9664Z" fill="white"/>
<path d="M15.558 94.3233C16.2389 93.8864 16.7301 93.2091 16.9337 92.4262C16.9538 92.3486 17.0732 92.3839 17.0531 92.4614C16.8397 93.2757 16.327 93.9796 15.6175 94.4326C15.5498 94.4757 15.4907 94.3661 15.558 94.3233Z" fill="white"/>
<path d="M16.0308 87.5145C16.1741 87.5771 16.3308 87.6031 16.4866 87.5901C16.6425 87.5772 16.7927 87.5257 16.9238 87.4404C16.9909 87.3964 17.05 87.506 16.9833 87.5497C16.8381 87.6433 16.6721 87.6999 16.4999 87.7146C16.3277 87.7293 16.1546 87.7016 15.9956 87.6339C15.9801 87.6288 15.9671 87.6179 15.9592 87.6036C15.9514 87.5892 15.9494 87.5724 15.9535 87.5566C15.9582 87.5408 15.969 87.5276 15.9835 87.5197C15.998 87.5118 16.0149 87.5099 16.0308 87.5145Z" fill="white"/>
<path d="M25.7514 90.0651C25.7103 90.0938 25.6692 90.1224 25.6281 90.1521C25.0774 90.5401 24.5592 90.9722 24.0786 91.444C24.0408 91.4799 24.0031 91.5169 23.9665 91.5538C22.8206 92.703 21.898 94.055 21.2456 95.541C20.9865 96.1326 20.7729 96.743 20.6064 97.367C20.3766 98.2288 20.196 99.1814 19.7093 99.8959C19.6593 99.971 19.6048 100.043 19.546 100.111L14.9446 100.259C14.934 100.254 14.9234 100.25 14.9127 100.245L14.7292 100.26C14.7356 100.227 14.7429 100.193 14.7492 100.16C14.7528 100.141 14.7574 100.122 14.761 100.103C14.7637 100.09 14.7665 100.078 14.7682 100.066C14.7691 100.062 14.7701 100.058 14.771 100.055C14.7727 100.043 14.7756 100.032 14.7773 100.022C14.8175 99.8323 14.859 99.6429 14.902 99.4534C14.9019 99.4523 14.9019 99.4523 14.9029 99.4513C15.2164 98.0042 15.7004 96.5995 16.3449 95.2665C16.3646 95.227 16.3843 95.1865 16.4062 95.1469C16.7054 94.5564 17.0525 93.9913 17.4438 93.4573C17.659 93.1656 17.8889 92.885 18.1325 92.6166C18.7632 91.9241 19.4989 91.3352 20.3127 90.8714C21.935 89.9471 23.8349 89.5519 25.6157 90.0275C25.6612 90.0397 25.7058 90.0519 25.7514 90.0651Z" fill="#F0F0F0"/>
<path d="M25.7429 90.1238C23.4662 90.6525 21.414 91.8851 19.8778 93.6465C19.5403 94.0198 19.2638 94.444 19.0584 94.9034C18.8729 95.3574 18.8122 95.8528 18.8829 96.3382C18.9396 96.7921 19.0503 97.2498 18.9957 97.7095C18.9643 97.9445 18.8836 98.1701 18.7588 98.3716C18.6341 98.5732 18.4682 98.7461 18.2719 98.879C17.7915 99.2229 17.2162 99.3737 16.6485 99.5016C16.0182 99.6436 15.3612 99.7812 14.8446 100.194C14.782 100.244 14.708 100.144 14.7705 100.094C15.6693 99.3755 16.9081 99.4805 17.9 98.9616C18.3628 98.7194 18.7555 98.3363 18.855 97.8065C18.9421 97.3432 18.8284 96.8712 18.767 96.4121C18.6911 95.9396 18.7321 95.4558 18.8864 95.0028C19.0677 94.5344 19.3274 94.1003 19.6544 93.719C20.3768 92.8489 21.2315 92.0978 22.1872 91.4932C23.2741 90.7972 24.4721 90.2922 25.7293 90.0001C25.8072 89.982 25.8202 90.1059 25.7429 90.1238Z" fill="white"/>
<path d="M20.3391 93.0503C20.0786 92.7524 19.9324 92.3716 19.9267 91.9759C19.921 91.5802 20.0561 91.1954 20.308 90.8901C20.3591 90.8285 20.4572 90.9052 20.406 90.9668C20.171 91.2507 20.0451 91.6091 20.0512 91.9776C20.0572 92.3461 20.1948 92.7002 20.4391 92.9762C20.4921 93.0362 20.3918 93.1099 20.3391 93.0503Z" fill="white"/>
<path d="M18.8238 96.1118C19.6304 96.173 20.4305 95.9279 21.0645 95.4254C21.1272 95.3756 21.2013 95.4756 21.1386 95.5254C20.4779 96.0471 19.6448 96.3005 18.8055 96.2349C18.7255 96.2286 18.7442 96.1056 18.8238 96.1118Z" fill="white"/>
<path d="M23.3006 90.9601C23.3774 91.0964 23.4869 91.2114 23.6191 91.2949C23.7514 91.3784 23.9023 91.4278 24.0583 91.4386C24.1383 91.4439 24.1195 91.5669 24.04 91.5617C23.8677 91.549 23.7011 91.4943 23.5548 91.4023C23.4084 91.3104 23.2869 91.184 23.2007 91.0342C23.1914 91.0208 23.1875 91.0043 23.1899 90.9881C23.1923 90.972 23.2008 90.9573 23.2136 90.9472C23.2269 90.9374 23.2435 90.9333 23.2598 90.9357C23.2761 90.9382 23.2908 90.9469 23.3006 90.9601Z" fill="white"/>
<path d="M88.1839 91.9486C87.9256 89.1367 86.2785 86.3214 83.6368 85.3242C84.5975 88.2407 84.4957 91.4031 83.3494 94.2518C82.9033 95.3488 82.2929 96.5225 82.643 97.6538C82.8608 98.3578 83.4314 98.9093 84.0775 99.2635C84.7237 99.6177 85.4476 99.7998 86.1625 99.9785L86.3004 100.1C87.5261 97.5564 88.4422 94.7604 88.1839 91.9486Z" fill="#F0F0F0"/>
<path d="M83.6086 85.3764C85.1081 87.1692 86.0045 89.3889 86.1707 91.7202C86.2153 92.2215 86.1807 92.7266 86.0681 93.2171C85.9429 93.6913 85.693 94.1234 85.3444 94.4684C85.0259 94.7966 84.662 95.0954 84.4287 95.4954C84.3124 95.7019 84.241 95.9306 84.2192 96.1667C84.1975 96.4027 84.2259 96.6406 84.3025 96.8649C84.479 97.4287 84.8476 97.8955 85.2238 98.3394C85.6416 98.8323 86.0833 99.3377 86.2471 99.9786C86.2669 100.056 86.3863 100.021 86.3664 99.9434C86.0816 98.8283 85.0293 98.1663 84.5498 97.1548C84.326 96.6828 84.2432 96.1405 84.4826 95.6575C84.6921 95.2352 85.067 94.9267 85.3925 94.5972C85.7375 94.2656 85.9961 93.8546 86.1456 93.4C86.2829 92.9169 86.3369 92.4139 86.3054 91.9126C86.2524 90.783 86.0222 89.6687 85.6231 88.6105C85.1743 87.4003 84.5219 86.2759 83.6939 85.2857C83.6426 85.2244 83.5576 85.3155 83.6086 85.3764Z" fill="white"/>
<path d="M86.1613 90.9664C86.5487 90.8854 86.8947 90.6694 87.1375 90.3569C87.3803 90.0444 87.5041 89.6558 87.4868 89.2604C87.4859 89.2443 87.4788 89.2291 87.467 89.2181C87.4552 89.2071 87.4396 89.2011 87.4235 89.2014C87.4073 89.2017 87.3919 89.2083 87.3805 89.2197C87.3691 89.2311 87.3626 89.2465 87.3623 89.2626C87.3791 89.6308 87.2637 89.9928 87.037 90.2833C86.8104 90.5738 86.4873 90.7738 86.1261 90.847C86.0477 90.8631 86.0833 90.9823 86.1613 90.9664Z" fill="white"/>
<path d="M85.5279 94.3233C84.847 93.8864 84.3558 93.2091 84.1522 92.4262C84.132 92.3486 84.0127 92.3839 84.0328 92.4614C84.2462 93.2757 84.7589 93.9796 85.4684 94.4326C85.5361 94.4757 85.5952 94.3661 85.5279 94.3233Z" fill="white"/>
<path d="M85.0551 87.5145C84.9118 87.5771 84.7552 87.6031 84.5993 87.5901C84.4434 87.5772 84.2932 87.5257 84.1621 87.4404C84.095 87.3964 84.036 87.506 84.1026 87.5497C84.2479 87.6433 84.4138 87.6999 84.586 87.7146C84.7582 87.7293 84.9313 87.7016 85.0903 87.6339C85.1059 87.6288 85.1188 87.6179 85.1267 87.6036C85.1345 87.5892 85.1365 87.5724 85.1324 87.5566C85.1277 87.5408 85.1169 87.5276 85.1024 87.5197C85.088 87.5118 85.071 87.5099 85.0551 87.5145Z" fill="white"/>
<path d="M75.3345 90.0651C75.3756 90.0938 75.4167 90.1224 75.4578 90.1521C76.0084 90.5401 76.5267 90.9722 77.0073 91.444C77.0451 91.4799 77.0828 91.5169 77.1194 91.5538C78.2653 92.703 79.1879 94.055 79.8403 95.541C80.0993 96.1326 80.313 96.743 80.4794 97.367C80.7092 98.2288 80.8898 99.1814 81.3766 99.8959C81.4265 99.971 81.4811 100.043 81.5399 100.111L86.1412 100.259C86.1519 100.254 86.1625 100.25 86.1732 100.245L86.3566 100.26C86.3503 100.227 86.343 100.193 86.3367 100.16C86.3331 100.141 86.3285 100.122 86.3249 100.103C86.3221 100.09 86.3194 100.078 86.3176 100.066C86.3168 100.062 86.3158 100.058 86.3149 100.055C86.3132 100.043 86.3103 100.032 86.3085 100.022C86.2684 99.8323 86.2269 99.6429 86.1839 99.4534C86.1839 99.4523 86.1839 99.4523 86.1829 99.4513C85.8695 98.0042 85.3854 96.5995 84.741 95.2666C84.7213 95.227 84.7016 95.1865 84.6797 95.1469C84.3804 94.5564 84.0334 93.9913 83.6421 93.4573C83.4269 93.1656 83.197 92.885 82.9534 92.6166C82.3227 91.9241 81.587 91.3352 80.7732 90.8714C79.1509 89.9471 77.251 89.5519 75.4702 90.0275C75.4246 90.0397 75.3801 90.0519 75.3345 90.0651Z" fill="#F0F0F0"/>
<path d="M75.343 90.1238C77.6196 90.6525 79.6718 91.8851 81.2081 93.6465C81.5455 94.0198 81.822 94.444 82.0274 94.9034C82.213 95.3574 82.2736 95.8528 82.203 96.3382C82.1462 96.7921 82.0356 97.2498 82.0901 97.7095C82.1216 97.9444 82.2023 98.1701 82.327 98.3716C82.4518 98.5732 82.6177 98.7461 82.8139 98.879C83.2943 99.2229 83.8696 99.3737 84.4373 99.5016C85.0676 99.6436 85.7246 99.7812 86.2412 100.194C86.3038 100.244 86.3778 100.144 86.3153 100.094C85.4165 99.3755 84.1777 99.4805 83.1859 98.9616C82.723 98.7194 82.3304 98.3363 82.2308 97.8065C82.1438 97.3432 82.2574 96.8711 82.3189 96.4121C82.3947 95.9396 82.3537 95.4558 82.1995 95.0028C82.0181 94.5344 81.7585 94.1003 81.4315 93.719C80.7091 92.8489 79.8544 92.0978 78.8987 91.4932C77.8117 90.7972 76.6137 90.2922 75.3565 90.0001C75.2787 89.982 75.2657 90.1059 75.343 90.1238Z" fill="white"/>
<path d="M80.7468 93.0503C81.0074 92.7524 81.1535 92.3716 81.1592 91.9759C81.1649 91.5802 81.0298 91.1954 80.778 90.8901C80.7268 90.8285 80.6287 90.9052 80.6799 90.9668C80.915 91.2507 81.0408 91.6091 81.0347 91.9776C81.0287 92.3461 80.8911 92.7002 80.6469 92.9762C80.5938 93.0362 80.6941 93.1099 80.7468 93.0503Z" fill="white"/>
<path d="M82.262 96.1118C81.4554 96.173 80.6553 95.9279 80.0214 95.4254C79.9586 95.3756 79.8846 95.4756 79.9473 95.5254C80.6079 96.0471 81.4411 96.3005 82.2803 96.2349C82.3603 96.2286 82.3416 96.1056 82.262 96.1118Z" fill="white"/>
<path d="M77.7852 90.9601C77.7084 91.0964 77.599 91.2114 77.4668 91.2949C77.3345 91.3784 77.1836 91.4278 77.0276 91.4386C76.9475 91.4439 76.9663 91.5669 77.0458 91.5617C77.2182 91.549 77.3848 91.4943 77.5311 91.4023C77.6774 91.3104 77.799 91.184 77.8852 91.0342C77.8945 91.0208 77.8984 91.0043 77.896 90.9881C77.8936 90.972 77.8851 90.9573 77.8723 90.9472C77.859 90.9374 77.8424 90.9333 77.8261 90.9357C77.8098 90.9382 77.7951 90.9469 77.7852 90.9601Z" fill="white"/>
<path d="M120 100.484C120 100.527 119.983 100.567 119.953 100.597C119.923 100.627 119.883 100.644 119.84 100.644H0.159789C0.11741 100.644 0.076767 100.627 0.0468008 100.597C0.0168346 100.567 0 100.527 0 100.484C0 100.442 0.0168346 100.401 0.0468008 100.371C0.076767 100.341 0.11741 100.324 0.159789 100.324H119.84C119.883 100.325 119.923 100.341 119.953 100.371C119.983 100.401 120 100.442 120 100.484Z" fill="#3F3D56"/>
<path d="M77.0896 38.6716C77.4233 38.6716 77.6938 38.4011 77.6938 38.0674C77.6938 37.7337 77.4233 37.4631 77.0896 37.4631C76.7559 37.4631 76.4854 37.7337 76.4854 38.0674C76.4854 38.4011 76.7559 38.6716 77.0896 38.6716Z" fill="#3F3D56"/>
<path d="M69.5233 42.7216L77.6694 37.6037C77.7431 37.5574 77.8254 37.5265 77.9113 37.5129C77.9973 37.4993 78.0851 37.5033 78.1695 37.5246C78.2539 37.5458 78.3331 37.584 78.4023 37.6368C78.4716 37.6895 78.5294 37.7557 78.5723 37.8315C78.6152 37.9072 78.6423 37.9908 78.652 38.0773C78.6617 38.1638 78.6538 38.2513 78.6287 38.3347C78.6036 38.418 78.5618 38.4954 78.506 38.5622C78.4502 38.6289 78.3814 38.6837 78.3038 38.7231L69.7278 43.0824C69.6801 43.1066 69.625 43.1115 69.5739 43.0961C69.5227 43.0807 69.4795 43.0462 69.4531 42.9997C69.4268 42.9532 69.4194 42.8984 69.4324 42.8466C69.4455 42.7948 69.478 42.75 69.5233 42.7216Z" fill="#E4E4E4"/>
<path d="M53.1804 53.7416C53.1162 53.6462 53.0827 53.5335 53.0844 53.4185C53.0861 53.3036 53.1228 53.1919 53.1897 53.0984C53.3276 52.9138 53.5111 52.7683 53.7223 52.6761C54.1581 52.4542 54.6276 52.3059 55.1119 52.2369C55.4798 52.1847 55.8814 52.1681 56.1669 51.93C56.4504 51.6936 56.6085 51.2514 56.9759 51.2145C57.331 51.1788 57.6041 51.5676 57.9602 51.5917C58.3992 51.6215 58.6867 51.1077 59.1138 51.0023C59.3998 50.9318 59.6938 51.0563 59.962 51.1779L61.5716 51.9082L62.3966 52.2824C62.6848 52.4132 63.0098 52.5892 63.0642 52.901C63.1389 53.3293 62.6626 53.6315 62.2553 53.7836C59.3468 54.857 56.1508 54.8574 53.242 53.7847" fill="#E73B3B"/>
<path d="M55.6053 61.6328C67.2853 61.6328 76.7538 60.2801 76.7538 58.6115C76.7538 56.943 67.2853 55.5903 55.6053 55.5903C43.9253 55.5903 34.4568 56.943 34.4568 58.6115C34.4568 60.2801 43.9253 61.6328 55.6053 61.6328Z" fill="#3F3D56"/>
<path d="M98.5066 77.3431H84.0047C83.3373 77.3431 82.7963 77.8842 82.7963 78.5516C82.7963 79.2191 83.3373 79.7601 84.0047 79.7601H98.5066C99.174 79.7601 99.7151 79.2191 99.7151 78.5516C99.7151 77.8842 99.174 77.3431 98.5066 77.3431Z" fill="#3F3D56"/>
<path d="M105.535 55.7972L100.745 78.5503L101.992 84.3738L104.348 95.3643V100.304C104.348 100.311 104.347 100.318 104.346 100.325C104.345 100.434 104.325 100.542 104.287 100.644H102.394C102.356 100.542 102.336 100.434 102.335 100.325C102.334 100.318 102.333 100.311 102.333 100.304V95.5765L100.196 85.6011L99.7634 83.587L98.9269 79.6836L98.6852 78.553V78.5516L98.9242 77.4183L99.1081 76.5442L103.563 55.3836C103.59 55.2541 103.643 55.1311 103.717 55.0218C103.792 54.9125 103.887 54.819 103.998 54.7466C104.109 54.6742 104.233 54.6243 104.363 54.5998C104.493 54.5753 104.626 54.5767 104.756 54.6039C104.886 54.631 105.008 54.6835 105.118 54.7581C105.227 54.8328 105.32 54.9283 105.393 55.0391C105.465 55.15 105.515 55.274 105.539 55.404C105.563 55.5341 105.562 55.6677 105.535 55.7972Z" fill="#3F3D56"/>
<path d="M85.0119 78.5516V100.304C85.0121 100.311 85.0117 100.318 85.0106 100.325C85.0097 100.434 84.9897 100.542 84.9514 100.644H83.0582C83.0199 100.542 82.9999 100.434 82.999 100.325C82.998 100.318 82.9975 100.311 82.9977 100.304V78.5516C82.9977 78.2845 83.1038 78.0284 83.2927 77.8395C83.4816 77.6507 83.7377 77.5446 84.0048 77.5446C84.2719 77.5446 84.528 77.6507 84.7169 77.8395C84.9058 78.0284 85.0119 78.2845 85.0119 78.5516Z" fill="#3F3D56"/>
<path d="M86.4217 74.9261H96.0896C97.0511 74.9261 97.9733 75.3081 98.6532 75.988C99.3331 76.6679 99.7151 77.5901 99.7151 78.5516H82.7963C82.7963 77.5901 83.1782 76.6679 83.8581 75.988C84.538 75.3081 85.4602 74.9261 86.4217 74.9261Z" fill="#3F3D56"/>
<path d="M100.924 85.6011H84.0048C83.7377 85.6011 83.4815 85.495 83.2926 85.3061C83.1038 85.1172 82.9977 84.8611 82.9977 84.594C82.9977 84.3269 83.1038 84.0707 83.2926 83.8819C83.4815 83.693 83.7377 83.5869 84.0048 83.5869H100.924C101.191 83.5869 101.447 83.693 101.636 83.8819C101.825 84.0707 101.931 84.3269 101.931 84.594C101.931 84.8611 101.825 85.1172 101.636 85.3061C101.447 85.495 101.191 85.6011 100.924 85.6011Z" fill="#3F3D56"/>
<path d="M22.2255 79.7968H39.2908C39.9582 79.7968 40.4993 79.2557 40.4993 78.5883V78.2221C40.4993 77.5546 39.9582 77.0136 39.2908 77.0136H22.2255C21.5581 77.0136 21.017 77.5546 21.017 78.2221V78.5883C21.017 79.2557 21.5581 79.7968 22.2255 79.7968Z" fill="#3F3D56"/>
<path d="M22.0497 78.4214L21.7408 79.6943L20.6075 84.3564L20.1188 86.3706L17.8495 95.7135V99.7673C17.8501 99.9658 17.7912 100.16 17.6804 100.325C17.5932 100.458 17.4747 100.567 17.3353 100.644H16.3497C16.2102 100.567 16.0917 100.458 16.0046 100.325C15.8937 100.16 15.8348 99.9658 15.8354 99.7673V95.4718L18.3571 85.0923L19.9846 78.3892L14.4658 52.1717C14.4385 52.0423 14.4369 51.9088 14.4613 51.7788C14.4856 51.6488 14.5353 51.5249 14.6075 51.4141C14.6798 51.3034 14.7731 51.2079 14.8823 51.1332C14.9915 51.0586 15.1143 51.0062 15.2437 50.979C15.3731 50.9518 15.5066 50.9504 15.6366 50.9749C15.7666 50.9993 15.8905 51.0492 16.0011 51.1215C16.1118 51.1939 16.2072 51.2874 16.2817 51.3966C16.3563 51.5059 16.4086 51.6287 16.4356 51.7582L21.5368 75.9856L21.7718 77.1028L22.0456 78.4053L22.0497 78.4214Z" fill="#3F3D56"/>
<path d="M40.1152 78.4053V99.7673C40.1158 99.9658 40.0569 100.16 39.946 100.325C39.8589 100.458 39.7404 100.567 39.6009 100.644H38.614C38.4752 100.567 38.3572 100.457 38.2702 100.325C38.1594 100.16 38.1005 99.9657 38.1011 99.7673V78.4053C38.1011 78.1382 38.2072 77.882 38.396 77.6932C38.5849 77.5043 38.8411 77.3982 39.1082 77.3982C39.3752 77.3982 39.6314 77.5043 39.8203 77.6932C40.0091 77.882 40.1152 78.1382 40.1152 78.4053Z" fill="#3F3D56"/>
<path d="M40.4993 78.4052H21.017V77.8558C21.017 77.3797 21.1108 76.9083 21.293 76.4684C21.4752 76.0286 21.7422 75.6289 22.0789 75.2922C22.4155 74.9556 22.8152 74.6885 23.2551 74.5063C23.6949 74.3241 24.1664 74.2304 24.6425 74.2304H36.8738C37.8353 74.2304 38.7575 74.6123 39.4374 75.2922C40.1173 75.9721 40.4993 76.8943 40.4993 77.8558L40.4993 78.4052Z" fill="#3F3D56"/>
<path d="M39.1076 86.3701H19.6254C19.3583 86.3701 19.1021 86.264 18.9133 86.0751C18.7244 85.8863 18.6183 85.6301 18.6183 85.363C18.6183 85.0959 18.7244 84.8398 18.9133 84.6509C19.1021 84.4621 19.3583 84.356 19.6254 84.356H39.1076C39.3747 84.356 39.6309 84.4621 39.8197 84.6509C40.0086 84.8398 40.1147 85.0959 40.1147 85.363C40.1147 85.6301 40.0086 85.8863 39.8197 86.0751C39.6309 86.264 39.3747 86.3701 39.1076 86.3701Z" fill="#3F3D56"/>
<path d="M64.1455 95.155L62.0289 94.1427L64.9364 85.2954L68.0605 86.7894L64.1455 95.155Z" fill="#9E616A"/>
<path d="M78.49 94.3537L76.2141 94.9152L72.9164 86.2078L76.2757 85.3789L78.49 94.3537Z" fill="#9E616A"/>
<path d="M69.7665 56.7004C70.0684 57.1907 70.55 57.5436 71.1085 57.6837C71.667 57.8238 72.2581 57.7401 72.7557 57.4503C72.8558 57.3898 72.9507 57.321 73.0394 57.2448L79.7312 61.0851L79.4406 57.1429L73.1305 54.1005C72.7871 53.7556 72.339 53.5344 71.8564 53.4715C71.3738 53.4087 70.884 53.5077 70.4638 53.7532C70.2218 53.8985 70.0114 54.0907 69.8449 54.3185C69.6783 54.5464 69.5591 54.8052 69.4941 55.0799C69.4291 55.3545 69.4197 55.6394 69.4665 55.9177C69.5133 56.196 69.6153 56.4621 69.7665 56.7004Z" fill="#9E616A"/>
<path d="M76.8542 59.639L78.0372 60.3599L83.3496 63.5994C83.6986 63.8178 84.0872 63.9652 84.4931 64.0332C84.8991 64.1013 85.3145 64.0887 85.7156 63.9961C86.1166 63.9035 86.4955 63.7328 86.8306 63.4937C87.1657 63.2546 87.4503 62.9518 87.6683 62.6026C88.0616 61.9546 88.2008 61.1837 88.0589 60.439L85.6978 48.6425C85.6105 48.1795 85.4243 47.7407 85.1519 47.3561C84.8795 46.9716 84.5272 46.6505 84.1193 46.4146C83.7113 46.1788 83.2572 46.0338 82.7881 45.9896C82.3189 45.9455 81.8457 46.0031 81.4009 46.1586C80.6532 46.4213 80.0337 46.9591 79.6684 47.6624C79.3031 48.3657 79.2195 49.1818 79.4346 49.9446L81.9036 58.3163L78.119 56.5518L76.8542 59.639Z" fill="#E6E6E6"/>
<path d="M74.0575 91.9135L70.4154 84.609L70.4159 84.5923L70.7755 71.1947C70.7799 71.0755 70.7896 70.9558 70.8041 70.8381C70.8676 70.3009 71.0375 69.7817 71.3037 69.3108C71.5699 68.8399 71.9272 68.4267 72.3548 68.0954C72.7642 67.775 73.2334 67.5393 73.7349 67.4022C74.2364 67.265 74.7602 67.2291 75.2758 67.2965L85.6902 68.6443L86.0514 67.1674L86.1187 67.1429L96.0973 63.4858L96.1548 63.5795C97.4617 65.7059 98.3753 69.9535 98.6242 71.2047L98.6278 71.2227C98.633 71.2491 98.6362 71.2651 98.6372 71.2697C99.1509 73.4048 97.0284 76.9417 94.9139 77.4733C90.4599 78.6086 86.4765 77.7231 81.8642 76.6975C80.2102 76.3296 78.5009 75.9495 76.6181 75.6208L76.6741 76.7289C76.7199 77.5818 76.8971 78.4225 77.1994 79.2214C77.5351 80.2046 77.8003 80.9812 77.2395 82.6005L76.9683 83.3838C77.109 83.7726 77.1574 84.1889 77.1098 84.5997C77.0621 85.0104 76.9197 85.4046 76.6938 85.7509L76.6393 85.8342L79.0411 91.9121L74.0575 91.9135Z" fill="#2F2E41"/>
<path d="M68.0734 88.6831L63.7302 88.2794L65.2689 83.3586C65.5864 80.1455 66.3865 76.9987 67.6421 74.0241L69.7409 69.0503C69.7458 68.9396 69.7551 68.8282 69.7686 68.719C69.8321 68.1818 70.0019 67.6627 70.2682 67.1918C70.5344 66.7209 70.8917 66.3077 71.3193 65.9764C71.7288 65.6561 72.198 65.4206 72.6994 65.2834C73.2009 65.1463 73.7247 65.1103 74.2402 65.1776L84.6393 66.5234L85.0922 62.7219L95.0736 61.3862L95.1193 61.4606C96.8639 64.2992 97.9715 66.5214 98.605 68.4542C98.6368 68.5527 98.665 68.6533 98.6891 68.7535C99.2063 70.903 97.9152 73.0823 95.8111 73.6114C90.4488 74.9786 84.0005 74.9406 75.5224 73.4914L71.4193 83.2559C71.0272 84.1885 70.5416 85.0791 69.9701 85.914L68.0734 88.6831Z" fill="#2F2E41"/>
<path d="M83.223 39.3885C86.0015 39.3885 88.254 37.0858 88.254 34.2454C88.254 31.4049 86.0015 29.1023 83.223 29.1023C80.4445 29.1023 78.192 31.4049 78.192 34.2454C78.192 37.0858 80.4445 39.3885 83.223 39.3885Z" fill="#9E616A"/>
<path d="M84.6757 66.7029L83.9538 64.1169L83.7764 62.8412L82.7388 62.8759L80.7025 58.1757L79.9116 56.9364C79.7503 56.7665 79.6042 56.6032 79.4733 56.4465C78.6492 55.515 77.9884 54.451 77.5188 53.2994C77.1898 52.4719 76.9966 51.5968 76.9467 50.7077C76.7991 48.0816 77.9062 45.3032 80.3312 42.2142C80.2915 42.1048 80.265 41.9911 80.2523 41.8755C80.2089 41.5002 80.3155 41.123 80.5488 40.8259C80.7821 40.5289 81.1233 40.3359 81.4981 40.2891L83.8371 40.0265C84.019 40.0059 84.2032 40.0216 84.3789 40.0729C84.5546 40.1241 84.7184 40.2098 84.8607 40.3249C85.0093 40.444 85.1327 40.5915 85.2237 40.7587C85.3147 40.926 85.3715 41.1097 85.3908 41.2991C85.4222 41.5922 85.3645 41.8879 85.2254 42.1477C86.4177 42.299 87.5409 42.7911 88.4605 43.5649C89.3801 44.3387 90.0569 45.3613 90.4098 46.5101C91.8094 49.1229 92.9249 51.8782 93.7373 54.7287C93.8974 55.287 93.8261 55.8623 93.7572 56.4186C93.6935 56.9325 93.6276 57.4639 93.7384 57.9935C93.851 58.5322 94.122 59.0726 94.409 59.6447C94.7376 60.3 95.0774 60.9775 95.1693 61.6682L95.1758 61.7167L84.6757 66.7029Z" fill="#E4E4E4"/>
<path opacity="0.2" d="M77.5809 53.2739C78.0484 54.4188 78.7055 55.4768 79.5247 56.4033C79.665 56.5708 79.8132 56.7354 79.9682 56.9003L80.7641 58.149C83.6978 55.95 86.0747 47.2917 86.0747 47.2917L82.7646 46.6478L77.5809 53.2739Z" fill="black"/>
<path d="M75.577 39.869C75.8668 40.3669 75.951 40.9582 75.8115 41.5172C75.672 42.0762 75.3199 42.5586 74.8301 42.862C74.7296 42.9221 74.6243 42.9737 74.5152 43.0164L74.7495 50.7286L71.4098 48.6262L71.6993 41.6249C71.5572 41.159 71.5733 40.6592 71.7452 40.2034C71.917 39.7477 72.2349 39.3616 72.6492 39.1055C72.8906 38.9595 73.1587 38.8634 73.4378 38.8228C73.717 38.7822 74.0014 38.7979 74.2743 38.8691C74.5472 38.9403 74.8031 39.0654 75.0269 39.2372C75.2506 39.4089 75.4377 39.6237 75.577 39.869Z" fill="#9E616A"/>
<path d="M75.0431 47.8174L71.3704 48.3397L71.5283 55.9453C71.5374 56.4879 71.6852 57.0191 71.9575 57.4885C72.2298 57.9579 72.6176 58.3498 73.084 58.6271C73.6539 58.9624 74.3173 59.1034 74.9742 59.0288C75.6311 58.9542 76.246 58.6681 76.7262 58.2136L85.3971 49.8734C86.0072 49.2947 86.3723 48.5041 86.4174 47.6644C86.4624 46.8247 86.184 45.9997 85.6394 45.359C85.3699 45.04 85.039 44.7783 84.6665 44.5896C84.2939 44.4009 83.8872 44.289 83.4706 44.2605C83.054 44.2319 82.6358 44.2874 82.241 44.4235C81.8462 44.5597 81.4828 44.7738 81.1723 45.0531C81.0866 45.1297 81.0051 45.2109 80.9282 45.2963L75.2027 51.8829L75.0431 47.8174Z" fill="#E6E6E6"/>
<path d="M44.3251 97.4265L46.9319 97.4264L48.1721 87.3712L44.3247 87.3714L44.3251 97.4265Z" fill="#FFB6B6"/>
<path d="M29.5489 39.5378C32.4225 39.5378 34.7519 37.2084 34.7519 34.3348C34.7519 31.4613 32.4225 29.1318 29.5489 29.1318C26.6754 29.1318 24.3459 31.4613 24.3459 34.3348C24.3459 37.2084 26.6754 39.5378 29.5489 39.5378Z" fill="#FFB6B6"/>
<path d="M47.7827 94.3291H44.0912L43.15 93.0676L42.8953 91.879L42.676 91.6668C42.3786 91.3813 42.1863 91.0037 42.1303 90.5953C42.0743 90.1868 42.1579 89.7714 42.3675 89.4163L39.692 76.9338C38.9914 76.8722 31.0891 76.1657 25.5959 75.1935C24.1901 74.9447 23.0925 74.2613 22.3336 73.1624C20.4688 70.462 21.2677 66.0927 21.2759 66.0489L21.2852 66.0001L21.3344 65.9946L34.1651 64.5544L34.1824 64.5626C34.6082 64.7643 44.6293 69.5217 46.2669 71.1593C47.0064 71.8988 48.6562 76.2923 49.0256 80.9633C49.0917 81.8 48.8536 82.6522 48.6233 83.4764C48.4079 84.2475 48.1851 85.0448 48.2291 85.7986C48.2971 86.9617 48.3614 88.1817 48.4205 89.4248C48.4299 89.6229 48.5791 89.8279 48.7235 90.0261C48.8742 90.2332 49.0166 90.4288 49.0257 90.6335C49.1134 92.6186 47.8159 94.2869 47.8028 94.3035L47.7827 94.3291Z" fill="#2F2E41"/>
<path d="M48.6233 48.193C48.3438 48.1166 48.0509 48.1023 47.7653 48.1514C47.4798 48.2004 47.2084 48.3114 46.9704 48.4766C46.7323 48.6419 46.5334 48.8573 46.3877 49.1077C46.2419 49.3581 46.1528 49.6375 46.1267 49.9261L41.8036 51.2772L41.9839 54.1046L48.0622 52.1108C48.5499 52.1225 49.0249 51.955 49.3974 51.6399C49.7698 51.3248 50.0137 50.884 50.0829 50.4011C50.1521 49.9182 50.0417 49.4267 49.7727 49.0197C49.5037 48.6127 49.0947 48.3186 48.6233 48.193Z" fill="#FFB6B6"/>
<path d="M45.8027 52.8717L42.5717 54.0946L42.4891 54.2549C42.291 54.6392 41.9484 54.929 41.5366 55.0607C41.1248 55.1923 40.6776 55.155 40.2933 54.957L33.0311 57.7056C33.0311 57.7056 29.7879 54.4601 27.4789 51.5637L28.2658 46.7233C28.4481 45.6002 28.8355 44.5203 29.4087 43.5375C34.1441 44.5759 36.8623 51.1955 36.8623 51.1955L45.3967 49.5671L45.8027 52.8717Z" fill="#E73B3B"/>
<path d="M28.8095 39.2596C27.507 39.6114 26.0709 39.1437 25.0544 38.2565C24.0379 37.3693 23.402 36.1122 23.0356 34.8137C22.7673 33.8626 22.64 32.807 23.0635 31.9141C23.4869 31.0213 24.6266 30.4189 25.5058 30.8699C24.9634 30.238 25.2344 29.1928 25.8679 28.6522C26.5013 28.1116 27.3712 27.9566 28.1997 27.8719C29.402 27.749 30.6439 27.7352 31.788 28.1247C32.9322 28.5142 33.9717 29.3658 34.3298 30.5202C34.6955 30.6905 35.1073 30.7346 35.5008 30.6458C35.8943 30.5569 36.2472 30.3401 36.5043 30.0292C36.5706 30.3863 36.5174 30.7552 36.3529 31.079C36.1883 31.4027 35.9217 31.6632 35.5942 31.8202L37.3472 31.2518C37.6487 31.89 37.1204 32.6798 36.4449 32.8841C35.7694 33.0885 35.0402 32.8651 34.3991 32.5699C33.7581 32.2746 33.1368 31.9014 32.4405 31.7862C31.7442 31.6711 30.9263 31.8948 30.6042 32.5228C30.4355 32.8517 30.4267 33.237 30.3288 33.5934C30.2308 33.9499 29.9827 34.3194 29.6142 34.3486C29.3814 34.367 29.1535 34.243 28.9213 34.2683C28.6335 34.2998 28.4132 34.5605 28.3365 34.8397C28.2787 35.1243 28.278 35.4174 28.3344 35.7022L28.7797 39.1059" fill="#2F2E41"/>
<path d="M22.3636 73.7841C22.3626 73.7841 22.3617 73.784 22.3607 73.7838L22.3196 73.7767L22.3077 73.7368C22.1581 73.2336 21.9677 72.7186 21.7836 72.2205C21.5125 71.5307 21.2836 70.8251 21.0982 70.1075C20.9522 69.4214 20.851 68.7266 20.7952 68.0275C20.7438 67.5199 20.6907 66.9949 20.6004 66.4782C20.5603 66.2488 20.7123 66.0315 20.8592 65.8214C20.9955 65.6266 21.1242 65.4426 21.0972 65.2685C21.0696 65.0905 20.8721 64.895 20.6812 64.7059C20.472 64.4986 20.2556 64.2843 20.2249 64.0588C19.8079 60.9811 19.6137 57.8774 19.6441 54.7717C19.6872 50.4748 19.8814 47.546 20.2212 46.0665C21.1351 42.0883 25.3571 41.3623 26.018 41.2727C26.0884 41.0852 26.1966 40.9142 26.3359 40.7703C26.4752 40.6265 26.6427 40.5129 26.8278 40.4365C27.0129 40.3602 27.2118 40.3227 27.412 40.3266C27.6122 40.3304 27.8095 40.3754 27.9916 40.4587L30.9915 41.832C31.6 42.1115 32.1445 42.5132 32.5912 43.0121C33.0379 43.511 33.3772 44.0964 33.5881 44.732L34.0337 46.0905L34.2569 55.2105L33.0199 61.6327L35.4369 65.2582C22.5553 72.3305 22.4051 73.7841 22.3636 73.7841Z" fill="#E73B3B"/>
<path d="M42.9224 96.4134L43.7699 96.4134L47.079 95.0676L48.8526 96.4131H48.8528C49.8551 96.4132 50.8163 96.8114 51.525 97.5201C52.2338 98.2288 52.6319 99.19 52.632 100.192V100.315L42.9225 100.315L42.9224 96.4134Z" fill="#2F2E41"/>
<path d="M49.7058 54.701C49.4559 54.5543 49.1769 54.4642 48.8884 54.437C48.5999 54.4098 48.309 54.4462 48.0361 54.5436C47.7632 54.641 47.515 54.7971 47.3089 55.0008C47.1028 55.2045 46.944 55.4509 46.8434 55.7227L42.3176 55.8992L41.7078 58.0073L48.1419 58.3367C48.6097 58.4753 49.112 58.4375 49.5537 58.2305C49.9955 58.0235 50.346 57.6616 50.5387 57.2134C50.7315 56.7653 50.7532 56.262 50.5996 55.7989C50.4461 55.3359 50.1281 54.9452 49.7058 54.701Z" fill="#FFB6B6"/>
<path d="M45.9881 58.564L41.3391 58.5061L40.7506 58.4981L31.292 58.3789C31.292 58.3789 28.7235 55.9285 26.4869 53.4056L26.8004 51.1382C27.1062 48.9129 28.2101 46.8746 29.9065 45.4025C33.1098 47.5429 34.9675 51.7796 34.9675 51.7796L38.0822 53.1734C40.2743 53.2714 42.4102 53.897 44.3089 54.9969L45.3332 55.5903L45.9881 58.564Z" fill="#E73B3B"/>
<path d="M80.1509 98.6425L78.604 99.0243L77.9675 97.632L77.6208 99.2669L73.5181 100.279C73.3215 100.328 73.1145 100.312 72.9273 100.235C72.7401 100.157 72.5826 100.022 72.4778 99.8489C72.3729 99.6756 72.3262 99.4733 72.3444 99.2716C72.3627 99.0699 72.4449 98.8793 72.5792 98.7276L75.297 95.6564L74.9327 94.1799L78.4295 93.5352L80.1509 98.6425Z" fill="#2F2E41"/>
<path d="M63.7635 99.1199L62.2884 98.5178L62.5936 97.0177L61.3508 98.1351L57.4384 96.5382C57.2508 96.4616 57.0927 96.3271 56.987 96.1543C56.8813 95.9816 56.8336 95.7795 56.8509 95.5777C56.8681 95.3759 56.9495 95.1849 57.083 95.0325C57.2165 94.8802 57.3952 94.7746 57.593 94.731L61.5981 93.8485L62.1728 92.4406L65.3789 93.978L63.7635 99.1199Z" fill="#2F2E41"/>
<path d="M58.6265 58.0744H57.418C56.1187 58.0729 54.8729 57.5561 53.9541 56.6373C53.0353 55.7185 52.5184 54.4727 52.517 53.1733V53.1062H63.5276V53.1733C63.5261 54.4727 63.0093 55.7185 62.0905 56.6373C61.1717 57.5561 59.9259 58.0729 58.6265 58.0744Z" fill="#E4E4E4"/>
<path d="M57.4181 51.3607C57.4181 51.6944 56.8138 51.965 56.8138 51.965C56.8138 51.965 56.2096 51.6944 56.2096 51.3607C56.2096 51.027 56.8138 50.7565 56.8138 50.7565C56.8138 50.7565 57.4181 51.027 57.4181 51.3607Z" fill="#3F3D56"/>
<path d="M61.0436 51.3607C61.0436 51.6944 60.4393 51.965 60.4393 51.965C60.4393 51.965 59.8351 51.6944 59.8351 51.3607C59.8351 51.027 60.4393 50.7565 60.4393 50.7565C60.4393 50.7565 61.0436 51.027 61.0436 51.3607Z" fill="#3F3D56"/>
<path d="M58.6266 52.5691C58.6266 52.9028 58.0223 53.1733 58.0223 53.1733C58.0223 53.1733 57.4181 52.9028 57.4181 52.5691C57.4181 52.2354 58.0223 51.9648 58.0223 51.9648C58.0223 51.9648 58.6266 52.2354 58.6266 52.5691Z" fill="#3F3D56"/>
<path d="M54.3968 50.0851C54.7306 50.0851 55.0011 49.8145 55.0011 49.4808C55.0011 49.1471 54.7306 48.8766 54.3968 48.8766C54.0631 48.8766 53.7926 49.1471 53.7926 49.4808C53.7926 49.8145 54.0631 50.0851 54.3968 50.0851Z" fill="#3F3D56"/>
<path d="M45.609 48.1823L55.139 49.4984C55.2252 49.5103 55.3081 49.5396 55.3827 49.5844C55.4573 49.6292 55.522 49.6887 55.573 49.7593C55.6239 49.8298 55.6601 49.91 55.6792 49.9949C55.6983 50.0798 55.7 50.1677 55.6842 50.2533C55.6684 50.3389 55.6354 50.4203 55.5873 50.4928C55.5391 50.5653 55.4767 50.6273 55.4039 50.675C55.3311 50.7227 55.2494 50.7551 55.1637 50.7704C55.0781 50.7856 54.9902 50.7834 54.9054 50.7637L45.5338 48.5901C45.4817 48.578 45.4363 48.5464 45.407 48.5017C45.3777 48.457 45.3668 48.4027 45.3765 48.3502C45.3862 48.2977 45.4158 48.2509 45.4591 48.2196C45.5024 48.1883 45.5561 48.1749 45.609 48.1823Z" fill="#E4E4E4"/>
<path d="M57.1896 18.1559V0H55.9812V18.1559C54.33 18.3065 52.7947 19.0689 51.6768 20.2934C50.5588 21.5178 49.9389 23.1159 49.9387 24.7739V26.5867H54.1684C54.1684 27.2277 54.4231 27.8425 54.8763 28.2957C55.3296 28.749 55.9444 29.0037 56.5854 29.0037C57.2264 29.0037 57.8412 28.749 58.2944 28.2957C58.7477 27.8425 59.0024 27.2277 59.0024 26.5867H63.2321V24.774C63.2319 23.1159 62.612 21.5178 61.494 20.2934C60.3761 19.0689 58.8408 18.3065 57.1896 18.1559Z" fill="#F0F0F0"/>
<path d="M72.7489 13.6169V0H71.8425V13.6169C70.6041 13.7299 69.4527 14.3017 68.6142 15.22C67.7758 16.1384 67.3108 17.3369 67.3107 18.5805V19.94H70.4829C70.4829 20.4208 70.6739 20.8819 71.0139 21.2218C71.3538 21.5618 71.8149 21.7527 72.2957 21.7527C72.7764 21.7527 73.2375 21.5618 73.5775 21.2218C73.9174 20.8819 74.1084 20.4208 74.1084 19.94H77.2807V18.5805C77.2805 17.3369 76.8156 16.1384 75.9771 15.22C75.1387 14.3017 73.9872 13.7299 72.7489 13.6169Z" fill="#F0F0F0"/>
<path d="M42.1339 13.6169V0H41.2275V13.6169C39.9891 13.7299 38.8377 14.3017 37.9992 15.22C37.1608 16.1384 36.6958 17.3369 36.6957 18.5805V19.94H39.868C39.868 20.4208 40.0589 20.8819 40.3989 21.2218C40.7388 21.5618 41.1999 21.7527 41.6807 21.7527C42.1614 21.7527 42.6225 21.5618 42.9625 21.2218C43.3024 20.8819 43.4934 20.4208 43.4934 19.94H46.6657V18.5805C46.6655 17.3369 46.2006 16.1384 45.3621 15.22C44.5237 14.3017 43.3723 13.7299 42.1339 13.6169Z" fill="#F0F0F0"/>
<path d="M96.6854 32.0148C95.8302 31.0176 95.4237 29.6945 94.74 28.5621C94.0564 27.4296 92.8667 26.4161 91.6099 26.6796C90.7435 26.8613 90.074 27.6258 89.735 28.4781C89.3961 29.3304 89.3326 30.2704 89.2732 31.1912C89.2942 29.2989 88.0475 27.4644 86.3301 26.8606C84.6128 26.2567 82.5575 26.9303 81.4784 28.4505C81.0075 28.0141 80.3928 27.7655 79.7508 27.752C79.1089 27.7386 78.4843 27.9611 77.9955 28.3774C77.0302 29.2401 76.8166 30.8821 77.5265 31.9825C78.2364 33.0829 79.7737 33.4928 80.9018 32.8825L81.3007 33.2494C81.0762 34.0346 81.5115 34.9621 82.2434 35.2576C82.8368 35.4973 83.6746 35.4574 83.8966 36.0802C84.0518 36.5154 83.7618 36.9798 83.4532 37.3142C83.1447 37.6486 82.7784 37.9939 82.7414 38.4566C82.6854 39.1547 83.4069 39.6438 84.0627 39.7911C85.6441 40.1463 87.3988 39.414 88.3103 38.0183C88.3279 37.9914 88.347 37.9645 88.3676 37.9375C88.879 37.2835 89.2517 36.5322 89.4629 35.7293C89.6741 34.9264 89.7193 34.089 89.596 33.268C89.5447 32.9454 89.5964 32.7055 89.8188 32.6291C90.78 32.2989 93.4731 32.9919 94.2882 33.6183C95.1033 34.2446 95.756 35.0734 96.541 35.7402C97.3262 36.4069 98.3266 36.9212 99.3235 36.7396C100.122 36.5942 100.801 36.0146 101.258 35.3155C101.715 34.6163 101.978 33.8014 102.213 32.9915C100.448 34.0114 98.0314 33.5845 96.6854 32.0148Z" fill="#2F2E41"/>
</g>
<defs>
<clipPath id="clip0_428_3595">
<rect width="120" height="100.644" fill="white"/>
</clipPath>
</defs>
</svg>
