<svg width="40" height="40" viewBox="0 0 40 40" fill="none" xmlns="http://www.w3.org/2000/svg">
<g clip-path="url(#clip0_471_12696)">
<rect width="40" height="40" rx="9.77778" fill="#E73B3B"/>
<mask id="path-2-outside-1_471_12696" maskUnits="userSpaceOnUse" x="-13.1916" y="-1.40619" width="55.1543" height="55.1543" fill="black">
<rect fill="white" x="-13.1916" y="-1.40619" width="55.1543" height="55.1543"/>
<path fill-rule="evenodd" clip-rule="evenodd" d="M28.3549 11.856C26.6192 10.1203 23.8052 10.1203 22.0695 11.856L18.9268 14.9987L18.9267 14.9986C18.649 15.2763 18.1988 15.2762 17.9212 14.9986C17.6434 14.7209 17.6434 14.2706 17.9212 13.9929L17.932 13.9823L21.0638 10.8505C22.7995 9.1148 22.7995 6.30073 21.0638 4.56507C19.3282 2.82941 16.5141 2.8294 14.7784 4.56507L11.6358 7.7077L11.6357 7.70765L5.22463 14.1187C1.40002 17.9434 1.08695 23.9498 4.28544 28.1316L-0.180794 32.5978C-2.26359 34.6806 -2.2636 38.0575 -0.180799 40.1403L-0.0550882 40.266C2.02771 42.3488 5.40459 42.3488 7.48739 40.266L11.938 35.8154C16.1248 39.1306 22.2242 38.8542 26.0921 34.9863L32.5032 28.5752L35.6459 25.4324C37.3816 23.6968 37.3816 20.8827 35.6459 19.147C33.9103 17.4114 31.0962 17.4114 29.3606 19.147L26.2178 22.2898L26.2178 22.2897C25.9401 22.5673 25.4899 22.5673 25.2122 22.2896C24.9345 22.0119 24.9345 21.5617 25.2122 21.284C25.2145 21.2816 25.2169 21.2793 25.2192 21.277L28.3549 18.1414C30.0906 16.4057 30.0906 13.5916 28.3549 11.856Z"/>
</mask>
<path fill-rule="evenodd" clip-rule="evenodd" d="M28.3549 11.856C26.6192 10.1203 23.8052 10.1203 22.0695 11.856L18.9268 14.9987L18.9267 14.9986C18.649 15.2763 18.1988 15.2762 17.9212 14.9986C17.6434 14.7209 17.6434 14.2706 17.9212 13.9929L17.932 13.9823L21.0638 10.8505C22.7995 9.1148 22.7995 6.30073 21.0638 4.56507C19.3282 2.82941 16.5141 2.8294 14.7784 4.56507L11.6358 7.7077L11.6357 7.70765L5.22463 14.1187C1.40002 17.9434 1.08695 23.9498 4.28544 28.1316L-0.180794 32.5978C-2.26359 34.6806 -2.2636 38.0575 -0.180799 40.1403L-0.0550882 40.266C2.02771 42.3488 5.40459 42.3488 7.48739 40.266L11.938 35.8154C16.1248 39.1306 22.2242 38.8542 26.0921 34.9863L32.5032 28.5752L35.6459 25.4324C37.3816 23.6968 37.3816 20.8827 35.6459 19.147C33.9103 17.4114 31.0962 17.4114 29.3606 19.147L26.2178 22.2898L26.2178 22.2897C25.9401 22.5673 25.4899 22.5673 25.2122 22.2896C24.9345 22.0119 24.9345 21.5617 25.2122 21.284C25.2145 21.2816 25.2169 21.2793 25.2192 21.277L28.3549 18.1414C30.0906 16.4057 30.0906 13.5916 28.3549 11.856Z" fill="white"/>
<path d="M22.0695 11.856L20.8124 10.5989L22.0695 11.856ZM18.9268 14.9987L17.6697 16.2558C18.0031 16.5892 18.4553 16.7765 18.9268 16.7765C19.3983 16.7765 19.8505 16.5892 20.1839 16.2558L18.9268 14.9987ZM18.9267 14.9986L20.1838 13.7416C19.4896 13.0474 18.3642 13.0473 17.6699 13.7414L18.9267 14.9986ZM17.9212 13.9929L16.6772 12.7228C16.6728 12.7271 16.6684 12.7315 16.6641 12.7358L17.9212 13.9929ZM17.932 13.9823L19.1759 15.2524C19.1803 15.2481 19.1847 15.2438 19.189 15.2394L17.932 13.9823ZM21.0638 10.8505L19.8067 9.59338L21.0638 10.8505ZM14.7784 4.56507L13.5213 3.30799L14.7784 4.56507ZM11.6358 7.7077L10.3787 8.96478C10.7121 9.29818 11.1643 9.48548 11.6358 9.48548C12.1073 9.48548 12.5595 9.29818 12.8929 8.96478L11.6358 7.7077ZM11.6357 7.70765L12.8928 6.45057C12.5594 6.11717 12.1072 5.92987 11.6357 5.92987C11.1642 5.92987 10.7121 6.11717 10.3787 6.45057L11.6357 7.70765ZM5.22463 14.1187L6.48171 15.3758L5.22463 14.1187ZM4.28544 28.1316L5.54252 29.3887C6.17262 28.7586 6.23889 27.7593 5.69753 27.0515L4.28544 28.1316ZM-0.180794 32.5978L1.07628 33.8549L-0.180794 32.5978ZM-0.180799 40.1403L-1.43788 41.3974L-0.180799 40.1403ZM-0.0550882 40.266L1.20199 39.0089L-0.0550882 40.266ZM11.938 35.8154L13.0415 34.4217C12.334 33.8615 11.319 33.9202 10.6809 34.5584L11.938 35.8154ZM26.0921 34.9863L27.3492 36.2433L26.0921 34.9863ZM32.5032 28.5752L33.7603 29.8322L33.7603 29.8322L32.5032 28.5752ZM35.6459 25.4324L34.3889 24.1754L34.3889 24.1754L35.6459 25.4324ZM29.3606 19.147L30.6176 20.4041L29.3606 19.147ZM26.2178 22.2898L24.9608 23.5468C25.655 24.2411 26.7807 24.2411 27.4749 23.5468L26.2178 22.2898ZM26.2178 22.2897L27.4749 21.0326C26.7807 20.3384 25.6552 20.3383 24.9609 21.0324L26.2178 22.2897ZM25.2192 21.277L26.4594 22.5508C26.465 22.5453 26.4707 22.5397 26.4763 22.5341L25.2192 21.277ZM28.3549 18.1414L27.0978 16.8843L28.3549 18.1414ZM23.3266 13.1131C24.368 12.0717 26.0564 12.0717 27.0978 13.1131L29.612 10.5989C27.182 8.16898 23.2423 8.16898 20.8124 10.5989L23.3266 13.1131ZM20.1839 16.2558L23.3266 13.1131L20.8124 10.5989L17.6697 13.7416L20.1839 16.2558ZM17.6697 16.2557L17.6697 16.2558L20.1839 13.7416L20.1838 13.7416L17.6697 16.2557ZM16.6641 16.2556C17.636 17.2275 19.2116 17.2276 20.1836 16.2559L17.6699 13.7414C18.0864 13.3249 18.7617 13.325 19.1782 13.7415L16.6641 16.2556ZM16.6641 12.7358C15.6921 13.7078 15.6921 15.2837 16.6641 16.2556L19.1782 13.7415C19.5948 14.158 19.5948 14.8334 19.1782 15.25L16.6641 12.7358ZM16.688 12.7122L16.6772 12.7228L19.1651 15.263L19.1759 15.2524L16.688 12.7122ZM19.8067 9.59338L16.6749 12.7252L19.189 15.2394L22.3209 12.1075L19.8067 9.59338ZM19.8067 5.82215C20.8481 6.86354 20.8481 8.55199 19.8067 9.59338L22.3209 12.1075C24.7508 9.67761 24.7508 5.73792 22.3209 3.30799L19.8067 5.82215ZM16.0355 5.82215C17.0769 4.78075 18.7653 4.78075 19.8067 5.82215L22.3209 3.30799C19.891 0.878062 15.9513 0.878059 13.5213 3.30799L16.0355 5.82215ZM12.8929 8.96478L16.0355 5.82215L13.5213 3.30799L10.3787 6.45062L12.8929 8.96478ZM10.3787 8.96473L10.3787 8.96478L12.8929 6.45062L12.8928 6.45057L10.3787 8.96473ZM6.48171 15.3758L12.8928 8.96473L10.3787 6.45057L3.96756 12.8617L6.48171 15.3758ZM5.69753 27.0515C3.0332 23.5681 3.29554 18.562 6.48171 15.3758L3.96756 12.8617C-0.495509 17.3247 -0.859292 24.3315 2.87336 29.2116L5.69753 27.0515ZM1.07628 33.8549L5.54252 29.3887L3.02836 26.8745L-1.43787 31.3407L1.07628 33.8549ZM1.07628 38.8832C-0.312249 37.4947 -0.312247 35.2434 1.07628 33.8549L-1.43787 31.3407C-4.21493 34.1178 -4.21494 38.6203 -1.43788 41.3974L1.07628 38.8832ZM1.20199 39.0089L1.07628 38.8832L-1.43788 41.3974L-1.31217 41.5231L1.20199 39.0089ZM6.23031 39.0089C4.84178 40.3975 2.59052 40.3975 1.20199 39.0089L-1.31217 41.5231C1.4649 44.3001 5.96741 44.3001 8.74447 41.5231L6.23031 39.0089ZM10.6809 34.5584L6.23031 39.0089L8.74447 41.5231L13.195 37.0725L10.6809 34.5584ZM24.8351 33.7292C21.6127 36.9516 16.5291 37.1831 13.0415 34.4217L10.8344 37.2092C15.7205 41.078 22.8358 40.7568 27.3492 36.2433L24.8351 33.7292ZM31.2462 27.3181L24.8351 33.7292L27.3492 36.2433L33.7603 29.8322L31.2462 27.3181ZM34.3889 24.1754L31.2462 27.3181L33.7603 29.8322L36.903 26.6895L34.3889 24.1754ZM34.3889 20.4041C35.4303 21.4455 35.4303 23.134 34.3889 24.1754L36.903 26.6895C39.333 24.2596 39.333 20.3199 36.903 17.89L34.3889 20.4041ZM30.6176 20.4041C31.659 19.3627 33.3475 19.3627 34.3889 20.4041L36.903 17.89C34.4731 15.46 30.5334 15.46 28.1035 17.89L30.6176 20.4041ZM27.4749 23.5468L30.6176 20.4041L28.1035 17.89L24.9608 21.0327L27.4749 23.5468ZM24.9607 23.5468L24.9608 23.5468L27.4749 21.0327L27.4749 21.0326L24.9607 23.5468ZM24.9609 21.0324C25.3775 20.616 26.0528 20.616 26.4693 21.0325L23.9551 23.5467C24.927 24.5186 26.5027 24.5187 27.4747 23.547L24.9609 21.0324ZM26.4693 21.0325C26.8859 21.4491 26.8859 22.1245 26.4693 22.541L23.9551 20.0269C22.9832 20.9989 22.9832 22.5747 23.9551 23.5467L26.4693 21.0325ZM26.4693 22.541C26.4658 22.5445 26.4625 22.5478 26.4594 22.5508L23.9791 20.0032C23.9713 20.0108 23.9633 20.0187 23.9551 20.0269L26.4693 22.541ZM27.0978 16.8843L23.9621 20.02L26.4763 22.5341L29.612 19.3985L27.0978 16.8843ZM27.0978 13.1131C28.1392 14.1545 28.1392 15.8429 27.0978 16.8843L29.612 19.3985C32.0419 16.9685 32.0419 13.0288 29.612 10.5989L27.0978 13.1131Z" fill="#E73B3B" mask="url(#path-2-outside-1_471_12696)"/>
<circle cx="14.5271" cy="21.1582" r="1.06667" transform="rotate(45 14.5271 21.1582)" fill="#E73B3B"/>
<circle cx="18.9269" cy="25.5581" r="1.06667" transform="rotate(45 18.9269 25.5581)" fill="#E73B3B"/>
<path d="M12.9518 24.8629C13.7061 25.4915 13.7061 25.4915 14.7746 25.4286" stroke="#E73B3B" stroke-width="1.42222" stroke-linecap="round"/>
<path d="M14.7692 25.5708C14.7044 26.5505 14.7044 26.5505 15.3837 27.3777" stroke="#E73B3B" stroke-width="1.42222" stroke-linecap="round"/>
</g>
<defs>
<clipPath id="clip0_471_12696">
<rect width="40" height="40" rx="9.77778" fill="white"/>
</clipPath>
</defs>
</svg>
