<svg width="63" height="38" viewBox="0 0 63 38" fill="none" xmlns="http://www.w3.org/2000/svg">
<g clip-path="url(#clip0_471_12442)">
<path d="M13.4474 12.4961H10.2471C10.1345 12.4961 10.0266 12.5408 9.94703 12.6204C9.86746 12.6999 9.82275 12.8079 9.82275 12.9204V14.3251C9.82275 14.4376 9.86746 14.5456 9.94703 14.6251C10.0266 14.7047 10.1345 14.7494 10.2471 14.7494H10.7774V16.8541H12.917V14.7494H13.4474C13.5599 14.7494 13.6678 14.7047 13.7474 14.6251C13.827 14.5456 13.8717 14.4376 13.8717 14.3251V12.9204C13.8717 12.8079 13.827 12.6999 13.7474 12.6204C13.6678 12.5408 13.5599 12.4961 13.4474 12.4961Z" fill="#E73B3B"/>
<path d="M16.6528 25.3521C14.6929 22.4841 13.6909 19.0694 13.7904 15.5971C13.7922 15.5169 13.7662 15.4387 13.7168 15.3755C13.6675 15.3124 13.5978 15.2683 13.5196 15.2508V14.6438H10.1396V15.2423H10.093C10.0454 15.2424 9.99823 15.2523 9.95455 15.2714C9.91088 15.2905 9.8716 15.3184 9.83919 15.3533C9.80678 15.3883 9.78192 15.4296 9.76617 15.4746C9.75042 15.5195 9.74411 15.5673 9.74764 15.6148C10.0139 19.3267 9.11476 22.6554 7.05016 25.601C6.93136 25.7703 6.87066 25.9735 6.87718 26.1802L7.24677 37.6124C7.25565 37.8674 7.36267 38.1091 7.5455 38.2871C7.72832 38.4651 7.97282 38.5656 8.22796 38.5676H15.8729C16.131 38.5655 16.378 38.4627 16.5614 38.2812C16.7448 38.0996 16.85 37.8536 16.8547 37.5956L16.9971 26.4958C17.0014 26.0884 16.8812 25.6894 16.6528 25.3521Z" fill="#3F3D56"/>
<path opacity="0.2" d="M12.7803 12.9537C12.7803 13.1965 12.6838 13.4294 12.5122 13.601C12.3405 13.7727 12.1077 13.8691 11.8649 13.8691C11.6221 13.8691 11.3893 13.7727 11.2176 13.601C11.0459 13.4294 10.9495 13.1965 10.9495 12.9537" fill="black"/>
<path d="M15.4425 29.1494H14.5168C14.4284 28.5759 14.1377 28.0529 13.6972 27.6752C13.2568 27.2974 12.6956 27.0897 12.1154 27.0897C11.5351 27.0897 10.974 27.2974 10.5335 27.6752C10.0931 28.0529 9.80236 28.5759 9.71398 29.1494H8.78817C8.68967 29.1494 8.59233 29.1707 8.50283 29.2118C8.41333 29.253 8.33379 29.313 8.26965 29.3877C8.20551 29.4625 8.1583 29.5502 8.13125 29.645C8.1042 29.7397 8.09795 29.8391 8.11292 29.9365L9.11849 36.4726H14.8926L16.114 29.9585C16.1325 29.8598 16.129 29.7583 16.1038 29.6611C16.0786 29.5639 16.0323 29.4735 15.9682 29.3963C15.9041 29.319 15.8238 29.2569 15.7329 29.2142C15.6421 29.1715 15.5429 29.1494 15.4425 29.1494Z" fill="#E73B3B"/>
<path d="M50.0573 38.4491C65.093 38.4491 77.2819 26.2603 77.2819 11.2246C77.2819 -3.81115 65.093 -16 50.0573 -16C35.0216 -16 22.8328 -3.81115 22.8328 11.2246C22.8328 26.2603 35.0216 38.4491 50.0573 38.4491Z" fill="#E73B3B"/>
<path opacity="0.2" d="M50.0571 31.0959C45.4598 31.0958 41.0047 29.5018 37.451 26.5852C33.8973 23.6687 31.4647 19.6102 30.5679 15.1013C29.671 10.5923 30.3653 5.91186 32.5325 1.85741C34.6996 -2.19703 38.2056 -5.37461 42.4529 -7.1339C46.7003 -8.8932 51.4262 -9.12535 55.8256 -7.79082C60.2249 -6.45628 64.0254 -3.63763 66.5795 0.184888C69.1336 4.0074 70.2833 8.59726 69.8327 13.1724C69.3821 17.7476 67.359 22.0249 64.1083 25.2757C62.2673 27.1267 60.0775 28.5942 57.6657 29.5932C55.2538 30.5923 52.6677 31.103 50.0571 31.0959ZM50.0571 -7.4212C39.7758 -7.4212 31.4113 0.943241 31.4113 11.2246C31.4113 21.5058 39.7758 29.8703 50.0571 29.8703C60.3384 29.8703 68.7029 21.5058 68.7029 11.2246C68.7029 0.943241 60.3384 -7.4212 50.0571 -7.4212Z" fill="black"/>
<path d="M50.0571 30.4831C60.6933 30.4831 69.3156 21.8608 69.3156 11.2246C69.3156 0.588399 60.6933 -8.03394 50.0571 -8.03394C39.4209 -8.03394 30.7986 0.588399 30.7986 11.2246C30.7986 21.8608 39.4209 30.4831 50.0571 30.4831Z" fill="#3F3D56"/>
<path d="M35.7351 3.52383C35.589 3.23777 35.5008 2.92573 35.4754 2.60555C35.45 2.28537 35.488 1.96332 35.5872 1.65783C35.6863 1.35233 35.8447 1.06937 36.0533 0.825134C36.2619 0.580893 36.5166 0.38016 36.8028 0.234409C37.089 0.088657 37.4011 0.000747774 37.7213 -0.0242966C38.0415 -0.0493409 38.3635 -0.0110273 38.6689 0.0884535C38.9743 0.187934 39.2571 0.346631 39.5011 0.555472C39.7452 0.764313 39.9456 1.0192 40.0911 1.30557L45.5321 11.9901C45.6782 12.2761 45.7664 12.5882 45.7918 12.9083C45.8172 13.2285 45.7792 13.5506 45.68 13.8561C45.5809 14.1616 45.4225 14.4445 45.2139 14.6888C45.0053 14.933 44.7506 15.1337 44.4644 15.2795C44.1782 15.4252 43.8661 15.5132 43.5459 15.5382C43.2257 15.5632 42.9036 15.5249 42.5983 15.4254C42.2929 15.326 42.0101 15.1673 41.7661 14.9584C41.522 14.7496 41.3216 14.4947 41.1761 14.2083L35.7351 3.52383Z" fill="#FF6584"/>
<path opacity="0.2" d="M36.3419 4.71554L36.0908 4.22241C37.3441 3.24861 38.8158 2.53244 40.4468 2.00415L40.6979 2.49728C38.9327 2.86488 37.4309 3.54516 36.3419 4.71554Z" fill="black"/>
<path opacity="0.2" d="M37.5138 7.01682L37.2627 6.52368C38.516 5.54988 39.9877 4.83371 41.6187 4.30542L41.8698 4.79855C40.1046 5.16615 38.6027 5.84644 37.5138 7.01682Z" fill="black"/>
<path opacity="0.2" d="M38.6857 9.31821L38.4346 8.82508C39.6879 7.85128 41.1596 7.1351 42.7906 6.60681L43.0417 7.09994C41.2764 7.46754 39.7746 8.14783 38.6857 9.31821Z" fill="black"/>
<path opacity="0.2" d="M39.8576 11.6195L39.6064 11.1263C40.8597 10.1525 42.3314 9.43637 43.9624 8.90808L44.2136 9.40121C42.4483 9.76881 40.9465 10.4491 39.8576 11.6195Z" fill="black"/>
<path opacity="0.2" d="M41.0297 13.9207L40.7786 13.4276C42.0318 12.4538 43.5036 11.7376 45.1346 11.2094L45.3857 11.7025C43.6204 12.0701 42.1186 12.7504 41.0297 13.9207Z" fill="black"/>
<path d="M31.6529 7.52373C31.5069 7.23767 31.4187 6.92565 31.3934 6.60548C31.368 6.28532 31.406 5.9633 31.5052 5.65783C31.6043 5.35236 31.7627 5.06943 31.9713 4.82521C32.1799 4.58099 32.4346 4.38027 32.7208 4.23453C33.0069 4.08879 33.3191 4.00088 33.6392 3.97583C33.9594 3.95078 34.2814 3.98908 34.5868 4.08854C34.8922 4.18799 35.1749 4.34666 35.419 4.55547C35.663 4.76428 35.8635 5.01913 36.0089 5.30546L41.45 15.99C41.7433 16.5675 41.7954 17.2379 41.5948 17.8538C41.3941 18.4698 40.9572 18.9808 40.3799 19.2748C39.8027 19.5688 39.1324 19.6215 38.5162 19.4215C37.9001 19.2216 37.3885 18.7852 37.094 18.2082L31.6529 7.52373Z" fill="#FF6584"/>
<path opacity="0.2" d="M32.2599 8.71554L32.0088 8.22241C33.2621 7.24861 34.7338 6.53244 36.3648 6.00415L36.6159 6.49728C34.8507 6.86488 33.3488 7.54516 32.2599 8.71554Z" fill="black"/>
<path opacity="0.2" d="M33.4318 11.0168L33.1807 10.5237C34.4339 9.54988 35.9057 8.83371 37.5367 8.30542L37.7878 8.79855C36.0225 9.16615 34.5207 9.84643 33.4318 11.0168Z" fill="black"/>
<path opacity="0.2" d="M34.6037 13.3181L34.3525 12.825C35.6058 11.8512 37.0775 11.135 38.7085 10.6067L38.9597 11.0998C37.1944 11.4674 35.6926 12.1477 34.6037 13.3181Z" fill="black"/>
<path opacity="0.2" d="M35.7758 15.6194L35.5247 15.1262C36.7779 14.1524 38.2496 13.4362 39.8806 12.908L40.1318 13.4011C38.3665 13.7687 36.8647 14.449 35.7758 15.6194Z" fill="black"/>
<path opacity="0.2" d="M36.9477 17.9206L36.6965 17.4275C37.9498 16.4537 39.4215 15.7375 41.0525 15.2092L41.3036 15.7024C39.5384 16.07 38.0366 16.7502 36.9477 17.9206Z" fill="black"/>
<path d="M62.9253 11.8373L62.9425 11.8373C63.5285 11.8422 64.1025 11.6704 64.5894 11.3442C65.0763 11.0181 65.4537 10.5527 65.6721 10.0089C66.1215 8.87302 66.3479 7.66125 66.3392 6.43976C66.3086 1.26963 62.1024 -2.97186 56.9327 -3.04338C54.731 -3.0742 52.5864 -2.34273 50.8624 -0.972975C49.1385 0.396782 47.9412 2.32055 47.4736 4.47221C47.0059 6.62388 47.2968 8.87105 48.2967 10.8328C49.2966 12.7945 50.9442 14.3502 52.9601 15.2359C53.4928 15.4718 54.0844 15.5412 54.6572 15.4349C55.2301 15.3287 55.7574 15.0519 56.1702 14.6407C57.0554 13.7507 58.1081 13.0449 59.2675 12.5637C60.4269 12.0826 61.67 11.8357 62.9253 11.8373Z" fill="#E6E6E6"/>
<path d="M58.0232 8.94854C59.7637 8.94854 61.1746 7.53761 61.1746 5.79715C61.1746 4.05668 59.7637 2.64575 58.0232 2.64575C56.2828 2.64575 54.8718 4.05668 54.8718 5.79715C54.8718 7.53761 56.2828 8.94854 58.0232 8.94854Z" fill="#F9A825"/>
<path d="M51.1742 5.44282C51.3793 5.44282 51.5455 5.2766 51.5455 5.07157C51.5455 4.86653 51.3793 4.70032 51.1742 4.70032C50.9692 4.70032 50.803 4.86653 50.803 5.07157C50.803 5.2766 50.9692 5.44282 51.1742 5.44282Z" fill="#3F3D56"/>
<path d="M38.9186 5.79291C39.1236 5.79291 39.2899 5.6267 39.2899 5.42166C39.2899 5.21663 39.1236 5.05042 38.9186 5.05042C38.7136 5.05042 38.5474 5.21663 38.5474 5.42166C38.5474 5.6267 38.7136 5.79291 38.9186 5.79291Z" fill="#3F3D56"/>
<path d="M53.1527 1.59528C53.3578 1.59528 53.524 1.42907 53.524 1.22403C53.524 1.019 53.3578 0.852783 53.1527 0.852783C52.9477 0.852783 52.7815 1.019 52.7815 1.22403C52.7815 1.42907 52.9477 1.59528 53.1527 1.59528Z" fill="#3F3D56"/>
<path d="M53.1422 12.2961C53.3473 12.2961 53.5135 12.1299 53.5135 11.9248C53.5135 11.7198 53.3473 11.5536 53.1422 11.5536C52.9372 11.5536 52.771 11.7198 52.771 11.9248C52.771 12.1299 52.9372 12.2961 53.1422 12.2961Z" fill="#3F3D56"/>
<path d="M60.4955 0.828558C60.7006 0.828558 60.8668 0.662344 60.8668 0.457309C60.8668 0.252274 60.7006 0.0860596 60.4955 0.0860596C60.2905 0.0860596 60.1243 0.252274 60.1243 0.457309C60.1243 0.662344 60.2905 0.828558 60.4955 0.828558Z" fill="#3F3D56"/>
<path d="M36.5099 10.983C36.715 10.983 36.8812 10.8168 36.8812 10.6117C36.8812 10.4067 36.715 10.2405 36.5099 10.2405C36.3049 10.2405 36.1387 10.4067 36.1387 10.6117C36.1387 10.8168 36.3049 10.983 36.5099 10.983Z" fill="#3F3D56"/>
<path d="M39.2235 16.3229C39.4286 16.3229 39.5948 16.1567 39.5948 15.9517C39.5948 15.7467 39.4286 15.5804 39.2235 15.5804C39.0185 15.5804 38.8523 15.7467 38.8523 15.9517C38.8523 16.1567 39.0185 16.3229 39.2235 16.3229Z" fill="#3F3D56"/>
<path d="M56.2724 18.0526C57.046 18.0526 57.6731 17.4255 57.6731 16.652C57.6731 15.8784 57.046 15.2513 56.2724 15.2513C55.4989 15.2513 54.8718 15.8784 54.8718 16.652C54.8718 17.4255 55.4989 18.0526 56.2724 18.0526Z" fill="#FF6584"/>
<path opacity="0.2" d="M57.3229 16.7395C57.3229 17.0181 57.2122 17.2853 57.0152 17.4823C56.8182 17.6793 56.551 17.79 56.2724 17.79C55.9938 17.79 55.7266 17.6793 55.5296 17.4823C55.3326 17.2853 55.2219 17.0181 55.2219 16.7395" fill="black"/>
<path opacity="0.2" d="M55.2219 16.5644C55.2219 16.2858 55.3326 16.0186 55.5296 15.8216C55.7266 15.6246 55.9938 15.5139 56.2724 15.5139C56.551 15.5139 56.8182 15.6246 57.0152 15.8216C57.2122 16.0186 57.3229 16.2858 57.3229 16.5644" fill="black"/>
<path d="M55.7472 16.3018C55.7956 16.3018 55.8347 16.243 55.8347 16.1705C55.8347 16.098 55.7956 16.0392 55.7472 16.0392C55.6989 16.0392 55.6597 16.098 55.6597 16.1705C55.6597 16.243 55.6989 16.3018 55.7472 16.3018Z" fill="#FF6584"/>
<path d="M56.2724 16.1268C56.3207 16.1268 56.3599 16.068 56.3599 15.9954C56.3599 15.9229 56.3207 15.8641 56.2724 15.8641C56.224 15.8641 56.1848 15.9229 56.1848 15.9954C56.1848 16.068 56.224 16.1268 56.2724 16.1268Z" fill="#FF6584"/>
<path d="M56.2724 17.2647C56.3207 17.2647 56.3599 17.2059 56.3599 17.1334C56.3599 17.0609 56.3207 17.0021 56.2724 17.0021C56.224 17.0021 56.1848 17.0609 56.1848 17.1334C56.1848 17.2059 56.224 17.2647 56.2724 17.2647Z" fill="#FF6584"/>
<path d="M56.7977 16.5644C56.8461 16.5644 56.8853 16.5056 56.8853 16.4331C56.8853 16.3605 56.8461 16.3018 56.7977 16.3018C56.7494 16.3018 56.7102 16.3605 56.7102 16.4331C56.7102 16.5056 56.7494 16.5644 56.7977 16.5644Z" fill="#FF6584"/>
<path d="M56.7101 17.5274C56.7584 17.5274 56.7976 17.4686 56.7976 17.3961C56.7976 17.3236 56.7584 17.2648 56.7101 17.2648C56.6618 17.2648 56.6226 17.3236 56.6226 17.3961C56.6226 17.4686 56.6618 17.5274 56.7101 17.5274Z" fill="#FF6584"/>
<path d="M55.6598 17.0896C55.7081 17.0896 55.7473 17.0309 55.7473 16.9583C55.7473 16.8858 55.7081 16.827 55.6598 16.827C55.6115 16.827 55.5723 16.8858 55.5723 16.9583C55.5723 17.0309 55.6115 17.0896 55.6598 17.0896Z" fill="#FF6584"/>
<path d="M59.0737 14.2884C59.8473 14.2884 60.4743 13.6613 60.4743 12.8878C60.4743 12.1143 59.8473 11.4872 59.0737 11.4872C58.3002 11.4872 57.6731 12.1143 57.6731 12.8878C57.6731 13.6613 58.3002 14.2884 59.0737 14.2884Z" fill="#FF6584"/>
<path opacity="0.2" d="M60.1241 12.9753C60.1241 13.2539 60.0135 13.5211 59.8165 13.7181C59.6195 13.9151 59.3523 14.0258 59.0737 14.0258C58.7951 14.0258 58.5279 13.9151 58.3309 13.7181C58.1339 13.5211 58.0232 13.2539 58.0232 12.9753" fill="black"/>
<path opacity="0.2" d="M58.0232 12.8002C58.0232 12.5216 58.1339 12.2544 58.3309 12.0574C58.5279 11.8604 58.7951 11.7498 59.0737 11.7498C59.3523 11.7498 59.6195 11.8604 59.8165 12.0574C60.0135 12.2544 60.1241 12.5216 60.1241 12.8002" fill="black"/>
<path d="M58.5485 12.5376C58.5968 12.5376 58.636 12.4789 58.636 12.4063C58.636 12.3338 58.5968 12.275 58.5485 12.275C58.5001 12.275 58.4609 12.3338 58.4609 12.4063C58.4609 12.4789 58.5001 12.5376 58.5485 12.5376Z" fill="#FF6584"/>
<path d="M59.0736 12.3626C59.122 12.3626 59.1612 12.3038 59.1612 12.2313C59.1612 12.1588 59.122 12.1 59.0736 12.1C59.0253 12.1 58.9861 12.1588 58.9861 12.2313C58.9861 12.3038 59.0253 12.3626 59.0736 12.3626Z" fill="#FF6584"/>
<path d="M59.0736 13.5005C59.122 13.5005 59.1612 13.4417 59.1612 13.3692C59.1612 13.2967 59.122 13.2379 59.0736 13.2379C59.0253 13.2379 58.9861 13.2967 58.9861 13.3692C58.9861 13.4417 59.0253 13.5005 59.0736 13.5005Z" fill="#FF6584"/>
<path d="M59.599 12.8002C59.6474 12.8002 59.6866 12.7414 59.6866 12.6689C59.6866 12.5964 59.6474 12.5376 59.599 12.5376C59.5507 12.5376 59.5115 12.5964 59.5115 12.6689C59.5115 12.7414 59.5507 12.8002 59.599 12.8002Z" fill="#FF6584"/>
<path d="M59.5114 13.7632C59.5597 13.7632 59.5989 13.7044 59.5989 13.6319C59.5989 13.5594 59.5597 13.5006 59.5114 13.5006C59.463 13.5006 59.4238 13.5594 59.4238 13.6319C59.4238 13.7044 59.463 13.7632 59.5114 13.7632Z" fill="#FF6584"/>
<path d="M58.4608 13.3255C58.5092 13.3255 58.5484 13.2667 58.5484 13.1942C58.5484 13.1217 58.5092 13.0629 58.4608 13.0629C58.4125 13.0629 58.3733 13.1217 58.3733 13.1942C58.3733 13.2667 58.4125 13.3255 58.4608 13.3255Z" fill="#FF6584"/>
<path d="M61.875 16.2142C62.6485 16.2142 63.2756 15.5871 63.2756 14.8136C63.2756 14.04 62.6485 13.413 61.875 13.413C61.1014 13.413 60.4744 14.04 60.4744 14.8136C60.4744 15.5871 61.1014 16.2142 61.875 16.2142Z" fill="#E73B3B"/>
<path opacity="0.2" d="M62.9254 14.9011C62.9254 15.1797 62.8147 15.4469 62.6177 15.6439C62.4207 15.8409 62.1535 15.9516 61.8749 15.9516C61.5963 15.9516 61.3291 15.8409 61.1321 15.6439C60.9351 15.4469 60.8245 15.1797 60.8245 14.9011" fill="black"/>
<path opacity="0.2" d="M60.8245 14.7261C60.8245 14.4475 60.9351 14.1803 61.1321 13.9833C61.3291 13.7863 61.5963 13.6757 61.8749 13.6757C62.1535 13.6757 62.4207 13.7863 62.6177 13.9833C62.8147 14.1803 62.9254 14.4475 62.9254 14.7261" fill="black"/>
<path d="M61.3497 14.4635C61.3981 14.4635 61.4373 14.4048 61.4373 14.3322C61.4373 14.2597 61.3981 14.2009 61.3497 14.2009C61.3014 14.2009 61.2622 14.2597 61.2622 14.3322C61.2622 14.4048 61.3014 14.4635 61.3497 14.4635Z" fill="#E73B3B"/>
<path d="M61.8749 14.2884C61.9232 14.2884 61.9624 14.2296 61.9624 14.1571C61.9624 14.0845 61.9232 14.0258 61.8749 14.0258C61.8265 14.0258 61.7874 14.0845 61.7874 14.1571C61.7874 14.2296 61.8265 14.2884 61.8749 14.2884Z" fill="#E73B3B"/>
<path d="M61.8749 15.4264C61.9232 15.4264 61.9624 15.3676 61.9624 15.2951C61.9624 15.2226 61.9232 15.1638 61.8749 15.1638C61.8265 15.1638 61.7874 15.2226 61.7874 15.2951C61.7874 15.3676 61.8265 15.4264 61.8749 15.4264Z" fill="#E73B3B"/>
<path d="M62.4003 14.7261C62.4486 14.7261 62.4878 14.6673 62.4878 14.5948C62.4878 14.5223 62.4486 14.4635 62.4003 14.4635C62.3519 14.4635 62.3127 14.5223 62.3127 14.5948C62.3127 14.6673 62.3519 14.7261 62.4003 14.7261Z" fill="#E73B3B"/>
<path d="M62.3126 15.689C62.361 15.689 62.4002 15.6302 62.4002 15.5577C62.4002 15.4852 62.361 15.4264 62.3126 15.4264C62.2643 15.4264 62.2251 15.4852 62.2251 15.5577C62.2251 15.6302 62.2643 15.689 62.3126 15.689Z" fill="#E73B3B"/>
<path d="M61.2621 15.2514C61.3104 15.2514 61.3496 15.1926 61.3496 15.1201C61.3496 15.0476 61.3104 14.9888 61.2621 14.9888C61.2138 14.9888 61.1746 15.0476 61.1746 15.1201C61.1746 15.1926 61.2138 15.2514 61.2621 15.2514Z" fill="#E73B3B"/>
<path d="M54.8718 16.3894C55.6454 16.3894 56.2724 15.7623 56.2724 14.9888C56.2724 14.2152 55.6454 13.5881 54.8718 13.5881C54.0983 13.5881 53.4712 14.2152 53.4712 14.9888C53.4712 15.7623 54.0983 16.3894 54.8718 16.3894Z" fill="#E73B3B"/>
<path opacity="0.2" d="M55.9222 15.0763C55.9222 15.3549 55.8115 15.6221 55.6145 15.8191C55.4175 16.0161 55.1504 16.1268 54.8718 16.1268C54.5932 16.1268 54.326 16.0161 54.129 15.8191C53.932 15.6221 53.8213 15.3549 53.8213 15.0763" fill="black"/>
<path opacity="0.2" d="M53.8213 14.9012C53.8213 14.6226 53.932 14.3554 54.129 14.1584C54.326 13.9614 54.5932 13.8507 54.8718 13.8507C55.1504 13.8507 55.4175 13.9614 55.6145 14.1584C55.8115 14.3554 55.9222 14.6226 55.9222 14.9012" fill="black"/>
<path d="M54.3466 14.6386C54.3949 14.6386 54.4341 14.5798 54.4341 14.5073C54.4341 14.4348 54.3949 14.376 54.3466 14.376C54.2982 14.376 54.259 14.4348 54.259 14.5073C54.259 14.5798 54.2982 14.6386 54.3466 14.6386Z" fill="#E73B3B"/>
<path d="M54.872 14.4635C54.9203 14.4635 54.9595 14.4048 54.9595 14.3322C54.9595 14.2597 54.9203 14.2009 54.872 14.2009C54.8236 14.2009 54.7844 14.2597 54.7844 14.3322C54.7844 14.4048 54.8236 14.4635 54.872 14.4635Z" fill="#E73B3B"/>
<path d="M54.872 15.6015C54.9203 15.6015 54.9595 15.5427 54.9595 15.4702C54.9595 15.3977 54.9203 15.3389 54.872 15.3389C54.8236 15.3389 54.7844 15.3977 54.7844 15.4702C54.7844 15.5427 54.8236 15.6015 54.872 15.6015Z" fill="#E73B3B"/>
<path d="M55.3971 14.9012C55.4455 14.9012 55.4846 14.8424 55.4846 14.7699C55.4846 14.6973 55.4455 14.6385 55.3971 14.6385C55.3488 14.6385 55.3096 14.6973 55.3096 14.7699C55.3096 14.8424 55.3488 14.9012 55.3971 14.9012Z" fill="#E73B3B"/>
<path d="M55.3095 15.8641C55.3578 15.8641 55.397 15.8053 55.397 15.7327C55.397 15.6602 55.3578 15.6014 55.3095 15.6014C55.2611 15.6014 55.2219 15.6602 55.2219 15.7327C55.2219 15.8053 55.2611 15.8641 55.3095 15.8641Z" fill="#E73B3B"/>
<path d="M54.2592 15.4264C54.3075 15.4264 54.3467 15.3676 54.3467 15.2951C54.3467 15.2226 54.3075 15.1638 54.2592 15.1638C54.2108 15.1638 54.1716 15.2226 54.1716 15.2951C54.1716 15.3676 54.2108 15.4264 54.2592 15.4264Z" fill="#E73B3B"/>
<path d="M58.0232 17.0022C58.7967 17.0022 59.4238 16.3751 59.4238 15.6015C59.4238 14.828 58.7967 14.2009 58.0232 14.2009C57.2496 14.2009 56.6226 14.828 56.6226 15.6015C56.6226 16.3751 57.2496 17.0022 58.0232 17.0022Z" fill="#E73B3B"/>
<path opacity="0.2" d="M59.0736 15.6891C59.0736 15.827 59.0464 15.9636 58.9936 16.0911C58.9408 16.2185 58.8635 16.3343 58.7659 16.4319C58.6684 16.5294 58.5526 16.6068 58.4251 16.6596C58.2977 16.7124 58.1611 16.7396 58.0231 16.7396C57.8852 16.7396 57.7486 16.7124 57.6211 16.6596C57.4937 16.6068 57.3779 16.5294 57.2803 16.4319C57.1828 16.3343 57.1054 16.2185 57.0526 16.0911C56.9998 15.9636 56.9727 15.827 56.9727 15.6891" fill="black"/>
<path opacity="0.2" d="M56.9727 15.514C56.9727 15.376 56.9998 15.2394 57.0526 15.112C57.1054 14.9845 57.1828 14.8687 57.2803 14.7712C57.3779 14.6736 57.4937 14.5963 57.6211 14.5435C57.7486 14.4907 57.8852 14.4635 58.0231 14.4635C58.1611 14.4635 58.2977 14.4907 58.4251 14.5435C58.5526 14.5963 58.6684 14.6736 58.7659 14.7712C58.8635 14.8687 58.9408 14.9845 58.9936 15.112C59.0464 15.2394 59.0736 15.376 59.0736 15.514" fill="black"/>
<path d="M57.4979 15.2514C57.5463 15.2514 57.5855 15.1926 57.5855 15.1201C57.5855 15.0476 57.5463 14.9888 57.4979 14.9888C57.4496 14.9888 57.4104 15.0476 57.4104 15.1201C57.4104 15.1926 57.4496 15.2514 57.4979 15.2514Z" fill="#E73B3B"/>
<path d="M58.0233 15.0762C58.0717 15.0762 58.1109 15.0174 58.1109 14.9449C58.1109 14.8724 58.0717 14.8136 58.0233 14.8136C57.975 14.8136 57.9358 14.8724 57.9358 14.9449C57.9358 15.0174 57.975 15.0762 58.0233 15.0762Z" fill="#E73B3B"/>
<path d="M58.0233 16.2143C58.0717 16.2143 58.1109 16.1555 58.1109 16.083C58.1109 16.0104 58.0717 15.9517 58.0233 15.9517C57.975 15.9517 57.9358 16.0104 57.9358 16.083C57.9358 16.1555 57.975 16.2143 58.0233 16.2143Z" fill="#E73B3B"/>
<path d="M58.5485 15.514C58.5968 15.514 58.636 15.4552 58.636 15.3827C58.636 15.3101 58.5968 15.2513 58.5485 15.2513C58.5001 15.2513 58.4609 15.3101 58.4609 15.3827C58.4609 15.4552 58.5001 15.514 58.5485 15.514Z" fill="#E73B3B"/>
<path d="M58.4608 16.4769C58.5092 16.4769 58.5484 16.4181 58.5484 16.3455C58.5484 16.273 58.5092 16.2142 58.4608 16.2142C58.4125 16.2142 58.3733 16.273 58.3733 16.3455C58.3733 16.4181 58.4125 16.4769 58.4608 16.4769Z" fill="#E73B3B"/>
<path d="M57.4105 16.0392C57.4589 16.0392 57.4981 15.9804 57.4981 15.9079C57.4981 15.8354 57.4589 15.7766 57.4105 15.7766C57.3622 15.7766 57.323 15.8354 57.323 15.9079C57.323 15.9804 57.3622 16.0392 57.4105 16.0392Z" fill="#E73B3B"/>
<path d="M60.2117 18.4903C60.9852 18.4903 61.6123 17.8632 61.6123 17.0897C61.6123 16.3162 60.9852 15.6891 60.2117 15.6891C59.4381 15.6891 58.811 16.3162 58.811 17.0897C58.811 17.8632 59.4381 18.4903 60.2117 18.4903Z" fill="#FF6584"/>
<path opacity="0.2" d="M61.2621 17.1772C61.2621 17.4558 61.1514 17.723 60.9544 17.92C60.7574 18.117 60.4902 18.2277 60.2116 18.2277C59.933 18.2277 59.6658 18.117 59.4688 17.92C59.2718 17.723 59.1611 17.4558 59.1611 17.1772" fill="black"/>
<path opacity="0.2" d="M59.1611 17.0021C59.1611 16.7235 59.2718 16.4563 59.4688 16.2593C59.6658 16.0623 59.933 15.9517 60.2116 15.9517C60.4902 15.9517 60.7574 16.0623 60.9544 16.2593C61.1514 16.4563 61.2621 16.7235 61.2621 17.0021" fill="black"/>
<path d="M59.6864 16.7395C59.7348 16.7395 59.774 16.6808 59.774 16.6082C59.774 16.5357 59.7348 16.4769 59.6864 16.4769C59.6381 16.4769 59.5989 16.5357 59.5989 16.6082C59.5989 16.6808 59.6381 16.7395 59.6864 16.7395Z" fill="#FF6584"/>
<path d="M60.2118 16.5644C60.2602 16.5644 60.2993 16.5056 60.2993 16.4331C60.2993 16.3605 60.2602 16.3018 60.2118 16.3018C60.1635 16.3018 60.1243 16.3605 60.1243 16.4331C60.1243 16.5056 60.1635 16.5644 60.2118 16.5644Z" fill="#FF6584"/>
<path d="M60.2118 17.7024C60.2602 17.7024 60.2993 17.6436 60.2993 17.5711C60.2993 17.4986 60.2602 17.4398 60.2118 17.4398C60.1635 17.4398 60.1243 17.4986 60.1243 17.5711C60.1243 17.6436 60.1635 17.7024 60.2118 17.7024Z" fill="#FF6584"/>
<path d="M60.737 17.0021C60.7853 17.0021 60.8245 16.9433 60.8245 16.8708C60.8245 16.7983 60.7853 16.7395 60.737 16.7395C60.6886 16.7395 60.6494 16.7983 60.6494 16.8708C60.6494 16.9433 60.6886 17.0021 60.737 17.0021Z" fill="#FF6584"/>
<path d="M60.6493 17.965C60.6977 17.965 60.7368 17.9062 60.7368 17.8337C60.7368 17.7612 60.6977 17.7024 60.6493 17.7024C60.601 17.7024 60.5618 17.7612 60.5618 17.8337C60.5618 17.9062 60.601 17.965 60.6493 17.965Z" fill="#FF6584"/>
<path d="M59.599 17.5274C59.6474 17.5274 59.6866 17.4686 59.6866 17.3961C59.6866 17.3236 59.6474 17.2648 59.599 17.2648C59.5507 17.2648 59.5115 17.3236 59.5115 17.3961C59.5115 17.4686 59.5507 17.5274 59.599 17.5274Z" fill="#FF6584"/>
<path d="M42.1999 12.121C42.4049 12.121 42.5711 11.9548 42.5711 11.7498C42.5711 11.5448 42.4049 11.3785 42.1999 11.3785C41.9948 11.3785 41.8286 11.5448 41.8286 11.7498C41.8286 11.9548 41.9948 12.121 42.1999 12.121Z" fill="#3F3D56"/>
<path d="M52.2911 25.2252L43.375 22.7526L43.7166 21.4839L52.6327 23.9566L52.2911 25.2252Z" fill="#F9A825"/>
<path d="M50.9839 24.8012C47.9307 25.3857 44.7942 25.3857 41.741 24.8012V23.4861C44.8011 23.9933 47.9238 23.9933 50.9839 23.4861V24.8012Z" fill="#F9A825"/>
<path d="M51.9341 20.8559C48.8809 21.4404 45.7444 21.4404 42.6912 20.8559V19.5408C45.7513 20.0479 48.874 20.0479 51.9341 19.5408V20.8559Z" fill="#F9A825"/>
<path d="M55.1304 22.434C52.0772 23.0185 48.9407 23.0185 45.8875 22.434V21.1189C48.9476 21.6261 52.0703 21.6261 55.1304 21.1189V22.434Z" fill="#F9A825"/>
<path d="M55.9078 23.9245C52.8545 24.509 49.7181 24.509 46.6648 23.9245V22.6094C49.7249 23.1166 52.8477 23.1166 55.9078 22.6094V23.9245Z" fill="#F9A825"/>
<path d="M58.6184 25.8721L49.4993 27.4039L49.2878 26.1063L58.4068 24.5746L58.6184 25.8721Z" fill="#F9A825"/>
<path d="M57.2561 26.0407C54.7279 27.8631 51.8785 29.1921 48.8574 29.9579L48.3164 28.7629C51.311 27.9243 54.1481 26.6011 56.7151 24.8457L57.2561 26.0407Z" fill="#F9A825"/>
<path d="M56.4966 22.053C53.9684 23.8755 51.119 25.2044 48.0979 25.9702L47.5569 24.7752C50.5515 23.9367 53.3886 22.6134 55.9555 20.858L56.4966 22.053Z" fill="#F9A825"/>
<path d="M60.0501 22.1325C57.5218 23.9549 54.6724 25.2839 51.6514 26.0496L51.1104 24.8547C54.105 24.0161 56.942 22.6929 59.509 20.9375L60.0501 22.1325Z" fill="#F9A825"/>
<path d="M61.3696 23.1573C58.8414 24.9797 55.992 26.3087 52.971 27.0744L52.4299 25.8794C55.4245 25.0409 58.2616 23.7177 60.8286 21.9623L61.3696 23.1573Z" fill="#F9A825"/>
<path d="M50.3198 20.5912H49.8821V21.0289H50.3198V20.5912Z" fill="#00BF71"/>
<path d="M51.633 28.207H51.1953V28.6447H51.633V28.207Z" fill="#00BF71"/>
<path d="M44.6298 20.5912H44.1921V21.0289H44.6298V20.5912Z" fill="#00BF71"/>
<path d="M54.7844 26.0186H54.3467V26.4562H54.7844V26.0186Z" fill="#00BF71"/>
<path d="M55.0468 23.48H54.6091V23.9177H55.0468V23.48Z" fill="#00BF71"/>
<path d="M47.8267 22.2815L47.3196 21.9375L47.123 22.2273L47.6301 22.5713L47.8267 22.2815Z" fill="#00BF71"/>
<path d="M52.9915 23.2445L52.4844 22.9005L52.2878 23.1903L52.7949 23.5343L52.9915 23.2445Z" fill="#00BF71"/>
<path d="M46.6887 24.9078L46.1816 24.5637L45.985 24.8535L46.4921 25.1975L46.6887 24.9078Z" fill="#00BF71"/>
<path d="M49.8989 24.8823L50.2429 24.3752L49.9532 24.1787L49.6091 24.6857L49.8989 24.8823Z" fill="#00BF71"/>
<path d="M52.2624 25.495L52.6064 24.9879L52.3167 24.7913L51.9727 25.2984L52.2624 25.495Z" fill="#00BF71"/>
<path d="M58.5656 23.394L58.9097 22.887L58.6199 22.6904L58.2759 23.1974L58.5656 23.394Z" fill="#00BF71"/>
</g>
<defs>
<clipPath id="clip0_471_12442">
<rect width="100" height="54.6722" fill="white" transform="translate(0 -16)"/>
</clipPath>
</defs>
</svg>
