<svg width="30" height="34" viewBox="0 0 30 34" fill="none" xmlns="http://www.w3.org/2000/svg">
<g clip-path="url(#clip0_436_21478)">
<path d="M17.6426 0.0324455C17.6426 0.0324455 15.4784 -0.492074 14.1686 2.67677C13.0771 5.31814 12.3026 6.72871 13.1887 7.68687C13.5058 8.02963 13.9582 8.21435 14.4244 8.23016L19.4128 8.39413C19.4128 8.39413 21.2441 3.59147 20.1309 1.85493C19.0177 0.117396 17.6426 0.0324455 17.6426 0.0324455Z" fill="#2F2E41"/>
<path d="M18.676 7.99515L16.2766 8.7844V5.33008H18.4537L18.676 7.99515Z" fill="#F6A6A9"/>
<path d="M22.559 20.3554H11.6379L15.5634 7.43604H19.9176L22.559 20.3554Z" fill="#DDDEDF"/>
<path d="M11.3405 27.605C11.2101 28.3962 10.6827 28.9642 10.1621 28.8723C9.64153 28.7804 9.32445 28.0653 9.45484 27.2741C9.50225 26.957 9.6277 26.6577 9.82032 26.3999L10.415 23.0542L12.034 23.393L11.2753 26.6547C11.3751 26.9629 11.3978 27.2889 11.3415 27.605L11.3405 27.605Z" fill="#F6A6A9"/>
<path d="M16.2509 7.438C16.2509 7.438 13.5384 7.36688 13.2529 8.08007C12.9675 8.79424 9.61292 25.7823 9.61292 25.7823H11.8256L16.2509 7.438Z" fill="#DDDEDF"/>
<path d="M16.8268 6.1457C18.1475 6.1457 19.2182 5.07501 19.2182 3.75424C19.2182 2.43348 18.1475 1.36279 16.8268 1.36279C15.506 1.36279 14.4353 2.43348 14.4353 3.75424C14.4353 5.07501 15.506 6.1457 16.8268 6.1457Z" fill="#F6A6A9"/>
<path d="M17.2022 0.821789C17.2022 0.821789 14.1321 5.38836 14.6487 8.23717L12.8628 7.11799C12.8628 7.11799 14.1203 1.35125 15.9941 0.903776L17.2022 0.820801L17.2022 0.821789Z" fill="#2F2E41"/>
<path d="M20.289 20.3555H13.1225L9.20098 36.4496C9.12887 37.1292 9.55954 37.7634 10.2204 37.9402C12.3718 38.5161 17.534 39.333 25.3485 37.0591C26.1002 36.8408 26.5269 36.0476 26.2908 35.3008L20.289 20.3565V20.3555Z" fill="#2F2E41"/>
<path d="M10.6234 9.72756L10.574 9.67817L10.5246 9.72756C8.12133 7.32623 4.22646 7.32919 1.82513 9.7325C-0.576203 12.1368 -0.624605 16.0801 1.7787 18.4814L10.58 27.2738L19.3753 18.4705C21.7766 16.0662 21.7262 12.123 19.3239 9.72163C16.9206 7.3203 13.0257 7.32327 10.6244 9.72657C10.6244 9.72657 10.6234 9.72756 10.6234 9.72756Z" fill="#E73B3B"/>
<path d="M17.123 8.64484L19.1085 7.62642C20.0163 7.29057 21.0288 7.40318 21.8408 7.93165C24.3102 9.5378 29.1781 13.0791 27.0859 14.8294C24.329 17.1369 20.6021 13.0445 20.6021 13.0445L17.123 8.64484Z" fill="#DDDEDF"/>
<path d="M17.0796 10.3854C16.3891 9.97846 16.0503 9.28108 16.3239 8.82768C16.5976 8.37527 17.3789 8.33873 18.0704 8.7457C18.3489 8.90473 18.583 9.12995 18.7529 9.40258L21.6571 11.1668L20.7562 12.5536L17.9884 10.667C17.6644 10.6482 17.3522 10.5514 17.0786 10.3844H17.0796L17.0796 10.3854Z" fill="#F6A6A9"/>
<path d="M19.0532 11.9848L19.879 10.0122L23.9142 11.3477L22.1095 14.3516L19.0532 11.9848Z" fill="#DDDEDF"/>
</g>
<defs>
<clipPath id="clip0_436_21478">
<rect width="30" height="51.9006" fill="white"/>
</clipPath>
</defs>
</svg>
